<svg version="1.1" id="Layer_1" xmlns="http://www.w3.org/2000/svg" xmlns:xlink="http://www.w3.org/1999/xlink" x="0px" y="0px"
	 width="100%" viewBox="0 0 200 200" enable-background="new 0 0 200 200" xml:space="preserve">
<path fill="#09538A" opacity="1.000000" stroke="none" 
	d="
M201.000000,158.000000 
	C201.000000,161.692902 201.000000,165.385818 200.692413,169.721329 
	C197.243835,181.455246 189.235916,187.703735 178.478165,188.797150 
	C165.111725,190.155716 151.561951,189.766937 138.089066,190.000046 
	C130.431061,190.132568 129.457672,189.075958 129.451157,181.385330 
	C129.432922,159.889740 129.445236,138.394119 129.445511,116.898514 
	C129.445526,115.148758 129.445511,113.399002 129.445511,112.179436 
	C114.908333,112.179436 101.154198,112.179436 87.356003,112.179436 
	C87.356003,120.911217 87.356003,129.116776 87.356003,137.585938 
	C96.389030,137.585938 105.045418,137.600983 113.701714,137.579208 
	C117.683311,137.569183 119.919693,139.200943 120.065254,143.472641 
	C120.277061,149.688705 118.768456,151.364410 112.195335,151.399933 
	C103.923737,151.444626 95.651718,151.410706 86.982475,151.410706 
	C86.982475,162.273727 87.108788,172.580826 86.877220,182.879868 
	C86.830200,184.970810 85.738571,188.603531 84.604355,188.823578 
	C80.516693,189.616562 76.013947,189.985764 72.075272,188.956482 
	C70.573898,188.564148 69.412773,183.970261 69.388611,181.279587 
	C69.179222,157.952896 69.264153,134.623535 69.261551,111.294975 
	C69.261330,109.325478 69.261520,107.355980 69.261520,105.062431 
	C67.152977,105.529785 65.557564,105.846008 63.981129,106.238441 
	C40.590424,112.061272 13.604007,101.932007 4.002784,77.081863 
	C3.191241,74.981400 2.009668,73.023911 1.000000,71.000000 
	C1.000000,63.979053 1.000000,56.958103 1.370683,49.434509 
	C2.332485,47.604469 3.010191,46.308273 3.501489,44.944912 
	C9.155915,29.253754 20.033663,18.740822 36.005810,14.488366 
	C52.527042,10.089720 68.487152,11.855880 82.798332,22.402550 
	C88.754616,14.952827 96.632851,11.332688 106.304283,12.096652 
	C115.888840,12.853754 123.342911,17.845531 129.343246,24.587793 
	C133.023575,21.695078 136.163773,18.618517 139.837234,16.441936 
	C158.554184,5.351844 179.501419,15.638206 182.300751,37.141293 
	C183.717514,48.024025 180.694839,57.811039 173.498734,65.805290 
	C165.163345,75.065178 156.072205,83.645836 147.279770,92.492165 
	C145.825745,93.955132 144.221329,95.268623 141.650009,97.584709 
	C150.210526,97.584709 157.311050,97.572716 164.411499,97.587967 
	C172.008514,97.604294 179.341049,98.761887 185.883194,102.951805 
	C200.736343,112.464508 200.040649,132.578384 184.608887,140.795563 
	C183.788834,141.232224 183.067673,141.854614 182.086090,142.540283 
	C191.379669,144.810349 194.868332,147.733734 199.195648,156.478241 
	C199.515594,157.124802 200.385666,157.499115 201.000000,158.000000 
M98.998154,63.000454 
	C98.998154,63.000454 99.019958,62.956841 99.214195,63.424133 
	C99.484680,63.615997 99.755157,63.807861 99.993889,64.005859 
	C99.993889,64.005859 100.001678,63.974472 100.189888,64.443619 
	C100.455048,64.643356 100.720207,64.843086 101.380531,65.304237 
	C101.632027,65.510826 101.808456,65.768753 102.029724,66.680252 
	C102.640205,67.152763 103.250679,67.625267 103.944321,68.072159 
	C103.944321,68.072159 103.908249,68.151344 104.029373,68.807076 
	C105.645744,70.233734 107.262115,71.660393 109.330048,73.193321 
	C109.330048,73.193321 109.789932,73.254196 109.817581,73.681892 
	C109.817581,73.681892 109.898933,74.102692 110.035446,74.707771 
	C110.671021,75.154671 111.306595,75.601578 111.992119,75.998779 
	C111.992119,75.998779 111.965103,76.063438 112.177155,76.511864 
	C112.389709,76.785645 112.665283,76.959625 113.421280,77.235039 
	C113.689674,77.410378 113.880577,77.647980 114.177193,78.513283 
	C114.707558,79.092079 115.237923,79.670876 116.086052,80.585358 
	C116.300255,80.807167 116.522873,81.020180 117.062294,81.586601 
	C117.287621,81.810036 117.523659,82.021507 118.030991,82.842476 
	C119.323792,83.597679 120.616592,84.352882 122.347870,85.305748 
	C122.621902,85.491074 122.823265,85.736115 123.140503,86.504318 
	C123.345688,86.794472 123.624542,86.961876 124.002090,86.994507 
	C124.002090,86.994507 123.997284,87.021736 124.235039,87.457832 
	C124.456413,87.723259 124.736298,87.891159 125.012466,87.986931 
	C125.012466,87.986931 125.035355,87.923737 125.251503,88.390182 
	C125.533875,88.573608 125.816238,88.757027 126.033470,88.911469 
	C126.033470,88.911469 126.095245,88.875862 126.164993,89.573471 
	C127.843407,90.112534 129.521820,90.651604 131.550613,90.884293 
	C131.780762,90.675575 132.001831,90.457649 132.775696,89.990768 
	C133.200089,89.342606 133.624481,88.694450 134.003479,88.000000 
	C134.003479,88.000000 134.042877,88.049423 134.679520,87.936378 
	C135.097305,87.471115 135.515091,87.005852 136.040833,86.307106 
	C136.040833,86.307106 136.267868,86.186180 136.820084,86.013443 
	C137.144501,85.570465 137.468933,85.127487 137.807587,84.786461 
	C137.807587,84.786461 137.705399,84.774002 138.251968,84.620682 
	C138.452133,84.313324 138.652313,84.005966 138.898102,83.308617 
	C138.898102,83.308617 138.962524,82.921280 139.415405,82.997063 
	C139.415405,82.997063 139.873276,82.966881 140.396378,82.855164 
	C140.680801,82.644310 140.965225,82.433456 141.589722,81.914825 
	C141.816895,81.709465 142.035645,81.495506 142.893661,81.047218 
	C144.998871,79.096672 147.104095,77.146126 149.550323,74.882767 
	C149.774780,74.670784 149.989761,74.449593 150.739822,73.979607 
	C151.206024,73.366188 151.672226,72.752777 152.692825,71.925613 
	C153.198303,71.346664 153.703781,70.767715 154.573441,69.882462 
	C154.819092,69.678696 155.039459,69.450493 155.570862,68.874817 
	C155.795044,68.656960 155.994263,68.418266 156.516953,67.846870 
	C156.748215,67.637123 156.969345,67.417191 157.798004,66.944359 
	C159.287582,65.044388 160.777176,63.144413 162.594009,60.913902 
	C162.806335,60.687714 163.007202,60.451775 163.732452,59.755123 
	C165.684662,57.639553 168.983749,56.215126 167.586990,52.119629 
	C167.586990,52.119629 167.764816,51.959427 168.452713,51.622211 
	C171.454437,45.309040 172.032074,39.018082 168.096756,32.130318 
	C167.342621,31.458115 166.588470,30.785913 165.900284,30.080137 
	C165.900284,30.080137 165.916534,30.152334 165.729645,29.661537 
	C165.456726,29.452478 165.183807,29.243422 164.977280,29.021791 
	C164.977280,29.021791 164.967468,29.088648 164.709946,28.610992 
	C164.402420,28.432228 164.094879,28.253462 163.425186,27.909250 
	C163.196030,27.757742 163.036224,27.552301 162.804153,26.533924 
	C159.223450,23.313957 151.849396,22.920507 146.206451,25.872723 
	C145.708878,26.134354 145.211304,26.395985 144.200012,26.864683 
	C143.731110,27.159725 143.262207,27.454767 142.103378,27.920607 
	C140.789124,29.463995 139.474869,31.007383 138.100525,32.757889 
	C138.100525,32.757889 137.909424,32.857838 137.478180,33.123852 
	C137.319916,33.413654 137.161667,33.703457 137.001953,34.001366 
	C137.001953,34.001366 136.994568,34.004486 136.546539,34.216724 
	C136.268509,34.426418 136.098404,34.702591 135.997116,35.005226 
	C135.997116,35.005226 136.046906,35.028831 135.553558,35.330986 
	C135.395386,35.677452 135.237213,36.023918 134.931564,36.849533 
	C134.606308,37.218128 134.281052,37.586723 133.509445,38.176056 
	C133.230850,38.388325 133.064011,38.667404 132.999512,38.999790 
	C132.999512,38.999790 133.013885,39.006836 132.575821,39.279388 
	C132.430939,39.585728 132.286057,39.892067 132.137802,40.092670 
	C132.137802,40.092670 132.207932,40.171864 131.483047,40.191292 
	C130.311523,40.470993 129.139999,40.750698 127.994621,40.997581 
	C127.994621,40.997581 127.981499,41.034977 127.824471,40.571888 
	C127.652702,40.275539 127.403961,40.074364 127.009438,39.974609 
	C127.009438,39.974609 127.041550,39.913445 126.909370,39.465477 
	C126.744354,39.180714 126.504013,38.991711 125.757530,38.766277 
	C125.757530,38.766277 125.317955,38.667027 125.237839,38.188599 
	C125.105377,37.892166 125.007149,37.584793 124.750328,36.731415 
	C124.461761,36.497265 124.173203,36.263111 123.500252,35.950203 
	C123.500252,35.950203 123.112740,35.888641 123.092293,35.427460 
	C123.092293,35.427460 123.034286,34.969486 123.032433,34.305157 
	C122.441681,33.446079 121.850937,32.587002 120.944984,31.386654 
	C120.727737,31.165592 120.498993,30.957155 119.936295,30.411819 
	C119.701790,30.198477 119.458855,29.995214 118.793289,29.424107 
	C118.270828,29.249479 117.748360,29.074852 116.716576,28.815788 
	C116.544876,28.804207 116.373169,28.792624 116.130836,28.397120 
	C116.130836,28.397120 116.028435,28.020430 115.862343,27.551619 
	C115.685143,27.266712 115.462189,27.023802 114.734352,26.476412 
	C114.203239,26.264643 113.672119,26.052874 112.738663,25.177229 
	C107.673492,23.323116 102.662193,22.989378 97.101562,25.889547 
	C95.645432,27.514660 94.189308,29.139772 92.416748,31.102863 
	C92.210609,31.332575 92.011086,31.567898 91.203156,32.161694 
	C86.869530,39.295383 87.067070,46.324474 91.847466,53.934742 
	C92.645576,54.892574 93.443695,55.850407 94.163651,57.006485 
	C94.163651,57.006485 94.217567,56.803074 94.134392,57.546513 
	C95.461433,58.999279 96.788475,60.452045 98.082466,61.975128 
	C98.082466,61.975128 98.058617,61.901192 98.247711,62.374302 
	C98.512993,62.577091 98.778267,62.779884 98.998154,63.000454 
M146.548935,111.695679 
	C146.695297,120.117195 146.841660,128.538712 147.889191,137.243622 
	C154.963364,136.846786 162.174896,137.169128 169.073242,135.851669 
	C176.029068,134.523193 179.645554,128.567078 178.920898,122.348755 
	C178.266525,116.733566 173.581284,112.337311 166.810379,111.950264 
	C160.229095,111.574051 153.604889,111.948456 146.548935,111.695679 
M172.419052,175.308746 
	C179.568436,173.439392 183.057220,169.847610 183.271698,164.135712 
	C183.494492,158.202286 180.176987,152.676666 173.526703,151.359756 
	C165.020340,149.675247 156.206223,149.544937 147.249283,148.719482 
	C147.249283,158.609207 147.249283,167.225418 147.809433,176.388489 
	C153.166077,176.594879 158.523697,176.968018 163.878967,176.936951 
	C166.538071,176.921539 169.192871,176.163742 172.419052,175.308746 
M19.086802,55.978680 
	C16.451118,84.508064 41.640377,98.987007 66.242981,89.517128 
	C67.743851,88.939415 69.877907,87.465141 69.985100,86.254631 
	C70.415337,81.395981 70.163002,76.476875 70.163002,71.257095 
	C64.079781,71.257095 58.777199,71.292282 53.475296,71.247612 
	C47.684998,71.198837 46.045715,69.645744 46.091389,64.407730 
	C46.134235,59.494053 47.810116,57.942207 53.290443,57.921200 
	C62.082966,57.887493 70.875717,57.912170 78.954269,57.912170 
	C78.095169,49.415627 77.261368,41.169228 76.502159,33.660568 
	C74.173950,33.021301 71.131409,32.566433 68.409042,31.378101 
	C46.950993,22.011522 23.453550,30.821190 19.086802,55.978680 
M109.957764,90.546021 
	C102.569511,83.061432 95.181259,75.576843 86.754204,67.039894 
	C86.754204,73.495705 86.967598,78.415123 86.693245,83.307182 
	C86.427269,88.049812 85.660095,92.764328 85.141342,97.246643 
	C95.112083,97.246643 105.796127,97.246643 117.372162,97.246643 
	C114.617714,94.762177 112.546898,92.894348 109.957764,90.546021 
z"/>
<path fill="#FDFEFE" opacity="1.000000" stroke="none" 
	d="
M1.000000,71.468658 
	C2.009668,73.023911 3.191241,74.981400 4.002784,77.081863 
	C13.604007,101.932007 40.590424,112.061272 63.981129,106.238441 
	C65.557564,105.846008 67.152977,105.529785 69.261520,105.062431 
	C69.261520,107.355980 69.261330,109.325478 69.261551,111.294975 
	C69.264153,134.623535 69.179222,157.952896 69.388611,181.279587 
	C69.412773,183.970261 70.573898,188.564148 72.075272,188.956482 
	C76.013947,189.985764 80.516693,189.616562 84.604355,188.823578 
	C85.738571,188.603531 86.830200,184.970810 86.877220,182.879868 
	C87.108788,172.580826 86.982475,162.273727 86.982475,151.410706 
	C95.651718,151.410706 103.923737,151.444626 112.195335,151.399933 
	C118.768456,151.364410 120.277061,149.688705 120.065254,143.472641 
	C119.919693,139.200943 117.683311,137.569183 113.701714,137.579208 
	C105.045418,137.600983 96.389030,137.585938 87.356003,137.585938 
	C87.356003,129.116776 87.356003,120.911217 87.356003,112.179436 
	C101.154198,112.179436 114.908333,112.179436 129.445511,112.179436 
	C129.445511,113.399002 129.445526,115.148758 129.445511,116.898514 
	C129.445236,138.394119 129.432922,159.889740 129.451157,181.385330 
	C129.457672,189.075958 130.431061,190.132568 138.089066,190.000046 
	C151.561951,189.766937 165.111725,190.155716 178.478165,188.797150 
	C189.235916,187.703735 197.243835,181.455246 200.692413,170.181976 
	C201.000000,180.320801 201.000000,190.641602 201.000000,200.962402 
	C200.846069,200.974945 200.692139,200.998444 200.538208,200.998444 
	C134.118866,201.000015 67.699524,201.000000 1.000000,201.000000 
	C1.000000,157.979507 1.000000,114.958412 1.000000,71.468658 
z"/>
<path fill="#FBFDFD" opacity="1.000000" stroke="none" 
	d="
M201.000000,157.531342 
	C200.385666,157.499115 199.515594,157.124802 199.195648,156.478241 
	C194.868332,147.733734 191.379669,144.810349 182.086090,142.540283 
	C183.067673,141.854614 183.788834,141.232224 184.608887,140.795563 
	C200.040649,132.578384 200.736343,112.464508 185.883194,102.951805 
	C179.341049,98.761887 172.008514,97.604294 164.411499,97.587967 
	C157.311050,97.572716 150.210526,97.584709 141.650009,97.584709 
	C144.221329,95.268623 145.825745,93.955132 147.279770,92.492165 
	C156.072205,83.645836 165.163345,75.065178 173.498734,65.805290 
	C180.694839,57.811039 183.717514,48.024025 182.300751,37.141293 
	C179.501419,15.638206 158.554184,5.351844 139.837234,16.441936 
	C136.163773,18.618517 133.023575,21.695078 129.343246,24.587793 
	C123.342911,17.845531 115.888840,12.853754 106.304283,12.096652 
	C96.632851,11.332688 88.754616,14.952827 82.798332,22.402550 
	C68.487152,11.855880 52.527042,10.089720 36.005810,14.488366 
	C20.033663,18.740822 9.155915,29.253754 3.501489,44.944912 
	C3.010191,46.308273 2.332485,47.604469 1.370683,48.965931 
	C1.000000,33.017296 1.000000,17.034595 1.000000,1.051893 
	C1.149189,1.034595 1.298377,1.002141 1.447566,1.002136 
	C67.875671,0.999966 134.303787,1.000000 201.000000,1.000000 
	C201.000000,53.020588 201.000000,105.041634 201.000000,157.531342 
z"/>
<path fill="#F9FDFD" opacity="1.000000" stroke="none" 
	d="
M19.127396,55.539280 
	C23.453550,30.821190 46.950993,22.011522 68.409042,31.378101 
	C71.131409,32.566433 74.173950,33.021301 76.502159,33.660568 
	C77.261368,41.169228 78.095169,49.415627 78.954269,57.912170 
	C70.875717,57.912170 62.082966,57.887493 53.290443,57.921200 
	C47.810116,57.942207 46.134235,59.494053 46.091389,64.407730 
	C46.045715,69.645744 47.684998,71.198837 53.475296,71.247612 
	C58.777199,71.292282 64.079781,71.257095 70.163002,71.257095 
	C70.163002,76.476875 70.415337,81.395981 69.985100,86.254631 
	C69.877907,87.465141 67.743851,88.939415 66.242981,89.517128 
	C41.640377,98.987007 16.451118,84.508064 19.127396,55.539280 
z"/>
<path fill="#F6FBFC" opacity="1.000000" stroke="none" 
	d="
M147.249283,175.841644 
	C147.249283,167.225418 147.249283,158.609207 147.249283,148.719482 
	C156.206223,149.544937 165.020340,149.675247 173.526703,151.359756 
	C180.176987,152.676666 183.494492,158.202286 183.271698,164.135712 
	C183.057220,169.847610 179.568436,173.439392 171.679901,175.489792 
	C163.043610,175.727783 155.146439,175.784714 147.249283,175.841644 
z"/>
<path fill="#FAFEFD" opacity="1.000000" stroke="none" 
	d="
M146.999542,111.993248 
	C153.604889,111.948456 160.229095,111.574051 166.810379,111.950264 
	C173.581284,112.337311 178.266525,116.733566 178.920898,122.348755 
	C179.645554,128.567078 176.029068,134.523193 169.073242,135.851669 
	C162.174896,137.169128 154.963364,136.846786 147.453094,136.637939 
	C147.011169,128.019257 147.005356,120.006248 146.999542,111.993248 
z"/>
<path fill="#EFF8FA" opacity="1.000000" stroke="none" 
	d="
M110.216927,90.786270 
	C112.546898,92.894348 114.617714,94.762177 117.372162,97.246643 
	C105.796127,97.246643 95.112083,97.246643 85.141342,97.246643 
	C85.660095,92.764328 86.427269,88.049812 86.693245,83.307182 
	C86.967598,78.415123 86.754204,73.495705 86.754204,67.039894 
	C95.181259,75.576843 102.569511,83.061432 110.216927,90.786270 
z"/>
<path fill="#F58A21" opacity="1.000000" stroke="none" 
	d="
M138.962524,82.921280 
	C138.962524,82.921280 138.898102,83.308617 138.601013,83.578110 
	C138.104416,84.156395 137.904907,84.465195 137.705399,84.774002 
	C137.705399,84.774002 137.807587,84.786461 137.534058,84.752251 
	C136.928192,84.842934 136.595856,84.967827 135.913330,85.167999 
	C134.345459,86.454720 133.127792,87.666161 131.916153,88.910217 
	C131.922165,88.942833 131.861877,88.914841 131.464661,88.909332 
	C130.007996,88.976715 128.948547,89.049622 127.876984,89.129303 
	C127.864861,89.136078 127.839676,89.151138 127.844101,88.818726 
	C126.894554,87.326172 125.940575,86.166031 125.150162,84.744698 
	C126.209351,83.653183 127.104965,82.822853 128.254578,82.112274 
	C129.009918,82.485062 129.511246,82.738091 130.117035,83.098724 
	C130.221481,83.206322 130.639114,83.257439 130.639114,83.257439 
	C130.639114,83.257439 130.983063,82.987846 131.232819,82.981888 
	C131.482559,82.975929 131.982193,82.974136 132.331970,82.920486 
	C134.790115,80.914360 136.898468,78.961868 139.003418,77.004837 
	C139.000000,77.000305 139.008728,77.006729 139.354889,76.933922 
	C141.469193,76.240730 143.237335,75.620354 145.167358,75.215332 
	C145.596649,75.666847 145.864059,75.903000 146.026581,76.334290 
	C145.739044,76.774025 145.503815,76.947090 144.958282,77.143227 
	C144.479706,77.521477 144.258804,77.805115 144.033005,78.052261 
	C144.028091,78.015770 144.084579,78.063026 143.768539,78.094971 
	C142.965851,78.742805 142.479187,79.358696 141.998199,79.989624 
	C142.003845,80.004669 141.973160,79.995125 141.745117,80.070450 
	C141.227890,80.323875 141.045013,80.578384 140.971069,80.943222 
	C140.973709,80.977158 140.907227,80.962555 140.687408,81.037766 
	C140.188004,81.286110 140.013443,81.533401 139.944824,81.900665 
	C139.945709,81.946503 139.854065,81.943939 139.639343,82.037064 
	C139.155991,82.326912 139.001953,82.590607 138.962524,82.921280 
z"/>
<path fill="#CE8546" opacity="1.000000" stroke="none" 
	d="
M137.909424,32.857834 
	C137.909424,32.857838 138.100525,32.757889 138.390228,32.662804 
	C138.852127,32.580944 139.024338,32.594166 139.187363,32.945782 
	C139.076111,34.175529 138.974045,35.066887 138.639801,36.196793 
	C135.973541,40.004803 134.256165,44.366890 128.849274,44.694221 
	C128.105835,44.298786 127.576103,44.094166 126.920654,43.652336 
	C126.524681,42.951221 126.254410,42.487320 125.963181,41.719147 
	C125.861740,41.017841 125.781258,40.620800 125.824966,40.127243 
	C125.949173,40.030724 126.196815,39.836716 126.406601,39.871273 
	C126.616394,39.905830 127.041550,39.913445 127.041550,39.913445 
	C127.041550,39.913445 127.009438,39.974609 127.088715,40.224510 
	C127.439156,40.661266 127.710327,40.848122 127.981499,41.034977 
	C127.981499,41.034977 127.994621,40.997581 128.079498,41.323788 
	C130.668686,44.320915 131.235321,41.691093 132.207932,40.171864 
	C132.207932,40.171864 132.137802,40.092670 132.378616,40.028419 
	C132.750916,39.645058 132.882401,39.325947 133.013885,39.006836 
	C133.013885,39.006836 132.999512,38.999790 133.241425,38.913429 
	C133.640839,38.536484 133.798309,38.245903 133.955795,37.955315 
	C134.281052,37.586723 134.606308,37.218128 135.253906,36.454239 
	C135.733124,35.715576 135.890015,35.372204 136.046906,35.028831 
	C136.046906,35.028831 135.997116,35.005226 136.267303,34.953529 
	C136.689865,34.602715 136.842209,34.303600 136.994568,34.004486 
	C136.994568,34.004486 137.001953,34.001366 137.240295,33.891720 
	C137.622238,33.473995 137.765823,33.165916 137.909424,32.857834 
z"/>
<path fill="#2E4F64" opacity="1.000000" stroke="none" 
	d="
M91.689995,53.251411 
	C87.067070,46.324474 86.869530,39.295383 91.632523,32.099953 
	C92.061890,32.038208 92.307648,32.265396 92.172318,32.623142 
	C89.015717,39.634743 89.778282,46.268555 92.029877,52.983940 
	C91.917297,53.073997 91.689995,53.251411 91.689995,53.251411 
z"/>
<path fill="#CE8546" opacity="1.000000" stroke="none" 
	d="
M101.909836,66.078033 
	C101.808456,65.768753 101.632027,65.510826 101.111664,64.921944 
	C100.562431,64.351257 100.282059,64.162865 100.001678,63.974472 
	C100.001678,63.974472 99.993889,64.005859 99.934998,63.752594 
	C99.590721,63.318497 99.305344,63.137669 99.019958,62.956841 
	C99.019958,62.956841 98.998154,63.000454 98.960342,62.729851 
	C98.634560,62.273228 98.346588,62.087212 98.058617,61.901192 
	C98.058617,61.901192 98.082466,61.975128 98.023621,61.621666 
	C96.715706,59.779831 95.466637,58.291451 94.217567,56.803074 
	C94.217567,56.803074 94.163651,57.006485 94.174789,56.617100 
	C94.086411,55.851868 93.986893,55.476021 94.001892,54.994637 
	C94.116417,54.889099 94.345131,54.677803 94.618835,54.840416 
	C96.559273,56.354404 98.226006,57.705776 99.924026,59.412556 
	C101.626923,62.523758 103.298538,65.279549 104.704559,68.063217 
	C104.262047,68.111183 104.085144,68.131264 103.908249,68.151344 
	C103.908249,68.151344 103.944321,68.072159 103.821198,67.801697 
	C103.101990,67.046837 102.505913,66.562439 101.909836,66.078033 
z"/>
<path fill="#2E4F64" opacity="1.000000" stroke="none" 
	d="
M168.279922,32.766800 
	C172.032074,39.018082 171.454437,45.309040 168.134857,51.425179 
	C167.916367,50.508038 168.015732,49.787930 168.262177,48.840458 
	C168.408615,48.262222 168.407974,47.911350 168.612595,47.165123 
	C168.442657,42.262424 168.067490,37.755085 167.838867,33.127075 
	C167.985413,33.006409 168.279922,32.766800 168.279922,32.766800 
z"/>
<path fill="#114D77" opacity="1.000000" stroke="none" 
	d="
M146.774231,111.844467 
	C147.005356,120.006248 147.011169,128.019257 147.002502,136.496246 
	C146.841660,128.538712 146.695297,120.117195 146.774231,111.844467 
z"/>
<path fill="#134D76" opacity="1.000000" stroke="none" 
	d="
M147.529358,176.115067 
	C155.146439,175.784714 163.043610,175.727783 171.395187,175.706314 
	C169.192871,176.163742 166.538071,176.921539 163.878967,176.936951 
	C158.523697,176.968018 153.166077,176.594879 147.529358,176.115067 
z"/>
<path fill="#2E4F64" opacity="1.000000" stroke="none" 
	d="
M146.732224,25.676390 
	C151.849396,22.920507 159.223450,23.313957 162.521637,26.821053 
	C160.880157,26.680212 159.521210,26.252241 158.150360,25.835722 
	C158.138489,25.847174 158.113556,25.865204 157.806976,25.618217 
	C154.965408,25.541126 152.430420,25.711020 149.937363,25.871618 
	C149.979309,25.862322 149.896378,25.839687 149.543427,25.824078 
	C148.493576,25.918375 147.796692,26.028282 147.007507,26.023064 
	C146.915207,25.907936 146.732224,25.676390 146.732224,25.676390 
z"/>
<path fill="#2E4F64" opacity="1.000000" stroke="none" 
	d="
M97.759041,25.707968 
	C102.662193,22.989378 107.673492,23.323116 112.833649,25.640488 
	C112.928635,26.103748 112.717644,26.367498 112.327965,26.296024 
	C108.567963,26.035767 105.197639,25.846983 101.792114,25.599018 
	C101.756905,25.539839 101.629608,25.592396 101.283058,25.596235 
	C100.041138,25.837273 99.145775,26.074471 98.127014,26.161190 
	C98.003632,26.010710 97.759041,25.707968 97.759041,25.707968 
z"/>
<path fill="#CE8546" opacity="1.000000" stroke="none" 
	d="
M158.162247,25.824268 
	C159.521210,26.252241 160.880157,26.680212 162.592453,27.200556 
	C163.036224,27.552301 163.196030,27.757742 163.720856,28.243305 
	C164.333496,28.747789 164.650482,28.918219 164.967468,29.088646 
	C164.967468,29.088648 164.977280,29.021791 165.013855,29.290524 
	C165.339111,29.756948 165.627823,29.954643 165.916534,30.152336 
	C165.916534,30.152334 165.900284,30.080137 165.904877,30.390522 
	C165.987061,31.085833 166.064636,31.470760 165.800735,31.814774 
	C163.026917,29.790663 160.594574,27.807465 158.162247,25.824268 
z"/>
<path fill="#CE8546" opacity="1.000000" stroke="none" 
	d="
M124.986595,85.005882 
	C125.940575,86.166031 126.894554,87.326172 127.549774,88.788727 
	C126.865761,89.019379 126.480499,88.947617 126.095245,88.875862 
	C126.095245,88.875862 126.033470,88.911469 125.994324,88.666512 
	C125.648567,88.255615 125.341957,88.089676 125.035355,87.923737 
	C125.035355,87.923737 125.012466,87.986931 124.964859,87.722961 
	C124.610596,87.313232 124.303940,87.167488 123.997284,87.021736 
	C123.997284,87.021736 124.002090,86.994507 123.900162,86.765625 
	C123.516136,86.371460 123.234039,86.206177 122.951942,86.040886 
	C122.823265,85.736115 122.621902,85.491074 122.017303,84.946487 
	C121.421265,84.098412 121.155800,83.609604 121.220108,83.127480 
	C122.695450,83.758072 123.841019,84.381973 124.986595,85.005882 
z"/>
<path fill="#2E4F64" opacity="1.000000" stroke="none" 
	d="
M145.215958,77.048615 
	C145.503815,76.947090 145.739044,76.774025 146.315491,76.240059 
	C147.389603,75.538353 148.069870,75.126030 148.864410,74.834671 
	C148.978683,74.955643 149.209305,75.195580 149.209305,75.195580 
	C147.104095,77.146126 144.998871,79.096672 142.493164,81.075874 
	C142.092682,81.104530 141.939102,80.936394 141.972992,80.701996 
	C142.006866,80.467598 141.973160,79.995125 141.973160,79.995125 
	C141.973160,79.995125 142.003845,80.004669 142.283051,79.907814 
	C143.069702,79.228317 143.577148,78.645676 144.084579,78.063026 
	C144.084579,78.063026 144.028091,78.015770 144.305573,77.981720 
	C144.794022,77.647980 145.004990,77.348297 145.215958,77.048615 
z"/>
<path fill="#2E4F64" opacity="1.000000" stroke="none" 
	d="
M167.531128,52.352379 
	C168.983749,56.215126 165.684662,57.639553 163.353302,59.875053 
	C162.974152,59.994987 162.749847,59.785843 162.824707,59.504364 
	C162.970032,58.845131 163.040497,58.467369 163.100006,58.052513 
	C163.089050,58.015415 163.070129,58.090389 163.318436,58.008003 
	C163.714096,57.622746 163.861450,57.319866 164.005615,57.009750 
	C164.002441,57.002506 164.017212,57.007259 164.250610,56.919685 
	C164.577408,56.525555 164.670807,56.218990 164.873779,55.768188 
	C164.983353,55.623943 165.074387,55.273296 165.321426,55.137497 
	C165.704773,54.663685 165.841080,54.325672 165.987946,53.992889 
	C165.998505,53.998123 165.980347,53.977600 166.233093,53.846504 
	C166.834259,53.261070 167.182693,52.806728 167.531128,52.352379 
z"/>
<path fill="#2E4F64" opacity="1.000000" stroke="none" 
	d="
M162.266754,61.244438 
	C160.777176,63.144413 159.287582,65.044388 157.364227,66.952087 
	C156.930435,66.959816 156.678146,66.735153 156.677780,66.512444 
	C156.677414,66.289734 156.597992,65.851334 156.823334,65.682816 
	C157.394241,65.075798 157.739792,64.637291 158.362106,64.072357 
	C159.102982,63.302818 159.567062,62.659698 160.014908,62.006927 
	C159.998672,61.997276 160.012680,62.032284 160.257187,61.950615 
	C160.652161,61.570633 160.802628,61.272324 160.978577,60.982956 
	C161.004074,60.991894 160.964478,60.954384 161.195511,60.944641 
	C161.426544,60.934895 161.883911,60.866264 161.979279,60.961143 
	C162.074661,61.056026 162.266754,61.244438 162.266754,61.244438 
z"/>
<path fill="#CE8546" opacity="1.000000" stroke="none" 
	d="
M113.994003,77.947845 
	C113.880577,77.647980 113.689674,77.410378 113.123627,76.893219 
	C112.539024,76.388748 112.252060,76.226097 111.965103,76.063438 
	C111.965103,76.063438 111.992119,75.998779 111.861145,75.749084 
	C111.119759,75.033821 110.509346,74.568260 109.898933,74.102692 
	C109.898933,74.102692 109.817581,73.681892 109.916702,73.326180 
	C110.015831,72.970467 110.241226,72.687340 110.513222,72.773987 
	C111.159767,72.934868 111.534309,73.009094 112.100128,73.362427 
	C113.379768,75.256157 114.468124,76.870773 115.294891,78.393646 
	C114.686867,78.183876 114.340439,78.065865 113.994003,77.947845 
z"/>
<path fill="#2E4F64" opacity="1.000000" stroke="none" 
	d="
M94.175980,57.174793 
	C95.466637,58.291451 96.715706,59.779831 98.040146,61.586510 
	C96.788475,60.452045 95.461433,58.999279 94.175980,57.174793 
z"/>
<path fill="#2E4F64" opacity="1.000000" stroke="none" 
	d="
M92.733177,30.764885 
	C94.189308,29.139772 95.645432,27.514660 97.430298,25.798758 
	C97.759041,25.707968 98.003632,26.010710 97.943336,26.365477 
	C97.531219,27.124405 97.179405,27.528564 96.639450,28.017532 
	C96.211784,28.255884 96.035995,28.463419 95.660217,28.836891 
	C95.243515,29.284773 95.090553,29.620705 94.970947,29.971281 
	C95.004318,29.985926 94.945892,29.940317 94.698822,30.010059 
	C94.305382,30.375120 94.159019,30.670439 93.991417,30.966183 
	C93.970177,30.966610 93.970459,31.009104 93.741364,30.990562 
	C93.512268,30.972021 93.062630,31.067598 92.980484,30.991682 
	C92.898338,30.915766 92.733177,30.764885 92.733177,30.764885 
z"/>
<path fill="#2E4F64" opacity="1.000000" stroke="none" 
	d="
M139.196533,32.607388 
	C139.024338,32.594166 138.852127,32.580944 138.420273,32.559242 
	C139.474869,31.007383 140.789124,29.463995 142.545853,27.953060 
	C142.988327,27.985514 143.183609,28.220984 143.039673,28.451336 
	C142.606262,29.125479 142.316803,29.569269 142.012619,30.004414 
	C141.997894,29.995768 142.006119,30.028833 141.757156,30.081957 
	C141.341339,30.415449 141.174484,30.695820 140.993683,30.977505 
	C140.979736,30.978819 140.974625,31.006353 140.709503,31.060299 
	C140.237396,31.396988 140.030396,31.679731 139.632019,32.090008 
	C139.440643,32.217541 139.196533,32.607388 139.196533,32.607388 
z"/>
<path fill="#CE8546" opacity="1.000000" stroke="none" 
	d="
M167.559052,52.236008 
	C167.182693,52.806728 166.834259,53.261070 166.210709,53.460808 
	C166.662094,51.826748 167.388596,50.447289 168.115112,49.067825 
	C168.015732,49.787930 167.916367,50.508038 167.790909,51.593788 
	C167.764816,51.959427 167.586990,52.119629 167.559052,52.236008 
z"/>
<path fill="#2E4F64" opacity="1.000000" stroke="none" 
	d="
M126.130119,89.224670 
	C126.480499,88.947617 126.865761,89.019379 127.545349,89.121140 
	C127.839676,89.151138 127.864861,89.136078 127.976059,89.417503 
	C128.976868,90.034416 129.866486,90.369896 130.866516,90.827271 
	C130.976929,90.949165 131.200241,91.190674 131.200241,91.190674 
	C129.521820,90.651604 127.843407,90.112534 126.130119,89.224670 
z"/>
<path fill="#2E4F64" opacity="1.000000" stroke="none" 
	d="
M103.968811,68.479210 
	C104.085144,68.131264 104.262047,68.111183 104.715317,68.048820 
	C104.991676,68.006546 104.962517,68.018517 105.031952,68.272095 
	C105.392319,68.699028 105.683235,68.872383 105.986778,69.022705 
	C105.999397,68.999680 105.954185,69.026428 106.026230,69.279022 
	C106.389259,69.706436 106.680244,69.881256 106.983551,70.028175 
	C106.995865,70.000275 106.948517,70.038803 107.036995,70.325989 
	C107.743019,71.087158 108.360558,71.561134 108.987091,72.021393 
	C108.996071,72.007675 108.962410,72.020882 108.936569,72.287048 
	C108.899994,72.731155 108.889244,72.909103 108.878487,73.087051 
	C107.262115,71.660393 105.645744,70.233734 103.968811,68.479210 
z"/>
<path fill="#2E4F64" opacity="1.000000" stroke="none" 
	d="
M120.890335,83.120789 
	C121.155800,83.609604 121.421265,84.098412 121.798065,84.847656 
	C120.616592,84.352882 119.323792,83.597679 118.021225,82.405258 
	C118.011467,81.968033 118.250847,81.713478 118.511742,81.808769 
	C119.125359,82.002243 119.478073,82.100426 119.869308,82.173462 
	C119.907829,82.148315 119.817268,82.132103 119.912079,82.383774 
	C120.317818,82.792702 120.628754,82.949959 120.923431,83.094246 
	C120.907173,83.081276 120.890343,83.120789 120.890335,83.120789 
z"/>
<path fill="#CE8546" opacity="1.000000" stroke="none" 
	d="
M131.910141,88.877602 
	C133.127792,87.666161 134.345459,86.454720 135.912994,85.441597 
	C136.264557,85.822006 136.266205,86.004089 136.267868,86.186180 
	C136.267868,86.186180 136.040833,86.307106 135.683197,86.519386 
	C134.898010,87.170921 134.470444,87.610168 134.042877,88.049423 
	C134.042877,88.049423 134.003479,88.000000 133.743378,88.091530 
	C132.958893,88.414574 132.434525,88.646088 131.910141,88.877602 
z"/>
<path fill="#2E4F64" opacity="1.000000" stroke="none" 
	d="
M131.845490,40.181580 
	C131.235321,41.691093 130.668686,44.320915 128.066422,41.340199 
	C129.139999,40.750698 130.311523,40.470993 131.845490,40.181580 
z"/>
<path fill="#2E4F64" opacity="1.000000" stroke="none" 
	d="
M93.887375,55.100174 
	C93.986893,55.476021 94.086411,55.851868 94.213867,56.517975 
	C93.443695,55.850407 92.645576,54.892574 91.768730,53.593079 
	C91.689995,53.251411 91.917297,53.073997 92.237015,53.180092 
	C93.000282,53.890846 93.443825,54.495510 93.887375,55.100174 
z"/>
<path fill="#2E4F64" opacity="1.000000" stroke="none" 
	d="
M121.260185,31.727924 
	C121.850937,32.587002 122.441681,33.446079 122.777863,34.630669 
	C122.353729,34.968750 122.184166,34.981316 122.008072,34.995918 
	C122.001541,34.997952 122.004242,34.986145 121.942619,34.717220 
	C121.615524,34.202614 121.350060,33.956932 121.034653,33.545052 
	C120.984718,33.378849 120.741890,33.130859 120.773987,32.890099 
	C120.806091,32.649338 120.799690,32.163597 120.915215,32.055099 
	C121.030739,31.946606 121.260185,31.727924 121.260185,31.727924 
z"/>
<path fill="#2E4F64" opacity="1.000000" stroke="none" 
	d="
M166.142212,31.855686 
	C166.064636,31.470760 165.987061,31.085833 165.871918,30.407309 
	C166.588470,30.785913 167.342621,31.458115 168.188339,32.448559 
	C168.279922,32.766800 167.985413,33.006409 167.637909,32.951786 
	C166.902786,32.552505 166.515182,32.207851 166.113739,31.863010 
	C166.099884,31.862827 166.142212,31.855688 166.142212,31.855686 
z"/>
<path fill="#2E4F64" opacity="1.000000" stroke="none" 
	d="
M131.916153,88.910217 
	C132.434525,88.646088 132.958893,88.414574 133.766083,88.114677 
	C133.624481,88.694450 133.200089,89.342606 132.390503,90.007736 
	C132.005325,90.024704 131.795029,89.820732 131.825027,89.595238 
	C131.855026,89.369743 131.861877,88.914841 131.861877,88.914841 
	C131.861877,88.914841 131.922165,88.942833 131.916153,88.910217 
z"/>
<path fill="#2E4F64" opacity="1.000000" stroke="none" 
	d="
M154.209274,70.188766 
	C153.703781,70.767715 153.198303,71.346664 152.298553,71.913490 
	C151.904266,71.901367 151.670181,71.663322 151.827209,71.425003 
	C152.564148,70.699440 153.144058,70.212189 153.845032,69.841171 
	C153.966095,69.957390 154.209274,70.188766 154.209274,70.188766 
z"/>
<path fill="#2E4F64" opacity="1.000000" stroke="none" 
	d="
M152.021332,72.020370 
	C151.672226,72.752777 151.206024,73.366188 150.350281,73.972992 
	C149.960724,73.966377 149.725235,73.714470 149.870621,73.468742 
	C150.567398,72.703117 151.118790,72.183220 151.670181,71.663315 
	C151.670181,71.663322 151.904266,71.901367 152.021332,72.020370 
z"/>
<path fill="#2E4F64" opacity="1.000000" stroke="none" 
	d="
M109.967194,74.405228 
	C110.509346,74.568260 111.119759,75.033821 111.836166,75.773941 
	C111.306595,75.601578 110.671021,75.154671 109.967194,74.405228 
z"/>
<path fill="#2E4F64" opacity="1.000000" stroke="none" 
	d="
M114.085602,78.230560 
	C114.340439,78.065865 114.686867,78.183876 115.310486,78.419724 
	C115.587677,78.537552 115.650398,78.525726 115.717422,78.751877 
	C115.972382,79.236366 116.109726,79.519272 116.089050,79.932106 
	C115.981628,80.037453 115.768288,80.249664 115.768288,80.249664 
	C115.237923,79.670876 114.707558,79.092079 114.085602,78.230560 
z"/>
<path fill="#2E4F64" opacity="1.000000" stroke="none" 
	d="
M101.969780,66.379150 
	C102.505913,66.562439 103.101990,67.046837 103.779617,67.814499 
	C103.250679,67.625267 102.640205,67.152763 101.969780,66.379150 
z"/>
<path fill="#2E4F64" opacity="1.000000" stroke="none" 
	d="
M144.713730,26.657616 
	C145.211304,26.395985 145.708878,26.134354 146.469330,25.774555 
	C146.732224,25.676390 146.915207,25.907936 146.795898,26.219982 
	C146.130157,26.701998 145.583740,26.871967 144.955658,26.946491 
	C144.874008,26.851046 144.713730,26.657616 144.713730,26.657616 
z"/>
<path fill="#2E4F64" opacity="1.000000" stroke="none" 
	d="
M113.034821,25.972427 
	C113.672119,26.052874 114.203239,26.264643 114.848564,26.762142 
	C114.962776,27.047874 114.737297,27.272078 114.458557,27.224834 
	C113.692421,26.907562 113.205032,26.637529 112.717644,26.367496 
	C112.717644,26.367498 112.928635,26.103748 113.034821,25.972427 
z"/>
<path fill="#2E4F64" opacity="1.000000" stroke="none" 
	d="
M117.225899,28.900225 
	C117.748360,29.074852 118.270828,29.249479 118.887924,29.731106 
	C118.982559,30.038103 118.759499,30.275936 118.486679,30.192553 
	C117.845795,30.030090 117.477722,29.951012 117.097351,29.867430 
	C117.085052,29.862926 117.118416,29.844971 117.154076,29.609783 
	C117.189735,29.374596 117.225899,28.900225 117.225899,28.900225 
z"/>
<path fill="#2E4F64" opacity="1.000000" stroke="none" 
	d="
M142.890823,27.867661 
	C143.262207,27.454767 143.731110,27.159725 144.456879,26.761150 
	C144.713730,26.657616 144.874008,26.851046 144.880920,27.153458 
	C144.887833,27.455868 144.861359,27.895193 144.899384,27.924191 
	C144.937408,27.953186 144.907700,27.862276 144.613708,27.885393 
	C143.941010,28.012669 143.562317,28.116827 143.183609,28.220985 
	C143.183609,28.220984 142.988327,27.985514 142.890823,27.867661 
z"/>
<path fill="#2E4F64" opacity="1.000000" stroke="none" 
	d="
M134.361206,87.992905 
	C134.470444,87.610168 134.898010,87.170921 135.629211,86.636131 
	C135.515091,87.005852 135.097305,87.471115 134.361206,87.992905 
z"/>
<path fill="#2E4F64" opacity="1.000000" stroke="none" 
	d="
M136.543976,86.099808 
	C136.266205,86.004089 136.264557,85.822006 136.263214,85.366318 
	C136.595856,84.967827 136.928192,84.842934 137.526932,84.701279 
	C137.468933,85.127487 137.144501,85.570465 136.543976,86.099808 
z"/>
<path fill="#CE8546" opacity="1.000000" stroke="none" 
	d="
M124.943153,37.266479 
	C125.007149,37.584793 125.105377,37.892166 125.154343,38.552139 
	C125.070847,38.915680 124.820503,39.159946 124.646194,38.943871 
	C124.180183,38.257847 123.888489,37.787899 123.686951,37.247513 
	C123.777115,37.177071 123.958321,37.037331 124.203171,37.100456 
	C124.613068,37.197880 124.778107,37.232182 124.943153,37.266479 
z"/>
<path fill="#2E4F64" opacity="1.000000" stroke="none" 
	d="
M119.095024,29.920067 
	C119.458855,29.995214 119.701790,30.198477 119.987320,30.691454 
	C120.038345,30.971088 119.818405,31.181320 119.595474,31.090633 
	C119.084473,30.829510 118.880119,30.588173 118.759499,30.275936 
	C118.759499,30.275936 118.982559,30.038103 119.095024,29.920067 
z"/>
<path fill="#2E4F64" opacity="1.000000" stroke="none" 
	d="
M132.109573,90.127609 
	C132.001831,90.457649 131.780762,90.675575 131.375427,91.037483 
	C131.200241,91.190674 130.976929,90.949165 130.994125,90.631287 
	C131.223511,90.071167 131.484756,89.906944 131.795029,89.820732 
	C131.795029,89.820732 132.005325,90.024704 132.109573,90.127609 
z"/>
<path fill="#2E4F64" opacity="1.000000" stroke="none" 
	d="
M125.143433,88.156960 
	C125.341957,88.089676 125.648567,88.255615 126.026886,88.681000 
	C125.816238,88.757027 125.533875,88.573608 125.143433,88.156960 
z"/>
<path fill="#2E4F64" opacity="1.000000" stroke="none" 
	d="
M112.071129,76.287651 
	C112.252060,76.226097 112.539024,76.388748 112.914932,76.792618 
	C112.665283,76.959625 112.389709,76.785645 112.071129,76.287651 
z"/>
<path fill="#2E4F64" opacity="1.000000" stroke="none" 
	d="
M124.116165,87.239784 
	C124.303940,87.167488 124.610596,87.313232 124.995972,87.710266 
	C124.736298,87.891159 124.456413,87.723259 124.116165,87.239784 
z"/>
<path fill="#2E4F64" opacity="1.000000" stroke="none" 
	d="
M123.046219,86.272598 
	C123.234039,86.206177 123.516136,86.371460 123.887650,86.771645 
	C123.624542,86.961876 123.345688,86.794472 123.046219,86.272598 
z"/>
<path fill="#2E4F64" opacity="1.000000" stroke="none" 
	d="
M117.890945,82.094528 
	C117.523659,82.021507 117.287621,81.810036 117.020370,81.299248 
	C116.978447,81.011894 117.202301,80.798668 117.421158,80.895378 
	C117.920746,81.167244 118.124359,81.407707 118.250847,81.713478 
	C118.250847,81.713478 118.011467,81.968033 117.890945,82.094528 
z"/>
<path fill="#2E4F64" opacity="1.000000" stroke="none" 
	d="
M137.978683,84.697342 
	C137.904907,84.465195 138.104416,84.156395 138.578217,83.773102 
	C138.652313,84.005966 138.452133,84.313324 137.978683,84.697342 
z"/>
<path fill="#2E4F64" opacity="1.000000" stroke="none" 
	d="
M141.249649,82.222595 
	C140.965225,82.433456 140.680801,82.644310 140.143158,82.654869 
	C139.877975,82.284363 139.866013,82.114151 139.854065,81.943939 
	C139.854065,81.943939 139.945709,81.946503 140.175262,81.923080 
	C140.404800,81.899658 140.866669,81.867302 140.962265,81.956291 
	C141.057861,82.045280 141.249649,82.222595 141.249649,82.222595 
z"/>
<path fill="#CE8546" opacity="1.000000" stroke="none" 
	d="
M139.639343,82.037064 
	C139.866013,82.114151 139.877975,82.284363 139.881592,82.710724 
	C139.873276,82.966881 139.415405,82.997063 139.188965,82.959167 
	C139.001953,82.590607 139.155991,82.326912 139.639343,82.037064 
z"/>
<path fill="#2E4F64" opacity="1.000000" stroke="none" 
	d="
M142.169342,81.188736 
	C142.035645,81.495506 141.816895,81.709465 141.419678,82.068710 
	C141.249649,82.222595 141.057861,82.045280 140.986786,81.730927 
	C140.915710,81.416573 140.907227,80.962555 140.907227,80.962555 
	C140.907227,80.962555 140.973709,80.977158 141.213318,80.962868 
	C141.452911,80.948578 141.939102,80.936394 141.939102,80.936394 
	C141.939102,80.936394 142.092682,81.104530 142.169342,81.188736 
z"/>
<path fill="#2E4F64" opacity="1.000000" stroke="none" 
	d="
M116.866173,81.118149 
	C116.522873,81.020180 116.300255,80.807167 115.927170,80.417511 
	C115.768288,80.249664 115.981628,80.037453 116.304520,80.039001 
	C116.895775,80.235069 117.087402,80.487778 117.202301,80.798668 
	C117.202301,80.798668 116.978447,81.011894 116.866173,81.118149 
z"/>
<path fill="#CE8546" opacity="1.000000" stroke="none" 
	d="
M122.014610,34.993885 
	C122.184166,34.981316 122.353729,34.968750 122.778793,34.962833 
	C123.034286,34.969486 123.092293,35.427460 123.000641,35.756142 
	C122.908981,36.084820 122.705002,36.279697 122.550133,36.087090 
	C122.185333,35.629379 122.058449,35.329178 122.014610,34.993885 
z"/>
<path fill="#2E4F64" opacity="1.000000" stroke="none" 
	d="
M127.902985,40.803432 
	C127.710327,40.848122 127.439156,40.661266 127.123108,40.221390 
	C127.403961,40.074364 127.652702,40.275539 127.902985,40.803432 
z"/>
<path fill="#2E4F64" opacity="1.000000" stroke="none" 
	d="
M132.794861,39.143112 
	C132.882401,39.325947 132.750916,39.645058 132.380295,40.081284 
	C132.286057,39.892067 132.430939,39.585728 132.794861,39.143112 
z"/>
<path fill="#2E4F64" opacity="1.000000" stroke="none" 
	d="
M126.975464,39.689461 
	C127.041550,39.913445 126.616394,39.905830 126.391098,39.636940 
	C126.165810,39.368050 126.188347,38.898476 126.188347,38.898476 
	C126.504013,38.991711 126.744354,39.180714 126.975464,39.689461 
z"/>
<path fill="#CE8546" opacity="1.000000" stroke="none" 
	d="
M125.972939,38.832375 
	C126.188347,38.898476 126.165810,39.368050 126.181313,39.602383 
	C126.196815,39.836716 125.949173,40.030724 125.675301,39.952751 
	C125.198410,39.644112 125.004768,39.405838 124.820503,39.159946 
	C124.820503,39.159946 125.070847,38.915680 125.194397,38.791351 
	C125.317955,38.667027 125.757530,38.766277 125.972939,38.832375 
z"/>
<path fill="#2E4F64" opacity="1.000000" stroke="none" 
	d="
M133.732620,38.065689 
	C133.798309,38.245903 133.640839,38.536484 133.246155,38.920181 
	C133.064011,38.667404 133.230850,38.388325 133.732620,38.065689 
z"/>
<path fill="#2E4F64" opacity="1.000000" stroke="none" 
	d="
M124.846741,36.998947 
	C124.778107,37.232182 124.613068,37.197880 124.174004,36.849091 
	C123.894867,36.366055 123.889755,36.197506 123.884636,36.028961 
	C124.173203,36.263111 124.461761,36.497265 124.846741,36.998947 
z"/>
<path fill="#CE8546" opacity="1.000000" stroke="none" 
	d="
M123.692444,35.989582 
	C123.889755,36.197506 123.894867,36.366055 123.929153,36.785965 
	C123.958321,37.037331 123.777115,37.177071 123.533432,37.078915 
	C123.081413,36.758263 122.886497,36.524578 122.705002,36.279697 
	C122.705002,36.279697 122.908981,36.084820 123.010864,35.986732 
	C123.112740,35.888641 123.500252,35.950203 123.692444,35.989582 
z"/>
<path fill="#2E4F64" opacity="1.000000" stroke="none" 
	d="
M135.800232,35.179909 
	C135.890015,35.372204 135.733124,35.715576 135.327637,36.214664 
	C135.237213,36.023918 135.395386,35.677452 135.800232,35.179909 
z"/>
<path fill="#CE8546" opacity="1.000000" stroke="none" 
	d="
M116.028435,28.020430 
	C116.028435,28.020430 116.130836,28.397120 116.056229,28.705462 
	C115.981628,29.013803 115.760246,29.244551 115.588226,29.094982 
	C115.183624,28.735979 115.021576,28.481609 115.204193,28.138809 
	C115.661705,28.070351 115.845070,28.045391 116.028435,28.020430 
z"/>
<path fill="#2E4F64" opacity="1.000000" stroke="none" 
	d="
M136.770554,34.110603 
	C136.842209,34.303600 136.689865,34.602715 136.286865,34.973534 
	C136.098404,34.702591 136.268509,34.426418 136.770554,34.110603 
z"/>
<path fill="#2E4F64" opacity="1.000000" stroke="none" 
	d="
M137.693802,32.990845 
	C137.765823,33.165916 137.622238,33.473995 137.241028,33.887665 
	C137.161667,33.703457 137.319916,33.413654 137.693802,32.990845 
z"/>
<path fill="#2E4F64" opacity="1.000000" stroke="none" 
	d="
M165.823090,29.906937 
	C165.627823,29.954643 165.339111,29.756948 164.980652,29.296808 
	C165.183807,29.243422 165.456726,29.452478 165.823090,29.906937 
z"/>
<path fill="#2E4F64" opacity="1.000000" stroke="none" 
	d="
M164.838715,28.849819 
	C164.650482,28.918219 164.333496,28.747789 163.901932,28.326029 
	C164.094879,28.253462 164.402420,28.432228 164.838715,28.849819 
z"/>
<path fill="#CE8546" opacity="1.000000" stroke="none" 
	d="
M116.971237,28.858006 
	C117.225899,28.900225 117.189735,29.374596 116.905014,29.571102 
	C116.333618,29.593256 116.046928,29.418903 115.760246,29.244551 
	C115.760246,29.244551 115.981628,29.013803 116.091545,28.897421 
	C116.373169,28.792624 116.544876,28.804207 116.971237,28.858006 
z"/>
<path fill="#2E4F64" opacity="1.000000" stroke="none" 
	d="
M100.095779,64.209045 
	C100.282059,64.162865 100.562431,64.351257 100.914085,64.791237 
	C100.720207,64.843086 100.455048,64.643356 100.095779,64.209045 
z"/>
<path fill="#CE8546" opacity="1.000000" stroke="none" 
	d="
M109.104263,73.140182 
	C108.889244,72.909103 108.899994,72.731155 109.171555,72.350876 
	C109.723351,72.296082 109.992966,72.475685 110.241226,72.687340 
	C110.241226,72.687340 110.015831,72.970467 109.902878,73.112335 
	C109.789932,73.254196 109.330048,73.193321 109.104263,73.140182 
z"/>
<path fill="#2E4F64" opacity="1.000000" stroke="none" 
	d="
M91.940033,31.923519 
	C92.011086,31.567898 92.210609,31.332575 92.574966,30.933874 
	C92.733177,30.764885 92.898338,30.915766 92.922668,31.229908 
	C92.824013,31.864388 92.610901,32.104836 92.307648,32.265396 
	C92.307648,32.265396 92.061890,32.038208 91.940033,31.923519 
z"/>
<path fill="#2E4F64" opacity="1.000000" stroke="none" 
	d="
M155.234543,69.197868 
	C155.039459,69.450493 154.819092,69.678696 154.391357,70.035614 
	C154.209274,70.188766 153.966095,69.957390 153.964951,69.635109 
	C154.178711,69.065033 154.443726,68.895630 154.877838,68.902870 
	C154.996826,69.001106 155.234543,69.197868 155.234543,69.197868 
z"/>
<path fill="#2E4F64" opacity="1.000000" stroke="none" 
	d="
M156.168503,68.158730 
	C155.994263,68.418266 155.795044,68.656960 155.402710,69.036346 
	C155.234543,69.197868 154.996826,69.001106 154.895081,68.671341 
	C154.793350,68.341583 154.749222,67.879311 154.806671,67.862610 
	C154.864105,67.845917 154.864792,67.726288 155.075714,67.721191 
	C155.286636,67.716103 155.704071,67.654259 155.819565,67.780937 
	C155.935059,67.907616 156.168503,68.158730 156.168503,68.158730 
z"/>
<path fill="#2E4F64" opacity="1.000000" stroke="none" 
	d="
M120.148544,30.866215 
	C120.498993,30.957155 120.727737,31.165592 121.102585,31.557289 
	C121.260185,31.727924 121.030739,31.946606 120.701866,31.947052 
	C120.109718,31.748869 119.924850,31.493475 119.818405,31.181320 
	C119.818405,31.181320 120.038345,30.971088 120.148544,30.866215 
z"/>
<path fill="#2E4F64" opacity="1.000000" stroke="none" 
	d="
M157.055389,67.073448 
	C156.969345,67.417191 156.748215,67.637123 156.342728,68.002800 
	C156.168503,68.158730 155.935059,67.907616 155.933716,67.581650 
	C156.130478,67.009834 156.379059,66.836319 156.678146,66.735153 
	C156.678146,66.735153 156.930435,66.959816 157.055389,67.073448 
z"/>
<path fill="#2E4F64" opacity="1.000000" stroke="none" 
	d="
M150.077988,74.092789 
	C149.989761,74.449593 149.774780,74.670784 149.379822,75.039169 
	C149.209305,75.195580 148.978683,74.955643 148.978348,74.624733 
	C149.170410,74.027588 149.419479,73.834473 149.725235,73.714470 
	C149.725235,73.714470 149.960724,73.966377 150.077988,74.092789 
z"/>
<path fill="#2E4F64" opacity="1.000000" stroke="none" 
	d="
M99.117081,63.190487 
	C99.305344,63.137669 99.590721,63.318497 99.950874,63.749527 
	C99.755157,63.807861 99.484680,63.615997 99.117081,63.190487 
z"/>
<path fill="#2E4F64" opacity="1.000000" stroke="none" 
	d="
M98.153168,62.137749 
	C98.346588,62.087212 98.634560,62.273228 98.983040,62.720963 
	C98.778267,62.779884 98.512993,62.577091 98.153168,62.137749 
z"/>
<path fill="#2E4F64" opacity="1.000000" stroke="none" 
	d="
M163.085388,60.100536 
	C163.007202,60.451775 162.806335,60.687714 162.430389,61.079170 
	C162.266754,61.244438 162.074661,61.056026 162.066681,60.739960 
	C162.224380,60.141125 162.454758,59.928440 162.749847,59.785843 
	C162.749847,59.785843 162.974152,59.994987 163.085388,60.100536 
z"/>
<path fill="#2E4F64" opacity="1.000000" stroke="none" 
	d="
M115.945389,27.786024 
	C115.845070,28.045391 115.661705,28.070351 115.197098,28.091295 
	C114.915855,28.087278 114.821922,28.109049 114.816422,27.898224 
	C114.810913,27.687399 114.737297,27.272078 114.737297,27.272078 
	C114.737297,27.272078 114.962776,27.047874 115.078125,26.935383 
	C115.462189,27.023802 115.685143,27.266712 115.945389,27.786024 
z"/>
<path fill="#F9A222" opacity="1.000000" stroke="none" 
	d="
M125.984131,42.023415 
	C126.254410,42.487320 126.524681,42.951221 126.961807,43.923737 
	C127.773445,44.583244 128.418213,44.734138 129.062988,44.885036 
	C134.256165,44.366890 135.973541,40.004803 139.011475,36.154728 
	C141.187912,35.000374 142.805115,34.197548 144.325821,33.241287 
	C153.490005,27.478609 163.616623,31.331604 164.627747,41.481174 
	C164.983719,45.054482 163.697403,49.306866 161.835632,52.468853 
	C158.789017,57.643223 154.657578,62.178875 150.618805,67.006577 
	C146.505508,70.355049 142.757111,73.680885 139.008728,77.006729 
	C139.008728,77.006729 139.000000,77.000305 138.631973,77.007355 
	C136.170029,79.000984 134.076111,80.987564 131.982193,82.974136 
	C131.982193,82.974136 131.482559,82.975929 130.990265,82.982407 
	C130.497986,82.988876 130.012573,82.991127 130.012573,82.991127 
	C129.511246,82.738091 129.009918,82.485062 128.002197,81.892456 
	C124.996300,80.034065 122.496788,78.515244 119.932114,76.671143 
	C118.910561,75.566277 117.954170,74.786690 116.788261,73.765411 
	C115.386490,72.680893 114.194244,71.838074 112.833389,70.707642 
	C108.777237,66.279457 104.889702,62.138874 100.828918,57.702461 
	C96.598953,52.685860 95.462181,46.957272 95.000755,40.603363 
	C95.719002,38.246929 95.842010,35.465904 97.239670,34.465271 
	C103.502396,29.981546 110.567085,28.238758 116.989029,35.597713 
	C119.346375,38.299019 122.949356,39.913292 125.984131,42.023415 
M120.886536,45.755283 
	C117.845764,42.940014 114.975060,39.907013 111.720711,37.365200 
	C107.750343,34.264130 104.369568,34.991264 101.584763,39.181038 
	C99.210739,42.752769 99.466026,46.486858 101.558052,50.043774 
	C107.630356,60.368057 115.668343,68.899658 125.978058,74.989044 
	C127.818024,76.075806 131.713837,75.981239 133.340439,74.724174 
	C139.726410,69.789009 145.974472,64.538887 151.504822,58.679920 
	C155.356155,54.599716 159.528625,50.182606 159.038147,43.573929 
	C158.610214,37.807621 153.575562,34.468147 148.561935,37.346249 
	C145.001373,39.390217 141.955872,42.326397 138.659744,44.837139 
	C132.496201,49.532047 127.787849,50.824833 120.886536,45.755283 
z"/>
<path fill="#F59624" opacity="1.000000" stroke="none" 
	d="
M139.354889,76.933922 
	C142.757111,73.680885 146.505508,70.355049 150.623657,67.350616 
	C150.994812,68.130936 150.996201,68.589851 150.720367,69.234344 
	C148.630585,71.279938 146.818039,73.139961 145.005493,74.999977 
	C143.237335,75.620354 141.469193,76.240730 139.354889,76.933922 
z"/>
<path fill="#F49126" opacity="1.000000" stroke="none" 
	d="
M119.997276,76.996422 
	C122.496788,78.515244 124.996300,80.034065 127.748199,81.772705 
	C127.104965,82.822853 126.209351,83.653183 125.150162,84.744698 
	C123.841019,84.381973 122.695450,83.758072 121.220108,83.127480 
	C120.890343,83.120789 120.907173,83.081276 120.807617,82.859734 
	C120.411125,82.469498 120.114197,82.300797 119.817268,82.132103 
	C119.817268,82.132103 119.907829,82.148315 119.872070,81.843399 
	C119.186501,80.415138 118.536697,79.291786 118.100479,77.940689 
	C118.875130,77.474091 119.436203,77.235252 119.997276,76.996422 
z"/>
<path fill="#CE8546" opacity="1.000000" stroke="none" 
	d="
M145.167358,75.215332 
	C146.818039,73.139961 148.630585,71.279938 151.025406,69.107483 
	C152.654861,68.489807 153.702042,68.184563 154.749222,67.879311 
	C154.749222,67.879311 154.793350,68.341583 154.776108,68.573105 
	C154.443726,68.895630 154.178711,69.065033 153.843872,69.518890 
	C153.144058,70.212189 152.564148,70.699440 151.827209,71.425003 
	C151.118790,72.183220 150.567398,72.703117 149.870621,73.468742 
	C149.419479,73.834473 149.170410,74.027588 148.864075,74.503761 
	C148.069870,75.126030 147.389603,75.538353 146.420410,76.044922 
	C145.864059,75.903000 145.596649,75.666847 145.167358,75.215332 
z"/>
<path fill="#F59624" opacity="1.000000" stroke="none" 
	d="
M132.331970,82.920486 
	C134.076111,80.987564 136.170029,79.000984 138.635376,77.011887 
	C136.898468,78.961868 134.790115,80.914360 132.331970,82.920486 
z"/>
<path fill="#CE8546" opacity="1.000000" stroke="none" 
	d="
M131.825027,89.595238 
	C131.484756,89.906944 131.223511,90.071167 130.883698,90.509384 
	C129.866486,90.369896 128.976868,90.034416 127.988190,89.410721 
	C128.948547,89.049622 130.007996,88.976715 131.464661,88.909332 
	C131.861877,88.914841 131.855026,89.369743 131.825027,89.595238 
z"/>
<path fill="#CE8546" opacity="1.000000" stroke="none" 
	d="
M143.768539,78.094971 
	C143.577148,78.645676 143.069702,79.228317 142.277405,79.892776 
	C142.479187,79.358696 142.965851,78.742805 143.768539,78.094971 
z"/>
<path fill="#CE8546" opacity="1.000000" stroke="none" 
	d="
M144.958282,77.143219 
	C145.004990,77.348297 144.794022,77.647980 144.310486,78.018211 
	C144.258804,77.805115 144.479706,77.521477 144.958282,77.143219 
z"/>
<path fill="#F59624" opacity="1.000000" stroke="none" 
	d="
M130.117035,83.098724 
	C130.012573,82.991127 130.497986,82.988876 130.740524,82.988358 
	C130.983063,82.987846 130.639114,83.257439 130.639114,83.257439 
	C130.639114,83.257439 130.221481,83.206322 130.117035,83.098724 
z"/>
<path fill="#CE8546" opacity="1.000000" stroke="none" 
	d="
M141.972992,80.701996 
	C141.939102,80.936394 141.452911,80.948578 141.210663,80.928940 
	C141.045013,80.578384 141.227890,80.323875 141.745117,80.070450 
	C141.973160,79.995125 142.006866,80.467598 141.972992,80.701996 
z"/>
<path fill="#CE8546" opacity="1.000000" stroke="none" 
	d="
M140.687408,81.037766 
	C140.907227,80.962555 140.915710,81.416573 140.891190,81.641937 
	C140.866669,81.867302 140.404800,81.899658 140.174362,81.877243 
	C140.013443,81.533401 140.188004,81.286110 140.687408,81.037766 
z"/>
<path fill="#F58D23" opacity="1.000000" stroke="none" 
	d="
M154.806671,67.862610 
	C153.702042,68.184563 152.654861,68.489807 151.302643,68.921906 
	C150.996201,68.589851 150.994812,68.130936 150.988571,67.327980 
	C154.657578,62.178875 158.789017,57.643223 161.835632,52.468853 
	C163.697403,49.306866 164.983719,45.054482 164.627747,41.481174 
	C163.616623,31.331604 153.490005,27.478609 144.325821,33.241287 
	C142.805115,34.197548 141.187912,35.000374 139.243637,35.916176 
	C138.974045,35.066887 139.076111,34.175529 139.187363,32.945782 
	C139.196533,32.607388 139.440643,32.217541 139.882294,32.009422 
	C140.540833,31.536322 140.757721,31.271336 140.974625,31.006351 
	C140.974625,31.006353 140.979736,30.978819 141.221802,30.894670 
	C141.751709,30.624256 141.932449,30.363693 142.006119,30.028833 
	C142.006119,30.028833 141.997894,29.995768 142.354202,30.004303 
	C143.442902,29.295982 144.175293,28.579128 144.907700,27.862274 
	C144.907700,27.862276 144.937408,27.953186 145.297485,27.962803 
	C147.070511,27.261507 148.483444,26.550596 149.896378,25.839685 
	C149.896378,25.839687 149.979309,25.862322 150.391861,25.926044 
	C153.240799,25.948248 155.677170,25.906725 158.113556,25.865204 
	C158.113556,25.865204 158.138489,25.847174 158.150360,25.835720 
	C160.594574,27.807465 163.026917,29.790663 165.800720,31.814774 
	C166.142212,31.855688 166.099884,31.862827 166.072495,32.294811 
	C166.832520,37.671356 167.619934,42.615921 168.407349,47.560482 
	C168.407974,47.911350 168.408615,48.262222 168.262177,48.840462 
	C167.388596,50.447289 166.662094,51.826748 165.957977,53.591904 
	C165.980347,53.977600 165.998505,53.998123 165.757797,54.142456 
	C165.369522,54.615627 165.221954,54.944462 165.074387,55.273296 
	C165.074387,55.273296 164.983353,55.623943 164.686157,55.903389 
	C164.161118,56.410797 164.037186,56.685604 164.017212,57.007259 
	C164.017212,57.007259 164.002441,57.002506 163.781082,57.120148 
	C163.396515,57.521988 163.233322,57.806187 163.070129,58.090385 
	C163.070129,58.090389 163.089050,58.015415 162.771408,58.116440 
	C161.957336,59.129772 161.460907,60.042076 160.964478,60.954384 
	C160.964478,60.954384 161.004074,60.991894 160.759796,61.097176 
	C160.243454,61.415764 160.075836,61.692371 160.012680,62.032284 
	C160.012680,62.032284 159.998672,61.997276 159.695435,62.069649 
	C158.956573,62.827610 158.520950,63.513195 158.085327,64.198784 
	C157.739792,64.637291 157.394241,65.075798 156.558395,65.761345 
	C155.666992,66.581024 155.265884,67.153656 154.864792,67.726288 
	C154.864792,67.726288 154.864105,67.845917 154.806671,67.862610 
z"/>
<path fill="#F58F23" opacity="1.000000" stroke="none" 
	d="
M125.963181,41.719151 
	C122.949356,39.913292 119.346375,38.299019 116.989029,35.597713 
	C110.567085,28.238758 103.502396,29.981546 97.239670,34.465271 
	C95.842010,35.465904 95.719002,38.246929 94.624496,40.603733 
	C93.486282,41.000599 92.732712,41.001987 91.992996,40.609451 
	C92.661392,37.146721 93.315926,34.077911 93.970459,31.009104 
	C93.970459,31.009104 93.970177,30.966610 94.215897,30.868156 
	C94.737022,30.559816 94.898445,30.283354 94.945892,29.940317 
	C94.945892,29.940317 95.004318,29.985926 95.207581,29.831661 
	C95.581871,29.359911 95.752914,29.042425 95.923950,28.724941 
	C96.035995,28.463419 96.211784,28.255884 97.044601,28.044598 
	C98.968468,27.188705 100.299034,26.390549 101.629608,25.592396 
	C101.629608,25.592396 101.756905,25.539839 102.218231,25.700075 
	C106.727013,26.609890 110.774467,27.359470 114.821922,28.109049 
	C114.821922,28.109049 114.915855,28.087278 114.922951,28.134792 
	C115.021576,28.481609 115.183624,28.735979 115.588226,29.094982 
	C116.046928,29.418903 116.333618,29.593256 116.869354,29.806290 
	C117.118416,29.844971 117.085052,29.862926 117.117035,30.208990 
	C118.346649,31.413656 119.544266,32.272259 120.741890,33.130859 
	C120.741890,33.130859 120.984718,33.378849 121.096481,33.816574 
	C121.473579,34.498249 121.738914,34.742195 122.004242,34.986145 
	C122.004242,34.986145 122.001541,34.997952 122.008072,34.995918 
	C122.058449,35.329178 122.185333,35.629379 122.550133,36.087090 
	C122.886497,36.524578 123.081413,36.758263 123.443268,37.149353 
	C123.888489,37.787899 124.180183,38.257847 124.646194,38.943871 
	C125.004768,39.405838 125.198410,39.644112 125.551102,40.049267 
	C125.781258,40.620800 125.861740,41.017841 125.963181,41.719151 
z"/>
<path fill="#F58F23" opacity="1.000000" stroke="none" 
	d="
M128.849274,44.694221 
	C128.418213,44.734138 127.773445,44.583244 127.087517,44.160950 
	C127.576103,44.094166 128.105835,44.298786 128.849274,44.694221 
z"/>
<path fill="#CE8546" opacity="1.000000" stroke="none" 
	d="
M93.741364,30.990562 
	C93.315926,34.077911 92.661392,37.146721 91.981125,40.983055 
	C91.962654,42.498226 91.969917,43.245872 91.972282,44.380932 
	C92.629181,46.214157 93.290970,47.659973 93.948547,49.510216 
	C94.077919,51.502361 94.211525,53.090084 94.345131,54.677803 
	C94.345131,54.677803 94.116417,54.889099 94.001892,54.994637 
	C93.443825,54.495510 93.000282,53.890846 92.349594,53.090034 
	C89.778282,46.268555 89.015717,39.634743 92.172318,32.623142 
	C92.610901,32.104836 92.824013,31.864388 93.004814,31.305824 
	C93.062630,31.067598 93.512268,30.972021 93.741364,30.990562 
z"/>
<path fill="#F69324" opacity="1.000000" stroke="none" 
	d="
M101.002159,57.998291 
	C104.889702,62.138874 108.777237,66.279457 112.774284,71.003296 
	C112.558815,72.085472 112.233833,72.584396 111.908859,73.083321 
	C111.534309,73.009094 111.159767,72.934868 110.513222,72.773987 
	C109.992966,72.475685 109.723351,72.296082 109.197395,72.084717 
	C108.962410,72.020882 108.996071,72.007675 108.935135,71.709915 
	C108.232300,70.954369 107.590408,70.496582 106.948517,70.038803 
	C106.948517,70.038803 106.995865,70.000275 106.885956,69.793961 
	C106.502090,69.400566 106.228142,69.213493 105.954185,69.026428 
	C105.954185,69.026428 105.999397,68.999680 105.887421,68.791367 
	C105.504471,68.394875 105.233490,68.206696 104.962517,68.018517 
	C104.962517,68.018517 104.991676,68.006546 104.980911,68.020950 
	C103.298538,65.279549 101.626923,62.523758 100.136322,59.264107 
	C100.545609,58.506260 100.773888,58.252277 101.002159,57.998291 
z"/>
<path fill="#F69224" opacity="1.000000" stroke="none" 
	d="
M100.828918,57.702461 
	C100.773888,58.252277 100.545609,58.506260 100.105042,58.908699 
	C98.226006,57.705776 96.559273,56.354404 94.618835,54.840416 
	C94.211525,53.090084 94.077919,51.502361 93.961205,49.114037 
	C93.311119,46.873463 92.644150,45.433491 91.977180,43.993519 
	C91.969917,43.245872 91.962654,42.498226 91.967255,41.376980 
	C92.732712,41.001987 93.486282,41.000599 94.616119,40.998840 
	C95.462181,46.957272 96.598953,52.685860 100.828918,57.702461 
z"/>
<path fill="#CE8546" opacity="1.000000" stroke="none" 
	d="
M168.612595,47.165123 
	C167.619934,42.615921 166.832520,37.671356 166.086334,32.294994 
	C166.515182,32.207851 166.902786,32.552505 167.491364,33.072453 
	C168.067490,37.755085 168.442657,42.262424 168.612595,47.165123 
z"/>
<path fill="#CE8546" opacity="1.000000" stroke="none" 
	d="
M149.543427,25.824078 
	C148.483444,26.550596 147.070511,27.261507 145.259460,27.933805 
	C144.861359,27.895193 144.887833,27.455868 144.962570,27.248901 
	C145.583740,26.871967 146.130157,26.701998 146.888184,26.335110 
	C147.796692,26.028282 148.493576,25.918375 149.543427,25.824078 
z"/>
<path fill="#CE8546" opacity="1.000000" stroke="none" 
	d="
M157.806976,25.618217 
	C155.677170,25.906725 153.240799,25.948248 150.349915,25.935341 
	C152.430420,25.711020 154.965408,25.541126 157.806976,25.618217 
z"/>
<path fill="#CE8546" opacity="1.000000" stroke="none" 
	d="
M114.816422,27.898224 
	C110.774467,27.359470 106.727013,26.609890 102.253433,25.759254 
	C105.197639,25.846983 108.567963,26.035767 112.327965,26.296024 
	C113.205032,26.637529 113.692421,26.907562 114.458557,27.224834 
	C114.737297,27.272078 114.810913,27.687399 114.816422,27.898224 
z"/>
<path fill="#CE8546" opacity="1.000000" stroke="none" 
	d="
M101.283058,25.596233 
	C100.299034,26.390549 98.968468,27.188705 97.232742,27.959793 
	C97.179405,27.528564 97.531219,27.124405 98.066727,26.515957 
	C99.145775,26.074471 100.041138,25.837273 101.283058,25.596233 
z"/>
<path fill="#CE8546" opacity="1.000000" stroke="none" 
	d="
M161.195511,60.944641 
	C161.460907,60.042076 161.957336,59.129772 162.782364,58.153538 
	C163.040497,58.467369 162.970032,58.845131 162.824707,59.504364 
	C162.454758,59.928440 162.224380,60.141125 161.971313,60.645081 
	C161.883911,60.866264 161.426544,60.934895 161.195511,60.944641 
z"/>
<path fill="#CE8546" opacity="1.000000" stroke="none" 
	d="
M163.318436,58.008003 
	C163.233322,57.806187 163.396515,57.521988 163.784271,57.127388 
	C163.861450,57.319866 163.714096,57.622746 163.318436,58.008003 
z"/>
<path fill="#CE8546" opacity="1.000000" stroke="none" 
	d="
M164.250610,56.919685 
	C164.037186,56.685604 164.161118,56.410797 164.576599,56.047634 
	C164.670807,56.218990 164.577408,56.525555 164.250610,56.919685 
z"/>
<path fill="#CE8546" opacity="1.000000" stroke="none" 
	d="
M165.321426,55.137497 
	C165.221954,54.944462 165.369522,54.615627 165.747238,54.137226 
	C165.841080,54.325672 165.704773,54.663685 165.321426,55.137497 
z"/>
<path fill="#CE8546" opacity="1.000000" stroke="none" 
	d="
M155.075714,67.721191 
	C155.265884,67.153656 155.666992,66.581024 156.333038,65.929863 
	C156.597992,65.851334 156.677414,66.289734 156.677780,66.512444 
	C156.379059,66.836319 156.130478,67.009834 155.818237,67.454971 
	C155.704071,67.654259 155.286636,67.716103 155.075714,67.721191 
z"/>
<path fill="#CE8546" opacity="1.000000" stroke="none" 
	d="
M158.362106,64.072357 
	C158.520950,63.513195 158.956573,62.827610 159.711670,62.079300 
	C159.567062,62.659698 159.102982,63.302818 158.362106,64.072357 
z"/>
<path fill="#CE8546" opacity="1.000000" stroke="none" 
	d="
M160.257187,61.950615 
	C160.075836,61.692371 160.243454,61.415764 160.734314,61.088234 
	C160.802628,61.272324 160.652161,61.570633 160.257187,61.950615 
z"/>
<path fill="#F49126" opacity="1.000000" stroke="none" 
	d="
M112.100128,73.362427 
	C112.233833,72.584396 112.558815,72.085472 112.942894,71.290894 
	C114.194244,71.838074 115.386490,72.680893 116.788406,74.166397 
	C116.998566,75.880302 116.999054,76.951523 116.652908,78.123428 
	C116.087654,78.324654 115.869026,78.425194 115.650398,78.525726 
	C115.650398,78.525726 115.587677,78.537552 115.572083,78.511475 
	C114.468124,76.870773 113.379768,75.256157 112.100128,73.362427 
z"/>
<path fill="#CE8546" opacity="1.000000" stroke="none" 
	d="
M95.660217,28.836891 
	C95.752914,29.042425 95.581871,29.359911 95.174210,29.817017 
	C95.090553,29.620705 95.243515,29.284773 95.660217,28.836891 
z"/>
<path fill="#CE8546" opacity="1.000000" stroke="none" 
	d="
M94.698822,30.010059 
	C94.898445,30.283354 94.737022,30.559816 94.237137,30.867729 
	C94.159019,30.670439 94.305382,30.375120 94.698822,30.010059 
z"/>
<path fill="#CE8546" opacity="1.000000" stroke="none" 
	d="
M144.613708,27.885391 
	C144.175293,28.579128 143.442902,29.295982 142.368927,30.012949 
	C142.316803,29.569269 142.606262,29.125479 143.039673,28.451336 
	C143.562317,28.116827 143.941010,28.012669 144.613708,27.885391 
z"/>
<path fill="#CE8546" opacity="1.000000" stroke="none" 
	d="
M141.757156,30.081957 
	C141.932449,30.363693 141.751709,30.624256 141.235748,30.893356 
	C141.174484,30.695820 141.341339,30.415449 141.757156,30.081957 
z"/>
<path fill="#CE8546" opacity="1.000000" stroke="none" 
	d="
M140.709503,31.060297 
	C140.757721,31.271336 140.540833,31.536322 140.073669,31.881889 
	C140.030396,31.679731 140.237396,31.396988 140.709503,31.060297 
z"/>
<path fill="#CE8546" opacity="1.000000" stroke="none" 
	d="
M107.036995,70.325989 
	C107.590408,70.496582 108.232300,70.954369 108.926147,71.723633 
	C108.360558,71.561134 107.743019,71.087158 107.036995,70.325989 
z"/>
<path fill="#CE8546" opacity="1.000000" stroke="none" 
	d="
M105.031952,68.272095 
	C105.233490,68.206696 105.504471,68.394875 105.874802,68.814392 
	C105.683235,68.872383 105.392319,68.699028 105.031952,68.272095 
z"/>
<path fill="#CE8546" opacity="1.000000" stroke="none" 
	d="
M106.026230,69.279022 
	C106.228142,69.213493 106.502090,69.400566 106.873642,69.821854 
	C106.680244,69.881256 106.389259,69.706436 106.026230,69.279022 
z"/>
<path fill="#CE8546" opacity="1.000000" stroke="none" 
	d="
M115.717422,78.751877 
	C115.869026,78.425194 116.087654,78.324654 116.874512,78.161156 
	C117.442749,78.098190 117.886887,78.168442 117.886887,78.168442 
	C118.536697,79.291786 119.186501,80.415138 119.833549,81.868546 
	C119.478073,82.100426 119.125359,82.002243 118.511742,81.808769 
	C118.124359,81.407707 117.920746,81.167244 117.421158,80.895378 
	C117.087402,80.487778 116.895775,80.235069 116.411942,79.933655 
	C116.109726,79.519272 115.972382,79.236366 115.717422,78.751877 
z"/>
<path fill="#CE8546" opacity="1.000000" stroke="none" 
	d="
M119.912079,82.383774 
	C120.114197,82.300797 120.411125,82.469498 120.823868,82.872704 
	C120.628754,82.949959 120.317818,82.792702 119.912079,82.383774 
z"/>
<path fill="#CE8546" opacity="1.000000" stroke="none" 
	d="
M120.773987,32.890099 
	C119.544266,32.272259 118.346649,31.413656 117.129341,30.213493 
	C117.477722,29.951012 117.845795,30.030090 118.486679,30.192553 
	C118.880119,30.588173 119.084473,30.829510 119.595474,31.090633 
	C119.924850,31.493475 120.109718,31.748869 120.586342,32.055550 
	C120.799690,32.163597 120.806091,32.649338 120.773987,32.890099 
z"/>
<path fill="#CE8546" opacity="1.000000" stroke="none" 
	d="
M121.942619,34.717220 
	C121.738914,34.742195 121.473579,34.498249 121.146423,33.982777 
	C121.350060,33.956932 121.615524,34.202614 121.942619,34.717220 
z"/>
<path fill="#FBB222" opacity="1.000000" stroke="none" 
	d="
M121.190712,45.966675 
	C127.787849,50.824833 132.496201,49.532047 138.659744,44.837139 
	C141.955872,42.326397 145.001373,39.390217 148.561935,37.346249 
	C153.575562,34.468147 158.610214,37.807621 159.038147,43.573929 
	C159.528625,50.182606 155.356155,54.599716 151.504822,58.679920 
	C145.974472,64.538887 139.726410,69.789009 133.340439,74.724174 
	C131.713837,75.981239 127.818024,76.075806 125.978058,74.989044 
	C115.668343,68.899658 107.630356,60.368057 101.558052,50.043774 
	C99.466026,46.486858 99.210739,42.752769 101.584763,39.181038 
	C104.369568,34.991264 107.750343,34.264130 111.720711,37.365200 
	C114.975060,39.907013 117.845764,42.940014 121.190712,45.966675 
z"/>
<path fill="#F69324" opacity="1.000000" stroke="none" 
	d="
M118.100479,77.940689 
	C117.886887,78.168442 117.442749,78.098190 117.221146,78.060471 
	C116.999054,76.951523 116.998566,75.880302 116.997925,74.408096 
	C117.954170,74.786690 118.910561,75.566277 119.932114,76.671143 
	C119.436203,77.235252 118.875130,77.474091 118.100479,77.940689 
z"/>
<path fill="#F58F23" opacity="1.000000" stroke="none" 
	d="
M91.972282,44.380932 
	C92.644150,45.433491 93.311119,46.873463 93.965424,48.709610 
	C93.290970,47.659973 92.629181,46.214157 91.972282,44.380932 
z"/>
</svg>