<svg xmlns="http://www.w3.org/2000/svg" width="311" height="162" viewBox="0 0 311 162" version="1.1"><path d="M 45 41.548 C 45 41.999, 47.303 50.274, 50.117 59.935 C 52.931 69.596, 56.020 80.425, 56.981 84 C 61.723 101.641, 65.187 111.002, 67.708 112.985 C 70.231 114.969, 71.568 115, 156.046 115 L 241.822 115 244.373 111.969 C 245.775 110.302, 247.337 107.489, 247.842 105.719 C 248.348 103.949, 251.788 92.150, 255.486 79.500 C 264.256 49.506, 266 43.265, 266 41.876 C 266 40.546, 262.322 40.794, 235.500 43.924 C 225.600 45.080, 203.517 47.656, 186.426 49.648 L 155.352 53.271 124.926 49.665 C 55.235 41.404, 45 40.365, 45 41.548 M 50 45.096 C 50 45.671, 51.846 52.523, 54.102 60.321 C 56.358 68.120, 59.559 79.225, 61.216 85 C 62.873 90.775, 64.682 96.063, 65.237 96.750 C 66.787 98.672, 244.282 98.569, 245.879 96.646 C 247.361 94.860, 260.977 48.689, 260.994 45.389 C 260.997 44.777, 259.988 44.430, 258.750 44.618 C 255.324 45.136, 208.613 50.662, 180.500 53.875 C 156.592 56.608, 154.998 56.673, 144 55.361 C 137.675 54.606, 124.475 53.093, 114.668 51.999 C 93.522 49.641, 56.644 45.186, 52.750 44.520 C 51.203 44.256, 50 44.508, 50 45.096 M 156.500 60 C 156.121 60.613, 148.073 61, 135.691 61 L 115.500 61 115.500 63.520 L 115.500 66.041 134.873 65.770 L 154.246 65.500 156.751 62.250 C 158.129 60.462, 158.775 59, 158.187 59 C 157.599 59, 156.840 59.450, 156.500 60 M 246.541 59.933 C 246.096 60.654, 235.225 61, 213.052 61 C 176.289 61, 179.488 60.380, 172.557 68.845 C 168.631 73.640, 168.271 73.318, 170.500 67 C 172.855 60.325, 172.675 59.992, 166.750 60.063 C 162.590 60.114, 161.967 60.314, 163.750 61.031 C 164.988 61.529, 166 62.370, 166 62.900 C 166 63.430, 163.750 69.595, 161 76.599 C 158.250 83.602, 156 89.738, 156 90.233 C 156 90.728, 157.160 90.990, 158.577 90.816 C 160.738 90.551, 161.643 89.327, 164.182 83.229 C 167.117 76.182, 170.235 72.835, 172.115 74.715 C 172.650 75.250, 171.941 78.107, 170.374 81.738 C 167.347 88.754, 167.692 91, 171.794 91 C 175.412 91, 178.138 88.124, 181.516 80.747 C 184.265 74.742, 186.781 72.862, 185.528 77.750 C 185.140 79.263, 184.592 82.412, 184.311 84.750 C 183.868 88.423, 184.053 89, 185.677 89 C 186.710 89, 188.613 88.259, 189.906 87.353 C 192.088 85.825, 192.322 85.825, 193.178 87.353 C 194.359 89.463, 198.884 89.470, 201.887 87.366 C 204.112 85.808, 204.190 85.825, 203.585 87.732 C 203.043 89.441, 203.318 89.662, 205.475 89.250 C 206.864 88.984, 208 88.382, 208 87.911 C 208 85.706, 213.392 76, 214.617 76 C 216.416 76, 216.413 76.024, 213.570 83.020 L 211.140 89 213.516 89 C 215.508 89, 216.243 88.039, 218.057 83.065 C 219.967 77.827, 222.362 75.029, 223.749 76.416 C 224.004 76.670, 223.435 78.914, 222.484 81.402 C 221.534 83.889, 221.023 86.617, 221.347 87.462 C 222.198 89.679, 226.593 89.353, 228.875 86.904 L 230.827 84.808 231.949 86.904 C 233.531 89.860, 238.956 89.740, 241.826 86.686 C 244.556 83.780, 244.710 82.290, 242 85 C 239.743 87.257, 236.982 87.582, 235.200 85.800 C 233.216 83.816, 233.837 82, 236.500 82 C 239.182 82, 243 78.861, 243 76.655 C 243 75.915, 242.111 74.506, 241.026 73.523 C 239.332 71.991, 238.630 71.911, 236.097 72.960 C 232.930 74.271, 232.238 75.329, 230.571 81.404 C 229.566 85.068, 226.775 88.108, 225.545 86.879 C 225.243 86.576, 225.859 83.815, 226.916 80.744 C 228.518 76.088, 228.622 74.865, 227.540 73.385 C 226.298 71.687, 226.127 71.687, 223.538 73.383 C 220.995 75.049, 220.759 75.053, 219.588 73.451 C 218.565 72.053, 217.952 71.955, 216.171 72.909 C 214.756 73.666, 214 73.710, 214 73.035 C 214 72.466, 212.946 72, 211.658 72 C 209.797 72, 209.073 72.812, 208.132 75.955 C 206.435 81.617, 202.459 86, 199.018 86 C 195.793 86, 194.049 83.218, 196.767 82.407 C 203.164 80.499, 206.048 75.944, 202.646 73.121 C 199.240 70.294, 192 76.137, 192 81.713 C 192 84.009, 188.483 87.591, 187.613 86.182 C 187.291 85.661, 187.884 82.745, 188.931 79.701 C 190.943 73.854, 190.799 73, 187.802 73 C 186.776 73, 185.678 72.325, 185.362 71.500 C 185.045 70.675, 184.110 70, 183.285 70 C 182.162 70, 181.950 70.665, 182.444 72.633 C 182.904 74.465, 182.321 76.867, 180.529 80.529 C 175.876 90.040, 171.678 91.002, 175.636 81.650 C 178.557 74.751, 178.423 71.798, 175.155 71.032 L 172.809 70.483 175.008 68.491 C 177.087 66.609, 179.040 66.473, 210.747 66 L 244.286 65.500 246.326 62.766 C 247.448 61.263, 248.104 59.770, 247.783 59.450 C 247.463 59.129, 246.904 59.347, 246.541 59.933 M 73.857 61.071 C 76.773 62.239, 76.559 63.332, 70.441 78.533 C 67.998 84.601, 66 89.919, 66 90.350 C 66 90.780, 67.199 90.990, 68.665 90.816 C 70.886 90.553, 71.773 89.452, 74 84.192 C 77.073 76.934, 80.397 72.997, 82.052 74.652 C 82.819 75.419, 82.385 77.553, 80.543 82.088 C 79.121 85.586, 78.178 89.022, 78.448 89.724 C 78.717 90.426, 80.261 91, 81.880 91 C 85.388 91, 88.403 87.784, 92.004 80.200 C 94.656 74.612, 96.635 73.263, 95.597 77.750 C 93.734 85.798, 93.716 87.954, 95.503 88.640 C 96.472 89.011, 98.084 88.804, 99.086 88.178 C 100.245 87.454, 101.127 87.397, 101.513 88.020 C 102.331 89.345, 106.717 89.267, 107.554 87.913 C 108.038 87.130, 108.530 87.130, 109.313 87.913 C 110.680 89.280, 119.354 89.382, 118.513 88.021 C 118.180 87.482, 118.376 86.166, 118.948 85.097 C 119.686 83.718, 119.616 81.512, 118.707 77.509 L 117.425 71.865 114.217 76.682 C 106.259 88.634, 102.900 90.238, 107.358 79.959 C 110.495 72.726, 110.568 72, 108.159 72 C 106.816 72, 105.562 73.879, 103.522 78.946 C 100.509 86.430, 97.975 88.865, 98.035 84.219 C 98.055 82.723, 98.714 80.375, 99.500 79 C 101.543 75.425, 101.370 73, 99.071 73 C 98.011 73, 96.468 72.325, 95.643 71.500 C 93.195 69.052, 91.681 69.657, 92.316 72.830 C 93.225 77.375, 86.541 89.875, 84.366 87.699 C 84.043 87.376, 84.808 84.244, 86.066 80.737 C 88.409 74.203, 88.186 70.331, 85.524 71.353 C 82.868 72.372, 82.935 70.196, 85.625 68.080 C 87.876 66.310, 89.664 66, 97.635 66 C 106.958 66, 107 65.989, 107 63.500 C 107 61.033, 106.890 61, 98.646 61 C 89.554 61, 89.031 61.259, 82.709 68.884 C 79.284 73.016, 78.367 72.451, 80.441 67.486 C 83.192 60.903, 82.739 59.991, 76.750 60.063 C 72.425 60.116, 71.915 60.293, 73.857 61.071 M 109.336 62.567 C 109.005 63.429, 109.225 64.625, 109.825 65.225 C 111.269 66.669, 114.096 64.414, 113.334 62.427 C 112.602 60.521, 110.087 60.609, 109.336 62.567 M 123.971 78.587 C 122.792 82.131, 121.303 85.586, 120.663 86.265 C 120.024 86.944, 119.437 88.175, 119.361 89 C 119.285 89.825, 118.899 91.287, 118.504 92.250 C 117.949 93.603, 118.284 94, 119.980 94 C 121.468 94, 122.516 93.093, 123.238 91.180 C 124.206 88.617, 124.733 88.367, 129.045 88.430 C 132.277 88.478, 134.418 87.929, 135.770 86.707 C 137.508 85.135, 137.826 85.104, 138.345 86.457 C 138.675 87.316, 140.124 88, 141.616 88 L 144.296 88 140.898 90.284 C 136.606 93.170, 135.718 97, 139.342 97 C 141.767 97, 147 92.079, 147 89.798 C 147 89.163, 148.202 88.990, 150.050 89.360 C 151.941 89.738, 152.868 89.596, 152.491 88.985 C 152.156 88.443, 151.234 88, 150.441 88 C 148.526 88, 148.595 87.506, 151.481 80.500 C 154.464 73.258, 154.561 72, 152.134 72 C 150.767 72, 149.694 73.575, 148.121 77.888 C 146.128 83.354, 143.589 86.923, 142.482 85.816 C 142.224 85.557, 143.135 82.483, 144.506 78.984 C 145.878 75.484, 147 72.450, 147 72.241 C 147 72.032, 146.030 72.005, 144.845 72.180 C 143.362 72.400, 142.271 73.718, 141.342 76.409 C 139.876 80.662, 135.461 87, 133.965 87 C 133.452 87, 133.956 85.228, 135.084 83.063 C 136.294 80.743, 137.006 77.766, 136.818 75.813 C 136.505 72.555, 136.414 72.497, 131.308 72.322 L 126.115 72.144 123.971 78.587 M 128 79.500 C 125.622 85.048, 125.572 85.622, 127.406 86.326 C 129.588 87.163, 132.255 83.439, 132.384 79.377 C 132.555 73.957, 130.349 74.019, 128 79.500 M 198.400 75.765 C 197.795 76.169, 196.766 77.513, 196.115 78.750 C 195.119 80.640, 195.186 81, 196.531 81 C 199.299 81, 202 79.007, 202 76.965 C 202 74.968, 200.394 74.433, 198.400 75.765 M 235.428 77.470 C 234.493 78.896, 234.041 80.374, 234.421 80.755 C 235.453 81.787, 240.500 78.649, 240.500 76.975 C 240.500 74.437, 237.204 74.758, 235.428 77.470 M 113.392 80.163 C 112.933 80.898, 112.504 82.982, 112.439 84.793 C 112.270 89.429, 115.373 88.807, 115.823 84.115 C 116.182 80.365, 114.734 78.010, 113.392 80.163 M 139.443 92.418 C 138.376 93.198, 137.852 94.186, 138.279 94.613 C 138.706 95.040, 140.043 94.401, 141.250 93.194 C 143.696 90.748, 142.455 90.215, 139.443 92.418 M 96.389 102.011 C 93.444 103.157, 92.676 105.856, 94.500 108.641 C 96.299 111.385, 99.170 111.687, 101.482 109.375 C 104.856 106.001, 100.887 100.262, 96.389 102.011 M 136.250 102.086 C 134.646 102.692, 134 103.749, 134 105.768 C 134 110.658, 138.153 112.704, 141.429 109.429 C 143.712 107.145, 143.361 106, 140.378 106 C 138.160 106, 137.947 106.232, 139 107.500 C 140.013 108.721, 139.963 109, 138.729 109 C 137.021 109, 135.672 106.340, 136.610 104.823 C 136.948 104.274, 138.074 104.048, 139.112 104.319 C 140.149 104.590, 141.236 104.427, 141.527 103.956 C 142.422 102.508, 138.661 101.176, 136.250 102.086 M 74.667 102.667 C 73.597 103.736, 73.899 109.820, 75.057 110.535 C 75.638 110.894, 77.206 110.914, 78.542 110.579 C 81.404 109.860, 82.836 105.712, 80.989 103.487 C 79.728 101.967, 75.867 101.466, 74.667 102.667 M 114 104.929 C 114 107.710, 116.162 111, 117.990 111 C 120.851 111, 122 109.537, 122 105.893 C 122 101.190, 120.254 100.676, 119.813 105.250 C 119.641 107.037, 119.050 108.500, 118.500 108.500 C 117.950 108.500, 117.359 107.037, 117.187 105.250 C 116.780 101.037, 114 100.756, 114 104.929 M 154.667 102.667 C 153.592 103.741, 153.902 109.821, 155.067 110.542 C 155.655 110.905, 156.381 110.257, 156.684 109.101 C 157.383 106.426, 160 106.347, 160 109 C 160 110.100, 160.450 111, 161 111 C 161.550 111, 162 108.975, 162 106.500 C 162 104.025, 161.550 102, 161 102 C 160.450 102, 160 102.675, 160 103.500 C 160 104.325, 159.325 105, 158.500 105 C 157.675 105, 157 104.325, 157 103.500 C 157 101.938, 155.817 101.516, 154.667 102.667 M 174.193 106.172 C 174.538 110.862, 177 112.858, 177 108.448 L 177 105.730 179.073 108.365 C 182.021 112.113, 183 111.648, 183 106.500 C 183 104.025, 182.550 102, 182 102 C 181.450 102, 181 102.978, 181 104.174 L 181 106.349 178.686 104.174 C 175.107 100.812, 173.839 101.376, 174.193 106.172 M 195.190 105.649 C 195.797 112.792, 202.203 112.792, 202.810 105.649 C 203.046 102.877, 202.746 102, 201.560 102 C 200.444 102, 200 102.995, 200 105.500 C 200 107.425, 199.550 109, 199 109 C 198.450 109, 198 107.425, 198 105.500 C 198 102.995, 197.556 102, 196.440 102 C 195.254 102, 194.954 102.877, 195.190 105.649 M 213 103 C 213 103.550, 213.675 104, 214.500 104 C 215.548 104, 216 105.056, 216 107.500 C 216 109.425, 216.450 111, 217 111 C 217.550 111, 218 109.425, 218 107.500 C 218 105.056, 218.452 104, 219.500 104 C 220.325 104, 221 103.550, 221 103 C 221 102.450, 219.200 102, 217 102 C 214.800 102, 213 102.450, 213 103 M 231.604 103.590 C 230.845 105.568, 231.666 107, 233.559 107 C 234.352 107, 235 107.470, 235 108.044 C 235 108.618, 234.355 108.955, 233.566 108.794 C 231.451 108.361, 231.690 109.908, 233.838 110.548 C 234.895 110.864, 236.261 110.391, 237.055 109.434 C 238.256 107.986, 238.133 107.526, 236.107 105.885 C 234.333 104.449, 234.162 104, 235.389 104 C 236.275 104, 237 103.550, 237 103 C 237 101.353, 232.263 101.871, 231.604 103.590 M 241 103.500 C 241 104.325, 241.436 105, 241.969 105 C 242.501 105, 242.678 104.325, 242.362 103.500 C 242.045 102.675, 241.609 102, 241.393 102 C 241.177 102, 241 102.675, 241 103.500 M 77 106.622 C 77 108.792, 77.249 109.038, 78.441 108.049 C 79.233 107.392, 79.635 106.212, 79.334 105.427 C 78.432 103.078, 77 103.812, 77 106.622 M 96.667 104.667 C 95.290 106.043, 96.073 108, 98 108 C 99.333 108, 100 107.333, 100 106 C 100 104.073, 98.043 103.290, 96.667 104.667 M 243.490 106.016 C 243.144 106.575, 242.373 106.731, 241.776 106.362 C 241.144 105.971, 240.977 106.154, 241.378 106.802 C 242.136 108.028, 245 107.310, 245 105.893 C 245 104.701, 244.266 104.761, 243.490 106.016" stroke="none" fill="#116243" fill-rule="evenodd"/><path d="M -0 81.003 L -0 162.006 155.750 161.753 L 311.500 161.500 311.756 80.750 L 312.012 0 156.006 0 L 0 0 -0 81.003 M 0.477 81.500 C 0.477 126.050, 0.599 144.421, 0.750 122.325 C 0.900 100.228, 0.900 63.778, 0.750 41.325 C 0.600 18.871, 0.477 36.950, 0.477 81.500 M 45 41.548 C 45 41.999, 47.303 50.274, 50.117 59.935 C 52.931 69.596, 56.020 80.425, 56.981 84 C 61.723 101.641, 65.187 111.002, 67.708 112.985 C 70.231 114.969, 71.568 115, 156.046 115 L 241.822 115 244.373 111.969 C 245.775 110.302, 247.337 107.489, 247.842 105.719 C 248.348 103.949, 251.788 92.150, 255.486 79.500 C 264.256 49.506, 266 43.265, 266 41.876 C 266 40.546, 262.322 40.794, 235.500 43.924 C 225.600 45.080, 203.517 47.656, 186.426 49.648 L 155.352 53.271 124.926 49.665 C 55.235 41.404, 45 40.365, 45 41.548 M 50 45.096 C 50 45.671, 51.846 52.523, 54.102 60.321 C 56.358 68.120, 59.559 79.225, 61.216 85 C 62.873 90.775, 64.682 96.063, 65.237 96.750 C 66.787 98.672, 244.282 98.569, 245.879 96.646 C 247.361 94.860, 260.977 48.689, 260.994 45.389 C 260.997 44.777, 259.988 44.430, 258.750 44.618 C 255.324 45.136, 208.613 50.662, 180.500 53.875 C 156.592 56.608, 154.998 56.673, 144 55.361 C 137.675 54.606, 124.475 53.093, 114.668 51.999 C 93.522 49.641, 56.644 45.186, 52.750 44.520 C 51.203 44.256, 50 44.508, 50 45.096 M 156.500 60 C 156.121 60.613, 148.073 61, 135.691 61 L 115.500 61 115.500 63.520 L 115.500 66.041 134.873 65.770 L 154.246 65.500 156.751 62.250 C 158.129 60.462, 158.775 59, 158.187 59 C 157.599 59, 156.840 59.450, 156.500 60 M 246.541 59.933 C 246.096 60.654, 235.225 61, 213.052 61 C 176.289 61, 179.488 60.380, 172.557 68.845 C 168.631 73.640, 168.271 73.318, 170.500 67 C 172.855 60.325, 172.675 59.992, 166.750 60.063 C 162.590 60.114, 161.967 60.314, 163.750 61.031 C 164.988 61.529, 166 62.370, 166 62.900 C 166 63.430, 163.750 69.595, 161 76.599 C 158.250 83.602, 156 89.738, 156 90.233 C 156 90.728, 157.160 90.990, 158.577 90.816 C 160.738 90.551, 161.643 89.327, 164.182 83.229 C 167.117 76.182, 170.235 72.835, 172.115 74.715 C 172.650 75.250, 171.941 78.107, 170.374 81.738 C 167.347 88.754, 167.692 91, 171.794 91 C 175.412 91, 178.138 88.124, 181.516 80.747 C 184.265 74.742, 186.781 72.862, 185.528 77.750 C 185.140 79.263, 184.592 82.412, 184.311 84.750 C 183.868 88.423, 184.053 89, 185.677 89 C 186.710 89, 188.613 88.259, 189.906 87.353 C 192.088 85.825, 192.322 85.825, 193.178 87.353 C 194.359 89.463, 198.884 89.470, 201.887 87.366 C 204.112 85.808, 204.190 85.825, 203.585 87.732 C 203.043 89.441, 203.318 89.662, 205.475 89.250 C 206.864 88.984, 208 88.382, 208 87.911 C 208 85.706, 213.392 76, 214.617 76 C 216.416 76, 216.413 76.024, 213.570 83.020 L 211.140 89 213.516 89 C 215.508 89, 216.243 88.039, 218.057 83.065 C 219.967 77.827, 222.362 75.029, 223.749 76.416 C 224.004 76.670, 223.435 78.914, 222.484 81.402 C 221.534 83.889, 221.023 86.617, 221.347 87.462 C 222.198 89.679, 226.593 89.353, 228.875 86.904 L 230.827 84.808 231.949 86.904 C 233.531 89.860, 238.956 89.740, 241.826 86.686 C 244.556 83.780, 244.710 82.290, 242 85 C 239.743 87.257, 236.982 87.582, 235.200 85.800 C 233.216 83.816, 233.837 82, 236.500 82 C 239.182 82, 243 78.861, 243 76.655 C 243 75.915, 242.111 74.506, 241.026 73.523 C 239.332 71.991, 238.630 71.911, 236.097 72.960 C 232.930 74.271, 232.238 75.329, 230.571 81.404 C 229.566 85.068, 226.775 88.108, 225.545 86.879 C 225.243 86.576, 225.859 83.815, 226.916 80.744 C 228.518 76.088, 228.622 74.865, 227.540 73.385 C 226.298 71.687, 226.127 71.687, 223.538 73.383 C 220.995 75.049, 220.759 75.053, 219.588 73.451 C 218.565 72.053, 217.952 71.955, 216.171 72.909 C 214.756 73.666, 214 73.710, 214 73.035 C 214 72.466, 212.946 72, 211.658 72 C 209.797 72, 209.073 72.812, 208.132 75.955 C 206.435 81.617, 202.459 86, 199.018 86 C 195.793 86, 194.049 83.218, 196.767 82.407 C 203.164 80.499, 206.048 75.944, 202.646 73.121 C 199.240 70.294, 192 76.137, 192 81.713 C 192 84.009, 188.483 87.591, 187.613 86.182 C 187.291 85.661, 187.884 82.745, 188.931 79.701 C 190.943 73.854, 190.799 73, 187.802 73 C 186.776 73, 185.678 72.325, 185.362 71.500 C 185.045 70.675, 184.110 70, 183.285 70 C 182.162 70, 181.950 70.665, 182.444 72.633 C 182.904 74.465, 182.321 76.867, 180.529 80.529 C 175.876 90.040, 171.678 91.002, 175.636 81.650 C 178.557 74.751, 178.423 71.798, 175.155 71.032 L 172.809 70.483 175.008 68.491 C 177.087 66.609, 179.040 66.473, 210.747 66 L 244.286 65.500 246.326 62.766 C 247.448 61.263, 248.104 59.770, 247.783 59.450 C 247.463 59.129, 246.904 59.347, 246.541 59.933 M 73.857 61.071 C 76.773 62.239, 76.559 63.332, 70.441 78.533 C 67.998 84.601, 66 89.919, 66 90.350 C 66 90.780, 67.199 90.990, 68.665 90.816 C 70.886 90.553, 71.773 89.452, 74 84.192 C 77.073 76.934, 80.397 72.997, 82.052 74.652 C 82.819 75.419, 82.385 77.553, 80.543 82.088 C 79.121 85.586, 78.178 89.022, 78.448 89.724 C 78.717 90.426, 80.261 91, 81.880 91 C 85.388 91, 88.403 87.784, 92.004 80.200 C 94.656 74.612, 96.635 73.263, 95.597 77.750 C 93.734 85.798, 93.716 87.954, 95.503 88.640 C 96.472 89.011, 98.084 88.804, 99.086 88.178 C 100.245 87.454, 101.127 87.397, 101.513 88.020 C 102.331 89.345, 106.717 89.267, 107.554 87.913 C 108.038 87.130, 108.530 87.130, 109.313 87.913 C 110.680 89.280, 119.354 89.382, 118.513 88.021 C 118.180 87.482, 118.376 86.166, 118.948 85.097 C 119.686 83.718, 119.616 81.512, 118.707 77.509 L 117.425 71.865 114.217 76.682 C 106.259 88.634, 102.900 90.238, 107.358 79.959 C 110.495 72.726, 110.568 72, 108.159 72 C 106.816 72, 105.562 73.879, 103.522 78.946 C 100.509 86.430, 97.975 88.865, 98.035 84.219 C 98.055 82.723, 98.714 80.375, 99.500 79 C 101.543 75.425, 101.370 73, 99.071 73 C 98.011 73, 96.468 72.325, 95.643 71.500 C 93.195 69.052, 91.681 69.657, 92.316 72.830 C 93.225 77.375, 86.541 89.875, 84.366 87.699 C 84.043 87.376, 84.808 84.244, 86.066 80.737 C 88.409 74.203, 88.186 70.331, 85.524 71.353 C 82.868 72.372, 82.935 70.196, 85.625 68.080 C 87.876 66.310, 89.664 66, 97.635 66 C 106.958 66, 107 65.989, 107 63.500 C 107 61.033, 106.890 61, 98.646 61 C 89.554 61, 89.031 61.259, 82.709 68.884 C 79.284 73.016, 78.367 72.451, 80.441 67.486 C 83.192 60.903, 82.739 59.991, 76.750 60.063 C 72.425 60.116, 71.915 60.293, 73.857 61.071 M 109.336 62.567 C 109.005 63.429, 109.225 64.625, 109.825 65.225 C 111.269 66.669, 114.096 64.414, 113.334 62.427 C 112.602 60.521, 110.087 60.609, 109.336 62.567 M 123.971 78.587 C 122.792 82.131, 121.303 85.586, 120.663 86.265 C 120.024 86.944, 119.437 88.175, 119.361 89 C 119.285 89.825, 118.899 91.287, 118.504 92.250 C 117.949 93.603, 118.284 94, 119.980 94 C 121.468 94, 122.516 93.093, 123.238 91.180 C 124.206 88.617, 124.733 88.367, 129.045 88.430 C 132.277 88.478, 134.418 87.929, 135.770 86.707 C 137.508 85.135, 137.826 85.104, 138.345 86.457 C 138.675 87.316, 140.124 88, 141.616 88 L 144.296 88 140.898 90.284 C 136.606 93.170, 135.718 97, 139.342 97 C 141.767 97, 147 92.079, 147 89.798 C 147 89.163, 148.202 88.990, 150.050 89.360 C 151.941 89.738, 152.868 89.596, 152.491 88.985 C 152.156 88.443, 151.234 88, 150.441 88 C 148.526 88, 148.595 87.506, 151.481 80.500 C 154.464 73.258, 154.561 72, 152.134 72 C 150.767 72, 149.694 73.575, 148.121 77.888 C 146.128 83.354, 143.589 86.923, 142.482 85.816 C 142.224 85.557, 143.135 82.483, 144.506 78.984 C 145.878 75.484, 147 72.450, 147 72.241 C 147 72.032, 146.030 72.005, 144.845 72.180 C 143.362 72.400, 142.271 73.718, 141.342 76.409 C 139.876 80.662, 135.461 87, 133.965 87 C 133.452 87, 133.956 85.228, 135.084 83.063 C 136.294 80.743, 137.006 77.766, 136.818 75.813 C 136.505 72.555, 136.414 72.497, 131.308 72.322 L 126.115 72.144 123.971 78.587 M 128 79.500 C 125.622 85.048, 125.572 85.622, 127.406 86.326 C 129.588 87.163, 132.255 83.439, 132.384 79.377 C 132.555 73.957, 130.349 74.019, 128 79.500 M 198.400 75.765 C 197.795 76.169, 196.766 77.513, 196.115 78.750 C 195.119 80.640, 195.186 81, 196.531 81 C 199.299 81, 202 79.007, 202 76.965 C 202 74.968, 200.394 74.433, 198.400 75.765 M 235.428 77.470 C 234.493 78.896, 234.041 80.374, 234.421 80.755 C 235.453 81.787, 240.500 78.649, 240.500 76.975 C 240.500 74.437, 237.204 74.758, 235.428 77.470 M 113.392 80.163 C 112.933 80.898, 112.504 82.982, 112.439 84.793 C 112.270 89.429, 115.373 88.807, 115.823 84.115 C 116.182 80.365, 114.734 78.010, 113.392 80.163 M 139.443 92.418 C 138.376 93.198, 137.852 94.186, 138.279 94.613 C 138.706 95.040, 140.043 94.401, 141.250 93.194 C 143.696 90.748, 142.455 90.215, 139.443 92.418 M 96.389 102.011 C 93.444 103.157, 92.676 105.856, 94.500 108.641 C 96.299 111.385, 99.170 111.687, 101.482 109.375 C 104.856 106.001, 100.887 100.262, 96.389 102.011 M 136.250 102.086 C 134.646 102.692, 134 103.749, 134 105.768 C 134 110.658, 138.153 112.704, 141.429 109.429 C 143.712 107.145, 143.361 106, 140.378 106 C 138.160 106, 137.947 106.232, 139 107.500 C 140.013 108.721, 139.963 109, 138.729 109 C 137.021 109, 135.672 106.340, 136.610 104.823 C 136.948 104.274, 138.074 104.048, 139.112 104.319 C 140.149 104.590, 141.236 104.427, 141.527 103.956 C 142.422 102.508, 138.661 101.176, 136.250 102.086 M 74.667 102.667 C 73.597 103.736, 73.899 109.820, 75.057 110.535 C 75.638 110.894, 77.206 110.914, 78.542 110.579 C 81.404 109.860, 82.836 105.712, 80.989 103.487 C 79.728 101.967, 75.867 101.466, 74.667 102.667 M 114 104.929 C 114 107.710, 116.162 111, 117.990 111 C 120.851 111, 122 109.537, 122 105.893 C 122 101.190, 120.254 100.676, 119.813 105.250 C 119.641 107.037, 119.050 108.500, 118.500 108.500 C 117.950 108.500, 117.359 107.037, 117.187 105.250 C 116.780 101.037, 114 100.756, 114 104.929 M 154.667 102.667 C 153.592 103.741, 153.902 109.821, 155.067 110.542 C 155.655 110.905, 156.381 110.257, 156.684 109.101 C 157.383 106.426, 160 106.347, 160 109 C 160 110.100, 160.450 111, 161 111 C 161.550 111, 162 108.975, 162 106.500 C 162 104.025, 161.550 102, 161 102 C 160.450 102, 160 102.675, 160 103.500 C 160 104.325, 159.325 105, 158.500 105 C 157.675 105, 157 104.325, 157 103.500 C 157 101.938, 155.817 101.516, 154.667 102.667 M 174.193 106.172 C 174.538 110.862, 177 112.858, 177 108.448 L 177 105.730 179.073 108.365 C 182.021 112.113, 183 111.648, 183 106.500 C 183 104.025, 182.550 102, 182 102 C 181.450 102, 181 102.978, 181 104.174 L 181 106.349 178.686 104.174 C 175.107 100.812, 173.839 101.376, 174.193 106.172 M 195.190 105.649 C 195.797 112.792, 202.203 112.792, 202.810 105.649 C 203.046 102.877, 202.746 102, 201.560 102 C 200.444 102, 200 102.995, 200 105.500 C 200 107.425, 199.550 109, 199 109 C 198.450 109, 198 107.425, 198 105.500 C 198 102.995, 197.556 102, 196.440 102 C 195.254 102, 194.954 102.877, 195.190 105.649 M 213 103 C 213 103.550, 213.675 104, 214.500 104 C 215.548 104, 216 105.056, 216 107.500 C 216 109.425, 216.450 111, 217 111 C 217.550 111, 218 109.425, 218 107.500 C 218 105.056, 218.452 104, 219.500 104 C 220.325 104, 221 103.550, 221 103 C 221 102.450, 219.200 102, 217 102 C 214.800 102, 213 102.450, 213 103 M 231.604 103.590 C 230.845 105.568, 231.666 107, 233.559 107 C 234.352 107, 235 107.470, 235 108.044 C 235 108.618, 234.355 108.955, 233.566 108.794 C 231.451 108.361, 231.690 109.908, 233.838 110.548 C 234.895 110.864, 236.261 110.391, 237.055 109.434 C 238.256 107.986, 238.133 107.526, 236.107 105.885 C 234.333 104.449, 234.162 104, 235.389 104 C 236.275 104, 237 103.550, 237 103 C 237 101.353, 232.263 101.871, 231.604 103.590 M 241 103.500 C 241 104.325, 241.436 105, 241.969 105 C 242.501 105, 242.678 104.325, 242.362 103.500 C 242.045 102.675, 241.609 102, 241.393 102 C 241.177 102, 241 102.675, 241 103.500 M 77 106.622 C 77 108.792, 77.249 109.038, 78.441 108.049 C 79.233 107.392, 79.635 106.212, 79.334 105.427 C 78.432 103.078, 77 103.812, 77 106.622 M 96.667 104.667 C 95.290 106.043, 96.073 108, 98 108 C 99.333 108, 100 107.333, 100 106 C 100 104.073, 98.043 103.290, 96.667 104.667 M 243.490 106.016 C 243.144 106.575, 242.373 106.731, 241.776 106.362 C 241.144 105.971, 240.977 106.154, 241.378 106.802 C 242.136 108.028, 245 107.310, 245 105.893 C 245 104.701, 244.266 104.761, 243.490 106.016" stroke="none" fill="#f4f3f3" fill-rule="evenodd"/></svg>