<svg version="1.1" id="Layer_1" xmlns="http://www.w3.org/2000/svg" xmlns:xlink="http://www.w3.org/1999/xlink" x="0px" y="0px"
	 width="100%" viewBox="0 0 1080 1080" enable-background="new 0 0 1080 1080" xml:space="preserve">
<path fill="#38B6FF" opacity="1.000000" stroke="none" 
	d="
M744.000000,1081.000000 
	C496.028564,1081.000000 248.557114,1081.000000 1.042840,1081.000000 
	C1.042840,721.070129 1.042840,361.140198 1.042840,1.105153 
	C360.888306,1.105153 720.776672,1.105153 1080.832520,1.105153 
	C1080.832520,360.999939 1080.832520,720.999939 1080.832520,1081.000000 
	C968.806396,1081.000000 856.653198,1081.000000 744.000000,1081.000000 
M360.211487,504.862915 
	C373.767181,484.076996 387.272003,463.257355 400.973267,442.567810 
	C402.095612,440.872955 404.411560,439.692047 406.421204,438.912048 
	C413.027893,436.347992 419.814819,434.245667 426.406525,431.646515 
	C432.418671,429.275940 438.150299,426.170471 444.212982,423.956970 
	C454.682526,420.134399 464.352112,422.004486 472.375824,429.814209 
	C480.479584,437.701843 488.408173,445.797272 495.938354,454.226135 
	C497.730621,456.232330 498.279388,459.936798 498.244995,462.846497 
	C498.196381,466.958496 497.069672,471.057190 496.410858,475.162689 
	C494.822662,485.059387 500.734528,494.553040 509.962860,495.857330 
	C520.951172,497.410339 529.525879,495.161377 531.581970,482.001862 
	C532.815186,474.108521 534.421936,466.251740 535.194580,458.313660 
	C536.236694,447.606018 533.589600,437.851318 525.963928,429.801666 
	C510.509338,413.487854 494.917999,397.298035 479.752228,380.719391 
	C474.654694,375.146942 469.144379,373.737854 462.289856,375.717957 
	C445.983612,380.428345 429.606354,384.911743 413.402435,389.951843 
	C398.177094,394.687592 384.165100,401.963074 371.745361,412.082520 
	C363.236176,419.015656 354.794006,426.031281 346.334564,433.025299 
	C324.085571,451.420197 304.172211,472.147614 284.671783,493.394867 
	C272.346100,506.824646 258.849304,519.254517 245.185623,531.351074 
	C237.886185,537.813354 229.097137,542.586426 221.018585,548.177063 
	C210.523788,555.439941 204.827271,565.400635 205.459579,578.251953 
	C207.482895,619.375793 223.998795,652.421021 260.232788,673.910583 
	C273.455383,681.752625 287.467377,683.984314 302.337769,677.901733 
	C311.262024,674.251404 320.477325,671.259827 329.687195,668.371948 
	C345.585480,663.386963 361.837219,661.505066 378.486572,663.476257 
	C396.744141,665.637756 413.365540,673.231628 430.522919,678.998108 
	C457.037048,687.909424 483.379150,697.333008 509.900574,706.222046 
	C519.367676,709.395081 527.828430,705.573425 532.274414,697.146545 
	C537.696655,686.869263 536.084167,677.218994 528.097351,670.564087 
	C519.799683,663.650330 509.757294,660.518250 499.804901,657.247009 
	C467.361389,646.583191 434.819275,636.130371 404.601624,619.879944 
	C388.604340,611.276917 375.657959,599.494934 370.613708,581.225159 
	C365.874512,564.060242 361.487274,546.793457 357.248962,529.497070 
	C355.243347,521.312195 354.311005,512.994019 360.211487,504.862915 
M668.160034,624.815308 
	C664.233398,626.641418 660.416199,628.768066 656.362366,630.245056 
	C629.150269,640.159424 601.804810,649.714417 574.696594,659.902161 
	C567.318054,662.675110 560.373657,666.851990 553.668274,671.079590 
	C549.185730,673.905701 546.595032,678.580078 546.587585,684.193054 
	C546.567871,699.026306 557.448242,711.809692 575.221924,705.622070 
	C607.619812,694.343262 640.097717,683.279419 672.321106,671.519958 
	C691.613037,664.479736 711.320129,660.077881 731.518555,663.924255 
	C747.439514,666.956055 763.152100,671.929932 778.359741,677.634155 
	C795.251709,683.970154 810.346985,681.514893 824.942505,672.221497 
	C852.351807,654.769165 868.139404,629.494751 874.389832,597.933472 
	C875.165466,594.017334 875.633118,590.039612 876.222229,586.087219 
	C878.896301,568.148315 872.512573,554.424072 856.930786,545.128906 
	C837.157898,533.333557 820.082336,518.402771 804.675842,501.358307 
	C792.741699,488.155334 780.805786,474.889832 768.002319,462.553375 
	C753.162415,448.254852 737.456482,434.846893 721.969238,421.231171 
	C709.546997,410.310120 696.523987,399.986725 680.634521,394.686462 
	C660.292114,387.900696 639.625610,382.091736 619.156067,375.678833 
	C612.246033,373.514008 606.858154,375.365082 602.095825,380.488312 
	C586.800659,396.942444 571.483337,413.376587 556.075378,429.724976 
	C548.733154,437.515411 545.812683,446.878479 546.729614,457.214874 
	C547.521423,466.141724 549.089905,475.034607 550.877930,483.828064 
	C552.558228,492.091248 557.290649,495.869873 564.946106,496.192139 
	C575.789246,496.648529 581.380981,493.328522 584.509155,485.162445 
	C587.152100,478.263153 584.828247,471.689270 583.802368,465.017059 
	C583.235657,461.331268 582.626160,457.820282 585.630188,454.719635 
	C594.078857,445.999298 601.975220,436.679962 610.968140,428.571442 
	C617.939148,422.286011 626.706787,420.144989 636.127808,423.664520 
	C649.379700,428.615082 662.688293,433.415466 675.900635,438.468353 
	C677.797791,439.193878 679.790588,440.641571 680.897827,442.312500 
	C694.879333,463.411774 708.749817,484.585236 722.542053,505.808960 
	C725.913818,510.997284 727.439453,516.803772 725.990601,522.964539 
	C722.069946,539.636047 718.056335,556.286438 713.946533,572.912415 
	C711.745178,581.818054 708.990295,590.448181 703.307373,597.997375 
	C694.222778,610.065430 682.288940,618.214600 668.160034,624.815308 
M465.825348,471.678192 
	C469.544006,474.191040 471.504395,477.553345 471.349548,482.180298 
	C471.244202,485.327637 471.935394,488.532257 471.589355,491.635284 
	C470.477539,501.605042 479.496063,512.683777 492.091949,510.671875 
	C493.254944,510.486084 494.306946,509.605164 495.410522,509.047058 
	C494.836609,507.993195 494.509308,506.642273 493.651642,505.930145 
	C481.343750,495.711365 479.648102,482.197235 481.242279,467.464996 
	C481.496490,465.115753 480.922821,462.037140 479.512299,460.268280 
	C475.380157,455.086487 470.427521,450.566223 466.180206,445.467102 
	C461.377594,439.701355 455.478455,438.696594 448.646881,440.302124 
	C440.415833,442.236511 432.122040,443.937134 423.971924,446.165192 
	C420.969574,446.985962 418.299072,449.020844 415.477234,450.501953 
	C415.601807,451.054840 415.726379,451.607697 415.850983,452.160583 
	C417.114777,452.325378 418.404633,452.741974 419.638214,452.614471 
	C428.260406,451.723236 436.688110,452.449707 444.184601,457.018982 
	C451.408539,461.422241 458.239716,466.469910 465.825348,471.678192 
M600.915771,508.421051 
	C607.439331,504.624146 610.271362,498.777466 610.333740,491.409424 
	C610.360596,488.243500 609.941467,485.010071 610.461060,481.931580 
	C610.900940,479.325745 611.692078,475.934662 613.557312,474.562073 
	C621.080688,469.025726 625.690125,460.306793 635.903931,457.394135 
	C643.894226,455.115540 651.374207,451.537262 659.959961,452.276611 
	C661.622864,452.419800 663.308655,452.297211 664.983887,452.297211 
	C665.087891,451.833099 665.191895,451.368988 665.295898,450.904877 
	C664.282898,450.222168 663.360046,449.245789 662.242676,448.902679 
	C652.233093,445.828705 642.258179,442.601105 632.129578,439.971130 
	C626.126831,438.412506 620.652527,440.012451 616.348572,444.979279 
	C612.212830,449.752014 607.939270,454.423431 603.470459,458.883118 
	C600.553650,461.793976 600.004822,464.823334 600.628479,468.820740 
	C602.915100,483.477386 600.242676,496.647858 588.090210,506.608704 
	C587.538818,507.060638 587.339600,507.942291 586.989319,508.599487 
	C591.156067,511.332306 594.360229,511.330414 600.915771,508.421051 
M358.904327,308.168610 
	C358.877258,304.913910 359.758270,301.265503 358.566162,298.515930 
	C357.388397,295.799500 354.115387,293.991486 351.694366,291.721985 
	C351.969879,291.528595 352.658844,291.089447 353.299316,290.588379 
	C357.885651,287.000183 359.156403,282.153168 357.897308,276.762360 
	C356.685913,271.575836 352.227295,269.790802 347.673004,269.434784 
	C340.569763,268.879486 333.381714,268.749176 326.285828,269.244293 
	C324.607208,269.361420 321.876587,272.630524 321.800964,274.535889 
	C321.306763,286.983124 321.331207,299.454315 321.363678,311.917175 
	C321.373993,315.867645 323.653625,318.010437 327.714539,317.993103 
	C333.198944,317.969727 338.699890,318.181610 344.163330,317.825958 
	C350.438782,317.417419 355.776184,315.045380 358.904327,308.168610 
M380.028320,324.940674 
	C378.530579,324.957306 377.032837,324.984894 375.535065,324.988342 
	C372.286102,324.995758 369.350830,325.628265 369.083832,329.590363 
	C368.816528,333.556152 371.349731,335.127838 374.885284,335.701477 
	C388.641479,337.933533 399.510712,330.776672 401.080872,316.972504 
	C402.315216,306.120056 401.859009,295.058655 401.849304,284.090332 
	C401.845856,280.222229 399.070343,278.728699 395.364807,278.839813 
	C391.734924,278.948669 389.800690,280.782196 389.702972,284.393097 
	C389.554504,289.880280 389.601318,295.374268 389.368439,300.857025 
	C389.218750,304.382263 388.259064,307.941010 383.870880,307.714142 
	C379.553741,307.490906 379.605988,303.684052 379.539246,300.528198 
	C379.423126,295.041321 379.670929,289.543915 379.456299,284.063019 
	C379.315735,280.473450 377.003052,278.836212 373.444916,278.821228 
	C369.936890,278.806427 367.319214,280.328400 367.281067,283.897400 
	C367.188721,292.530640 367.016724,301.222717 367.889343,309.787933 
	C368.598450,316.748718 374.728058,320.474884 381.437714,318.330811 
	C384.947601,317.209259 387.893250,314.321991 390.714783,312.479614 
	C391.126923,319.680176 388.675323,323.024017 380.028320,324.940674 
M703.225647,295.880463 
	C703.289185,288.053345 703.395996,280.226227 703.398499,272.399109 
	C703.399780,268.322906 701.136475,266.198730 697.151855,266.254181 
	C693.175659,266.309479 691.032654,268.491241 691.013000,272.557037 
	C690.998230,275.614197 691.010132,278.671448 691.010132,282.097046 
	C681.218750,275.401611 671.603577,278.278290 668.883911,289.185425 
	C667.338318,295.384216 667.545471,302.381836 668.569580,308.761810 
	C669.679932,315.678955 676.367493,319.691284 683.221313,318.621796 
	C686.358276,318.132324 689.303528,316.414124 692.335693,315.253174 
	C694.647034,316.716919 697.628845,318.228699 699.822205,317.467773 
	C701.507202,316.883270 702.951660,313.510895 703.176941,311.246429 
	C703.652161,306.467682 703.258179,301.602539 703.225647,295.880463 
M640.646362,299.083496 
	C637.803772,296.723572 635.223022,293.891388 632.047791,292.131622 
	C628.616089,290.229767 624.459290,289.668396 620.931885,287.898254 
	C617.349243,286.100342 616.567993,282.185181 618.830322,279.464233 
	C620.192932,277.825500 624.093811,277.528351 626.633240,277.952087 
	C627.960815,278.173553 629.081726,281.151459 629.816467,283.068237 
	C631.049622,286.285614 633.224854,287.494141 636.433411,286.794128 
	C639.818604,286.055542 640.842712,283.598938 640.554077,280.402252 
	C640.061829,274.949463 636.795532,270.388733 631.325012,269.298065 
	C626.860168,268.407837 622.039368,268.104980 617.554871,268.761139 
	C608.338684,270.109680 604.307983,276.372772 605.739868,285.587036 
	C606.478088,290.337463 609.263184,293.353455 613.516479,295.168640 
	C617.328369,296.795380 621.408569,297.944672 624.920349,300.053894 
	C626.479187,300.990082 627.984070,304.041962 627.574097,305.634064 
	C627.199402,307.089203 624.052307,308.940125 622.407410,308.699463 
	C619.913269,308.334595 617.395752,306.624634 615.371216,304.914307 
	C612.502380,302.490662 609.609924,302.163544 606.736450,304.147675 
	C603.653320,306.276520 604.631042,309.522552 606.420837,311.643951 
	C608.464661,314.066467 611.196960,316.622772 614.100830,317.432129 
	C618.136169,318.556793 622.674255,318.692871 626.882690,318.224579 
	C638.182495,316.967133 642.318420,311.240631 640.646362,299.083496 
M514.152161,309.899017 
	C517.892273,320.722839 527.684631,321.965271 536.638855,312.752075 
	C539.014282,317.246002 541.204590,318.698425 544.527649,317.835083 
	C548.705627,316.749603 548.293640,313.269196 548.329285,310.143860 
	C548.420471,302.150726 548.414795,294.156464 548.455688,286.162720 
	C548.476807,282.033142 547.374695,278.874084 542.408142,278.834991 
	C537.867065,278.799255 536.139832,280.772797 536.044373,286.335388 
	C535.949951,291.828156 536.389832,297.392517 535.601440,302.780060 
	C535.290100,304.907257 532.497253,307.946411 530.472595,308.263916 
	C527.001221,308.808289 526.104675,305.389954 526.063049,302.372925 
	C525.987244,296.878296 526.115845,291.380981 526.047180,285.886139 
	C525.982971,280.745850 524.186951,278.837982 519.775513,278.842682 
	C515.226135,278.847504 513.655823,281.463318 513.713745,285.585114 
	C513.823730,293.409668 513.925842,301.234344 514.152161,309.899017 
M463.312103,269.895172 
	C456.813538,267.863983 454.487885,269.517242 453.766907,276.174927 
	C453.251221,280.936859 452.510529,285.708038 451.353088,290.346039 
	C451.011871,291.713470 448.896057,293.538483 447.615479,293.521240 
	C446.298309,293.503479 444.693695,291.693268 443.796661,290.294312 
	C442.944580,288.965546 442.670166,287.177948 442.449249,285.550385 
	C441.913269,281.602234 441.763031,277.593628 441.077698,273.675781 
	C440.096802,268.067688 435.588623,268.865723 431.644379,268.990570 
	C428.185760,269.099976 426.003113,271.267944 426.739349,274.468201 
	C428.433136,281.830627 429.535858,289.771942 433.239929,296.094940 
	C436.458588,301.589447 440.554443,305.870697 439.624786,313.001465 
	C439.125824,316.828583 442.671600,318.087250 446.223083,317.994598 
	C449.615875,317.906128 452.095306,316.599823 452.296753,312.838684 
	C452.429688,310.356995 452.103668,307.843658 452.333466,305.377106 
	C452.455688,304.065399 452.959167,302.310974 453.913483,301.632111 
	C460.417419,297.005676 462.873016,290.187836 463.960358,282.857178 
	C464.565643,278.776459 463.993652,274.521088 463.312103,269.895172 
M718.178772,316.503876 
	C721.396973,317.248230 724.733032,318.915466 727.806152,318.523285 
	C732.560669,317.916504 737.353638,316.343964 741.654175,314.217865 
	C742.947876,313.578339 742.659546,309.738770 743.096008,307.365143 
	C740.498596,307.320618 737.898682,307.203827 735.305908,307.293579 
	C734.798523,307.311127 734.366211,308.442200 733.818420,308.525116 
	C730.846313,308.974884 727.413330,310.288483 724.998657,309.268829 
	C723.082642,308.459686 722.402893,304.722687 720.683105,301.311554 
	C726.143005,301.311554 729.937378,301.311584 733.731689,301.311584 
	C737.486084,301.311584 741.240540,301.311554 745.130310,301.311554 
	C745.130310,298.027832 745.306946,295.525146 745.096313,293.055481 
	C744.525146,286.358673 741.534241,281.144073 734.809814,279.181335 
	C727.415222,277.022980 720.226624,277.449707 714.319763,283.207764 
	C707.568115,289.789246 708.203796,311.987915 718.178772,316.503876 
M484.320801,318.372955 
	C495.905457,320.018768 503.766235,316.309967 505.738678,307.335602 
	C506.814575,302.440277 506.976135,297.067017 506.231262,292.107361 
	C504.776581,282.421326 498.765442,277.992310 488.820007,278.076080 
	C478.968292,278.159058 472.896118,282.802917 471.465851,292.354675 
	C470.793213,296.846680 471.135773,301.635803 471.856537,306.156677 
	C472.888672,312.630737 476.906464,316.805420 484.320801,318.372955 
M440.522064,762.890564 
	C444.730164,761.619080 449.835327,762.599915 453.578156,757.569519 
	C451.082886,756.935852 449.201477,755.914001 447.452026,756.104492 
	C437.979767,757.135803 428.603149,758.985840 420.676544,764.574402 
	C418.288147,766.258240 417.194214,769.778137 415.507294,772.456970 
	C418.075409,774.000061 420.463104,776.216187 423.244995,776.961914 
	C432.139038,779.346252 441.179230,781.185425 451.401794,783.517639 
	C449.160217,785.822632 447.999420,787.869202 446.270416,788.638123 
	C440.548645,791.182739 434.748505,793.723633 428.735535,795.388672 
	C423.523651,796.831970 418.479828,795.892639 416.112061,789.877930 
	C411.905243,793.319885 411.971832,794.794800 416.157806,797.229858 
	C425.708832,802.785889 448.976868,797.361267 455.374084,788.087036 
	C458.248657,783.919678 457.292511,781.092468 452.451447,779.702515 
	C442.609924,776.876648 432.753632,774.102295 422.903381,771.306702 
	C422.684875,770.832581 422.466339,770.358459 422.247833,769.884399 
	C424.321960,768.373840 426.198395,766.311768 428.516205,765.480774 
	C432.076508,764.204346 435.940216,763.773926 440.522064,762.890564 
M556.742615,307.525543 
	C556.733337,308.357300 556.704285,309.189392 556.718018,310.020752 
	C556.812683,315.764069 558.406433,317.901062 562.630371,317.966705 
	C567.027283,318.035065 568.798889,315.684906 568.804565,309.726410 
	C568.808228,305.900421 568.634399,302.068268 568.798218,298.249939 
	C569.019226,293.099609 571.633301,290.672272 576.783325,291.043640 
	C579.604919,291.247101 582.327026,290.901459 582.566467,287.933197 
	C582.797363,285.070679 582.406128,281.415375 580.729553,279.413879 
	C579.686890,278.169037 575.476807,278.704773 573.197754,279.658569 
	C571.529785,280.356567 570.690735,283.035065 569.482239,284.830780 
	C567.825806,279.564606 565.171570,278.540680 561.561584,278.868347 
	C557.662476,279.222321 556.741699,281.890900 556.733398,285.186981 
	C556.715393,292.340149 556.743835,299.493439 556.742615,307.525543 
M654.745972,789.025635 
	C654.083069,790.356140 653.420166,791.686584 652.673523,793.185059 
	C646.570251,785.540833 640.601013,778.064514 634.732971,770.715027 
	C631.222717,772.234680 630.789917,773.950745 632.534851,776.406006 
	C637.543640,783.453857 642.267578,790.720032 647.582825,797.526001 
	C649.643677,800.164795 649.815674,802.154602 648.790833,805.096680 
	C646.280151,812.304688 644.052063,819.614868 641.897217,826.938904 
	C641.602905,827.939331 642.376343,829.253906 642.655457,830.423096 
	C643.742615,829.852478 644.987061,829.454895 645.866272,828.655518 
	C646.546387,828.037109 646.836731,826.941040 647.185425,826.014099 
	C654.144226,807.513367 661.121216,789.019165 667.951477,770.470947 
	C668.393616,769.270447 667.680359,767.644470 667.504578,766.216431 
	C666.150879,767.016846 664.114807,767.494019 663.556885,768.671570 
	C660.500732,775.121826 657.807190,781.743958 654.745972,789.025635 
M584.468079,793.239380 
	C581.041565,793.768982 577.598755,794.802612 574.192871,794.692749 
	C570.456238,794.572266 567.131287,792.386536 567.109924,788.323669 
	C567.090149,784.558350 570.478577,783.324158 573.778992,782.819885 
	C575.412659,782.570251 577.091248,782.505798 578.746826,782.531311 
	C581.909912,782.580017 585.075623,782.917358 588.231750,782.829346 
	C591.529480,782.737366 594.574890,781.887390 595.612854,778.119629 
	C596.689026,774.213135 594.589722,771.794434 591.637146,769.801697 
	C583.461304,764.283813 574.122253,765.237305 567.122864,772.300781 
	C561.346252,778.130249 558.966248,787.810120 561.946594,793.353577 
	C564.852173,798.757996 572.330444,801.513062 581.022949,799.851013 
	C587.335205,798.644165 593.428955,796.664795 596.984924,790.785156 
	C596.771973,790.238281 596.559021,789.691406 596.346069,789.144531 
	C592.645386,790.437683 588.944702,791.730774 584.468079,793.239380 
M533.371399,792.000854 
	C527.897766,793.097412 522.438293,794.876282 516.944336,794.989990 
	C514.368286,795.043335 510.688416,792.458435 509.358368,790.048340 
	C507.402222,786.503784 508.649811,782.270142 512.405579,780.046936 
	C516.794861,777.448608 521.417786,775.045349 526.235718,773.455078 
	C528.651245,772.657654 531.724304,773.852417 534.500000,774.146240 
	C534.820496,774.688965 535.140991,775.231628 535.461487,775.774292 
	C535.962708,773.926697 537.143555,771.905701 536.731628,770.291138 
	C536.446533,769.173706 534.005737,768.013794 532.456421,767.906067 
	C521.072815,767.114685 511.982147,771.789246 505.329468,780.757202 
	C500.082214,787.830688 502.558228,795.563293 510.785492,798.353882 
	C522.736511,802.407593 533.633179,797.937073 544.383911,793.348083 
	C545.175964,793.010071 545.479736,791.528259 546.010559,790.578308 
	C544.893860,790.092896 543.662720,789.034241 542.682007,789.229980 
	C539.776855,789.809814 536.970520,790.884460 533.371399,792.000854 
M499.823608,784.018921 
	C500.327026,775.335083 497.980774,771.087524 491.266968,768.527954 
	C482.543579,765.202393 468.703186,770.850891 464.763611,779.344543 
	C461.254395,786.910278 463.743378,796.231873 469.975250,798.862610 
	C481.502655,803.728760 496.076904,796.847839 499.823608,784.018921 
M660.399414,303.421570 
	C660.379700,296.947235 660.462769,290.470276 660.297913,283.999634 
	C660.212280,280.634247 658.149475,278.967743 654.790222,278.858612 
	C651.294922,278.745087 648.653748,280.155273 648.600830,283.796234 
	C648.458618,293.583008 648.576050,303.377930 648.822815,313.163727 
	C648.910400,316.637726 651.487549,317.967133 654.667419,317.929535 
	C657.922913,317.891113 660.055359,316.319977 660.228516,312.855042 
	C660.369263,310.037964 660.348389,307.212860 660.399414,303.421570 
M611.500732,761.620117 
	C611.500732,764.901611 611.500732,768.183105 611.500732,771.888428 
	C607.569275,771.888428 604.302795,771.888428 600.726379,771.888428 
	C600.876160,773.774780 600.989685,775.204712 601.131042,776.985168 
	C604.844849,776.985168 608.268494,776.985168 612.455566,776.985168 
	C612.455566,779.795288 612.417969,782.239258 612.464050,784.681519 
	C612.542297,788.827515 612.489868,792.988281 612.845886,797.112366 
	C613.086670,799.901733 614.490662,801.796082 618.272095,800.432129 
	C618.272095,792.237244 618.272095,784.034729 618.272095,775.585449 
	C621.851746,775.585449 624.953491,775.585449 628.340454,775.585449 
	C628.340454,773.929016 628.340454,772.536011 628.340454,770.897583 
	C624.858093,770.897583 621.574280,770.897583 617.986572,770.897583 
	C617.610229,765.237976 617.399963,759.776489 616.770264,754.363831 
	C616.628113,753.142029 615.025146,752.090210 614.094604,750.960144 
	C613.234863,752.197815 611.931458,753.334900 611.622620,754.697449 
	C611.192139,756.596375 611.505737,758.663818 611.500732,761.620117 
M558.105835,792.754822 
	C557.739502,785.129517 557.230225,777.507141 557.068909,769.877502 
	C556.991821,766.230713 555.808960,765.053711 552.077820,766.708008 
	C552.077820,776.534546 551.991638,786.473267 552.204285,796.405579 
	C552.226807,797.456299 554.054993,799.335205 554.953491,799.281799 
	C556.083984,799.214539 557.345215,797.699707 558.110596,796.523499 
	C558.559326,795.833923 558.153259,794.588135 558.105835,792.754822 
M661.676758,268.289673 
	C660.733948,262.377869 654.555664,259.515656 649.500977,262.648956 
	C646.290955,264.638763 646.089050,270.374573 649.151123,272.586517 
	C653.166260,275.486938 659.451721,273.688538 661.676758,268.289673 
z"/>
<path fill="#010202" opacity="1.000000" stroke="none" 
	d="
M360.030762,505.186218 
	C354.311005,512.994019 355.243347,521.312195 357.248962,529.497070 
	C361.487274,546.793457 365.874512,564.060242 370.613708,581.225159 
	C375.657959,599.494934 388.604340,611.276917 404.601624,619.879944 
	C434.819275,636.130371 467.361389,646.583191 499.804901,657.247009 
	C509.757294,660.518250 519.799683,663.650330 528.097351,670.564087 
	C536.084167,677.218994 537.696655,686.869263 532.274414,697.146545 
	C527.828430,705.573425 519.367676,709.395081 509.900574,706.222046 
	C483.379150,697.333008 457.037048,687.909424 430.522919,678.998108 
	C413.365540,673.231628 396.744141,665.637756 378.486572,663.476257 
	C361.837219,661.505066 345.585480,663.386963 329.687195,668.371948 
	C320.477325,671.259827 311.262024,674.251404 302.337769,677.901733 
	C287.467377,683.984314 273.455383,681.752625 260.232788,673.910583 
	C223.998795,652.421021 207.482895,619.375793 205.459579,578.251953 
	C204.827271,565.400635 210.523788,555.439941 221.018585,548.177063 
	C229.097137,542.586426 237.886185,537.813354 245.185623,531.351074 
	C258.849304,519.254517 272.346100,506.824646 284.671783,493.394867 
	C304.172211,472.147614 324.085571,451.420197 346.334564,433.025299 
	C354.794006,426.031281 363.236176,419.015656 371.745361,412.082520 
	C384.165100,401.963074 398.177094,394.687592 413.402435,389.951843 
	C429.606354,384.911743 445.983612,380.428345 462.289856,375.717957 
	C469.144379,373.737854 474.654694,375.146942 479.752228,380.719391 
	C494.917999,397.298035 510.509338,413.487854 525.963928,429.801666 
	C533.589600,437.851318 536.236694,447.606018 535.194580,458.313660 
	C534.421936,466.251740 532.815186,474.108521 531.581970,482.001862 
	C529.525879,495.161377 520.951172,497.410339 509.962860,495.857330 
	C500.734528,494.553040 494.822662,485.059387 496.410858,475.162689 
	C497.069672,471.057190 498.196381,466.958496 498.244995,462.846497 
	C498.279388,459.936798 497.730621,456.232330 495.938354,454.226135 
	C488.408173,445.797272 480.479584,437.701843 472.375824,429.814209 
	C464.352112,422.004486 454.682526,420.134399 444.212982,423.956970 
	C438.150299,426.170471 432.418671,429.275940 426.406525,431.646515 
	C419.814819,434.245667 413.027893,436.347992 406.421204,438.912048 
	C404.411560,439.692047 402.095612,440.872955 400.973267,442.567810 
	C387.272003,463.257355 373.767181,484.076996 360.030762,505.186218 
z"/>
<path fill="#010202" opacity="1.000000" stroke="none" 
	d="
M668.490417,624.639893 
	C682.288940,618.214600 694.222778,610.065430 703.307373,597.997375 
	C708.990295,590.448181 711.745178,581.818054 713.946533,572.912415 
	C718.056335,556.286438 722.069946,539.636047 725.990601,522.964539 
	C727.439453,516.803772 725.913818,510.997284 722.542053,505.808960 
	C708.749817,484.585236 694.879333,463.411774 680.897827,442.312500 
	C679.790588,440.641571 677.797791,439.193878 675.900635,438.468353 
	C662.688293,433.415466 649.379700,428.615082 636.127808,423.664520 
	C626.706787,420.144989 617.939148,422.286011 610.968140,428.571442 
	C601.975220,436.679962 594.078857,445.999298 585.630188,454.719635 
	C582.626160,457.820282 583.235657,461.331268 583.802368,465.017059 
	C584.828247,471.689270 587.152100,478.263153 584.509155,485.162445 
	C581.380981,493.328522 575.789246,496.648529 564.946106,496.192139 
	C557.290649,495.869873 552.558228,492.091248 550.877930,483.828064 
	C549.089905,475.034607 547.521423,466.141724 546.729614,457.214874 
	C545.812683,446.878479 548.733154,437.515411 556.075378,429.724976 
	C571.483337,413.376587 586.800659,396.942444 602.095825,380.488312 
	C606.858154,375.365082 612.246033,373.514008 619.156067,375.678833 
	C639.625610,382.091736 660.292114,387.900696 680.634521,394.686462 
	C696.523987,399.986725 709.546997,410.310120 721.969238,421.231171 
	C737.456482,434.846893 753.162415,448.254852 768.002319,462.553375 
	C780.805786,474.889832 792.741699,488.155334 804.675842,501.358307 
	C820.082336,518.402771 837.157898,533.333557 856.930786,545.128906 
	C872.512573,554.424072 878.896301,568.148315 876.222229,586.087219 
	C875.633118,590.039612 875.165466,594.017334 874.389832,597.933472 
	C868.139404,629.494751 852.351807,654.769165 824.942505,672.221497 
	C810.346985,681.514893 795.251709,683.970154 778.359741,677.634155 
	C763.152100,671.929932 747.439514,666.956055 731.518555,663.924255 
	C711.320129,660.077881 691.613037,664.479736 672.321106,671.519958 
	C640.097717,683.279419 607.619812,694.343262 575.221924,705.622070 
	C557.448242,711.809692 546.567871,699.026306 546.587585,684.193054 
	C546.595032,678.580078 549.185730,673.905701 553.668274,671.079590 
	C560.373657,666.851990 567.318054,662.675110 574.696594,659.902161 
	C601.804810,649.714417 629.150269,640.159424 656.362366,630.245056 
	C660.416199,628.768066 664.233398,626.641418 668.490417,624.639893 
z"/>
<path fill="#03090C" opacity="1.000000" stroke="none" 
	d="
M465.534393,471.456360 
	C458.239716,466.469910 451.408539,461.422241 444.184601,457.018982 
	C436.688110,452.449707 428.260406,451.723236 419.638214,452.614471 
	C418.404633,452.741974 417.114777,452.325378 415.850983,452.160583 
	C415.726379,451.607697 415.601807,451.054840 415.477234,450.501953 
	C418.299072,449.020844 420.969574,446.985962 423.971924,446.165192 
	C432.122040,443.937134 440.415833,442.236511 448.646881,440.302124 
	C455.478455,438.696594 461.377594,439.701355 466.180206,445.467102 
	C470.427521,450.566223 475.380157,455.086487 479.512299,460.268280 
	C480.922821,462.037140 481.496490,465.115753 481.242279,467.464996 
	C479.648102,482.197235 481.343750,495.711365 493.651642,505.930145 
	C494.509308,506.642273 494.836609,507.993195 495.410522,509.047058 
	C494.306946,509.605164 493.254944,510.486084 492.091949,510.671875 
	C479.496063,512.683777 470.477539,501.605042 471.589355,491.635284 
	C471.935394,488.532257 471.244202,485.327637 471.349548,482.180298 
	C471.504395,477.553345 469.544006,474.191040 465.534393,471.456360 
z"/>
<path fill="#03090C" opacity="1.000000" stroke="none" 
	d="
M600.584351,508.590332 
	C594.360229,511.330414 591.156067,511.332306 586.989319,508.599487 
	C587.339600,507.942291 587.538818,507.060638 588.090210,506.608704 
	C600.242676,496.647858 602.915100,483.477386 600.628479,468.820740 
	C600.004822,464.823334 600.553650,461.793976 603.470459,458.883118 
	C607.939270,454.423431 612.212830,449.752014 616.348572,444.979279 
	C620.652527,440.012451 626.126831,438.412506 632.129578,439.971130 
	C642.258179,442.601105 652.233093,445.828705 662.242676,448.902679 
	C663.360046,449.245789 664.282898,450.222168 665.295898,450.904877 
	C665.191895,451.368988 665.087891,451.833099 664.983887,452.297211 
	C663.308655,452.297211 661.622864,452.419800 659.959961,452.276611 
	C651.374207,451.537262 643.894226,455.115540 635.903931,457.394135 
	C625.690125,460.306793 621.080688,469.025726 613.557312,474.562073 
	C611.692078,475.934662 610.900940,479.325745 610.461060,481.931580 
	C609.941467,485.010071 610.360596,488.243500 610.333740,491.409424 
	C610.271362,498.777466 607.439331,504.624146 600.584351,508.590332 
z"/>
<path fill="#010406" opacity="1.000000" stroke="none" 
	d="
M358.769135,308.528351 
	C355.776184,315.045380 350.438782,317.417419 344.163330,317.825958 
	C338.699890,318.181610 333.198944,317.969727 327.714539,317.993103 
	C323.653625,318.010437 321.373993,315.867645 321.363678,311.917175 
	C321.331207,299.454315 321.306763,286.983124 321.800964,274.535889 
	C321.876587,272.630524 324.607208,269.361420 326.285828,269.244293 
	C333.381714,268.749176 340.569763,268.879486 347.673004,269.434784 
	C352.227295,269.790802 356.685913,271.575836 357.897308,276.762360 
	C359.156403,282.153168 357.885651,287.000183 353.299316,290.588379 
	C352.658844,291.089447 351.969879,291.528595 351.694366,291.721985 
	C354.115387,293.991486 357.388397,295.799500 358.566162,298.515930 
	C359.758270,301.265503 358.877258,304.913910 358.769135,308.528351 
M344.074524,296.225891 
	C340.896637,295.745972 337.718750,295.266022 334.285400,294.747528 
	C334.285400,300.139740 334.285400,304.677734 334.285400,309.417725 
	C339.088409,309.630707 343.885468,310.236908 346.525665,305.587036 
	C348.245880,302.557373 347.960144,299.130981 344.074524,296.225891 
M333.984619,286.962799 
	C336.995758,290.635376 340.421600,288.305573 342.977783,286.811005 
	C344.495331,285.923706 345.905762,282.179352 345.226593,280.703156 
	C343.067657,276.010864 338.435181,277.427094 333.965485,277.341187 
	C333.965485,280.509308 333.965485,283.296783 333.984619,286.962799 
z"/>
<path fill="#020507" opacity="1.000000" stroke="none" 
	d="
M380.452942,324.904236 
	C388.675323,323.024017 391.126923,319.680176 390.714783,312.479614 
	C387.893250,314.321991 384.947601,317.209259 381.437714,318.330811 
	C374.728058,320.474884 368.598450,316.748718 367.889343,309.787933 
	C367.016724,301.222717 367.188721,292.530640 367.281067,283.897400 
	C367.319214,280.328400 369.936890,278.806427 373.444916,278.821228 
	C377.003052,278.836212 379.315735,280.473450 379.456299,284.063019 
	C379.670929,289.543915 379.423126,295.041321 379.539246,300.528198 
	C379.605988,303.684052 379.553741,307.490906 383.870880,307.714142 
	C388.259064,307.941010 389.218750,304.382263 389.368439,300.857025 
	C389.601318,295.374268 389.554504,289.880280 389.702972,284.393097 
	C389.800690,280.782196 391.734924,278.948669 395.364807,278.839813 
	C399.070343,278.728699 401.845856,280.222229 401.849304,284.090332 
	C401.859009,295.058655 402.315216,306.120056 401.080872,316.972504 
	C399.510712,330.776672 388.641479,337.933533 374.885284,335.701477 
	C371.349731,335.127838 368.816528,333.556152 369.083832,329.590363 
	C369.350830,325.628265 372.286102,324.995758 375.535065,324.988342 
	C377.032837,324.984894 378.530579,324.957306 380.452942,324.904236 
z"/>
<path fill="#010406" opacity="1.000000" stroke="none" 
	d="
M703.223267,296.326660 
	C703.258179,301.602539 703.652161,306.467682 703.176941,311.246429 
	C702.951660,313.510895 701.507202,316.883270 699.822205,317.467773 
	C697.628845,318.228699 694.647034,316.716919 692.335693,315.253174 
	C689.303528,316.414124 686.358276,318.132324 683.221313,318.621796 
	C676.367493,319.691284 669.679932,315.678955 668.569580,308.761810 
	C667.545471,302.381836 667.338318,295.384216 668.883911,289.185425 
	C671.603577,278.278290 681.218750,275.401611 691.010132,282.097046 
	C691.010132,278.671448 690.998230,275.614197 691.013000,272.557037 
	C691.032654,268.491241 693.175659,266.309479 697.151855,266.254181 
	C701.136475,266.198730 703.399780,268.322906 703.398499,272.399109 
	C703.395996,280.226227 703.289185,288.053345 703.223267,296.326660 
M682.572327,308.085968 
	C689.358521,309.680328 690.930359,308.476593 691.013733,301.605499 
	C691.045959,298.945648 691.553162,296.161255 690.926086,293.664154 
	C690.409058,291.605377 688.677002,288.481415 687.235168,288.338776 
	C684.935425,288.111237 681.562805,289.297577 680.186829,291.078278 
	C677.091736,295.083801 678.389893,303.671356 682.572327,308.085968 
z"/>
<path fill="#010507" opacity="1.000000" stroke="none" 
	d="
M640.768494,299.442200 
	C642.318420,311.240631 638.182495,316.967133 626.882690,318.224579 
	C622.674255,318.692871 618.136169,318.556793 614.100830,317.432129 
	C611.196960,316.622772 608.464661,314.066467 606.420837,311.643951 
	C604.631042,309.522552 603.653320,306.276520 606.736450,304.147675 
	C609.609924,302.163544 612.502380,302.490662 615.371216,304.914307 
	C617.395752,306.624634 619.913269,308.334595 622.407410,308.699463 
	C624.052307,308.940125 627.199402,307.089203 627.574097,305.634064 
	C627.984070,304.041962 626.479187,300.990082 624.920349,300.053894 
	C621.408569,297.944672 617.328369,296.795380 613.516479,295.168640 
	C609.263184,293.353455 606.478088,290.337463 605.739868,285.587036 
	C604.307983,276.372772 608.338684,270.109680 617.554871,268.761139 
	C622.039368,268.104980 626.860168,268.407837 631.325012,269.298065 
	C636.795532,270.388733 640.061829,274.949463 640.554077,280.402252 
	C640.842712,283.598938 639.818604,286.055542 636.433411,286.794128 
	C633.224854,287.494141 631.049622,286.285614 629.816467,283.068237 
	C629.081726,281.151459 627.960815,278.173553 626.633240,277.952087 
	C624.093811,277.528351 620.192932,277.825500 618.830322,279.464233 
	C616.567993,282.185181 617.349243,286.100342 620.931885,287.898254 
	C624.459290,289.668396 628.616089,290.229767 632.047791,292.131622 
	C635.223022,293.891388 637.803772,296.723572 640.768494,299.442200 
z"/>
<path fill="#010304" opacity="1.000000" stroke="none" 
	d="
M514.091675,309.479004 
	C513.925842,301.234344 513.823730,293.409668 513.713745,285.585114 
	C513.655823,281.463318 515.226135,278.847504 519.775513,278.842682 
	C524.186951,278.837982 525.982971,280.745850 526.047180,285.886139 
	C526.115845,291.380981 525.987244,296.878296 526.063049,302.372925 
	C526.104675,305.389954 527.001221,308.808289 530.472595,308.263916 
	C532.497253,307.946411 535.290100,304.907257 535.601440,302.780060 
	C536.389832,297.392517 535.949951,291.828156 536.044373,286.335388 
	C536.139832,280.772797 537.867065,278.799255 542.408142,278.834991 
	C547.374695,278.874084 548.476807,282.033142 548.455688,286.162720 
	C548.414795,294.156464 548.420471,302.150726 548.329285,310.143860 
	C548.293640,313.269196 548.705627,316.749603 544.527649,317.835083 
	C541.204590,318.698425 539.014282,317.246002 536.638855,312.752075 
	C527.684631,321.965271 517.892273,320.722839 514.091675,309.479004 
z"/>
<path fill="#010406" opacity="1.000000" stroke="none" 
	d="
M463.632172,270.119812 
	C463.993652,274.521088 464.565643,278.776459 463.960358,282.857178 
	C462.873016,290.187836 460.417419,297.005676 453.913483,301.632111 
	C452.959167,302.310974 452.455688,304.065399 452.333466,305.377106 
	C452.103668,307.843658 452.429688,310.356995 452.296753,312.838684 
	C452.095306,316.599823 449.615875,317.906128 446.223083,317.994598 
	C442.671600,318.087250 439.125824,316.828583 439.624786,313.001465 
	C440.554443,305.870697 436.458588,301.589447 433.239929,296.094940 
	C429.535858,289.771942 428.433136,281.830627 426.739349,274.468201 
	C426.003113,271.267944 428.185760,269.099976 431.644379,268.990570 
	C435.588623,268.865723 440.096802,268.067688 441.077698,273.675781 
	C441.763031,277.593628 441.913269,281.602234 442.449249,285.550385 
	C442.670166,287.177948 442.944580,288.965546 443.796661,290.294312 
	C444.693695,291.693268 446.298309,293.503479 447.615479,293.521240 
	C448.896057,293.538483 451.011871,291.713470 451.353088,290.346039 
	C452.510529,285.708038 453.251221,280.936859 453.766907,276.174927 
	C454.487885,269.517242 456.813538,267.863983 463.632172,270.119812 
z"/>
<path fill="#010406" opacity="1.000000" stroke="none" 
	d="
M717.852661,316.316681 
	C708.203796,311.987915 707.568115,289.789246 714.319763,283.207764 
	C720.226624,277.449707 727.415222,277.022980 734.809814,279.181335 
	C741.534241,281.144073 744.525146,286.358673 745.096313,293.055481 
	C745.306946,295.525146 745.130310,298.027832 745.130310,301.311554 
	C741.240540,301.311554 737.486084,301.311584 733.731689,301.311584 
	C729.937378,301.311584 726.143005,301.311554 720.683105,301.311554 
	C722.402893,304.722687 723.082642,308.459686 724.998657,309.268829 
	C727.413330,310.288483 730.846313,308.974884 733.818420,308.525116 
	C734.366211,308.442200 734.798523,307.311127 735.305908,307.293579 
	C737.898682,307.203827 740.498596,307.320618 743.096008,307.365143 
	C742.659546,309.738770 742.947876,313.578339 741.654175,314.217865 
	C737.353638,316.343964 732.560669,317.916504 727.806152,318.523285 
	C724.733032,318.915466 721.396973,317.248230 717.852661,316.316681 
M721.844360,291.862122 
	C722.549316,292.842255 723.165649,294.572113 723.975220,294.667816 
	C726.882263,295.011322 729.854553,294.802551 732.844116,294.802551 
	C733.401184,290.712006 732.979858,287.402435 728.917297,286.374451 
	C725.227051,285.440643 722.928955,287.446381 721.844360,291.862122 
z"/>
<path fill="#010406" opacity="1.000000" stroke="none" 
	d="
M483.918152,318.270081 
	C476.906464,316.805420 472.888672,312.630737 471.856537,306.156677 
	C471.135773,301.635803 470.793213,296.846680 471.465851,292.354675 
	C472.896118,282.802917 478.968292,278.159058 488.820007,278.076080 
	C498.765442,277.992310 504.776581,282.421326 506.231262,292.107361 
	C506.976135,297.067017 506.814575,302.440277 505.738678,307.335602 
	C503.766235,316.309967 495.905457,320.018768 483.918152,318.270081 
M493.966095,306.135468 
	C494.071472,301.372894 494.667542,296.544312 494.040039,291.880310 
	C493.789917,290.021027 490.870544,287.265320 489.102814,287.216553 
	C487.312073,287.167114 484.159851,289.745026 483.861237,291.546387 
	C483.119629,296.020050 483.265839,300.762329 483.893280,305.280365 
	C484.136322,307.030396 486.466553,309.470032 488.159607,309.759216 
	C489.798981,310.039276 491.841370,307.960358 493.966095,306.135468 
z"/>
<path fill="#03090C" opacity="1.000000" stroke="none" 
	d="
M440.098633,762.937500 
	C435.940216,763.773926 432.076508,764.204346 428.516205,765.480774 
	C426.198395,766.311768 424.321960,768.373840 422.247833,769.884399 
	C422.466339,770.358459 422.684875,770.832581 422.903381,771.306702 
	C432.753632,774.102295 442.609924,776.876648 452.451447,779.702515 
	C457.292511,781.092468 458.248657,783.919678 455.374084,788.087036 
	C448.976868,797.361267 425.708832,802.785889 416.157806,797.229858 
	C411.971832,794.794800 411.905243,793.319885 416.112061,789.877930 
	C418.479828,795.892639 423.523651,796.831970 428.735535,795.388672 
	C434.748505,793.723633 440.548645,791.182739 446.270416,788.638123 
	C447.999420,787.869202 449.160217,785.822632 451.401794,783.517639 
	C441.179230,781.185425 432.139038,779.346252 423.244995,776.961914 
	C420.463104,776.216187 418.075409,774.000061 415.507324,772.456970 
	C417.194214,769.778137 418.288147,766.258240 420.676544,764.574402 
	C428.603149,758.985840 437.979767,757.135803 447.452026,756.104492 
	C449.201477,755.914001 451.082886,756.935852 453.578156,757.569519 
	C449.835327,762.599915 444.730164,761.619080 440.098633,762.937500 
z"/>
<path fill="#010406" opacity="1.000000" stroke="none" 
	d="
M556.747925,307.086121 
	C556.743835,299.493439 556.715393,292.340149 556.733398,285.186981 
	C556.741699,281.890900 557.662476,279.222321 561.561584,278.868347 
	C565.171570,278.540680 567.825806,279.564606 569.482239,284.830780 
	C570.690735,283.035065 571.529785,280.356567 573.197754,279.658569 
	C575.476807,278.704773 579.686890,278.169037 580.729553,279.413879 
	C582.406128,281.415375 582.797363,285.070679 582.566467,287.933197 
	C582.327026,290.901459 579.604919,291.247101 576.783325,291.043640 
	C571.633301,290.672272 569.019226,293.099609 568.798218,298.249939 
	C568.634399,302.068268 568.808228,305.900421 568.804565,309.726410 
	C568.798889,315.684906 567.027283,318.035065 562.630371,317.966705 
	C558.406433,317.901062 556.812683,315.764069 556.718018,310.020752 
	C556.704285,309.189392 556.733337,308.357300 556.747925,307.086121 
z"/>
<path fill="#03090C" opacity="1.000000" stroke="none" 
	d="
M654.867493,788.666321 
	C657.807190,781.743958 660.500732,775.121826 663.556885,768.671570 
	C664.114807,767.494019 666.150879,767.016846 667.504578,766.216431 
	C667.680359,767.644470 668.393616,769.270447 667.951477,770.470947 
	C661.121216,789.019165 654.144226,807.513367 647.185425,826.014099 
	C646.836731,826.941040 646.546387,828.037109 645.866272,828.655518 
	C644.987061,829.454895 643.742615,829.852478 642.655457,830.423096 
	C642.376343,829.253906 641.602905,827.939331 641.897217,826.938904 
	C644.052063,819.614868 646.280151,812.304688 648.790833,805.096680 
	C649.815674,802.154602 649.643677,800.164795 647.582825,797.526001 
	C642.267578,790.720032 637.543640,783.453857 632.534851,776.406006 
	C630.789917,773.950745 631.222717,772.234680 634.732971,770.715027 
	C640.601013,778.064514 646.570251,785.540833 652.673523,793.185059 
	C653.420166,791.686584 654.083069,790.356140 654.867493,788.666321 
z"/>
<path fill="#030A0E" opacity="1.000000" stroke="none" 
	d="
M584.856079,793.131653 
	C588.944702,791.730774 592.645386,790.437683 596.346069,789.144531 
	C596.559021,789.691406 596.771973,790.238281 596.984924,790.785156 
	C593.428955,796.664795 587.335205,798.644165 581.022949,799.851013 
	C572.330444,801.513062 564.852173,798.757996 561.946594,793.353577 
	C558.966248,787.810120 561.346252,778.130249 567.122864,772.300781 
	C574.122253,765.237305 583.461304,764.283813 591.637146,769.801697 
	C594.589722,771.794434 596.689026,774.213135 595.612854,778.119629 
	C594.574890,781.887390 591.529480,782.737366 588.231750,782.829346 
	C585.075623,782.917358 581.909912,782.580017 578.746826,782.531311 
	C577.091248,782.505798 575.412659,782.570251 573.778992,782.819885 
	C570.478577,783.324158 567.090149,784.558350 567.109924,788.323669 
	C567.131287,792.386536 570.456238,794.572266 574.192871,794.692749 
	C577.598755,794.802612 581.041565,793.768982 584.856079,793.131653 
M586.635437,777.523438 
	C588.994568,776.671204 592.309753,776.048279 588.904480,772.728271 
	C584.350281,768.287964 572.447205,771.324097 569.902100,777.744934 
	C575.290344,777.744934 580.539001,777.744934 586.635437,777.523438 
z"/>
<path fill="#030A0E" opacity="1.000000" stroke="none" 
	d="
M533.748535,791.883240 
	C536.970520,790.884460 539.776855,789.809814 542.682007,789.229980 
	C543.662720,789.034241 544.893860,790.092896 546.010559,790.578247 
	C545.479736,791.528259 545.175964,793.010071 544.383911,793.348083 
	C533.633179,797.937073 522.736511,802.407593 510.785492,798.353882 
	C502.558228,795.563293 500.082214,787.830688 505.329468,780.757202 
	C511.982147,771.789246 521.072815,767.114685 532.456421,767.906067 
	C534.005737,768.013794 536.446533,769.173706 536.731628,770.291138 
	C537.143555,771.905701 535.962708,773.926697 535.461487,775.774292 
	C535.140991,775.231628 534.820496,774.688965 534.500000,774.146240 
	C531.724304,773.852417 528.651245,772.657654 526.235718,773.455078 
	C521.417786,775.045349 516.794861,777.448608 512.405579,780.046936 
	C508.649811,782.270142 507.402222,786.503784 509.358368,790.048340 
	C510.688416,792.458435 514.368286,795.043335 516.944336,794.989990 
	C522.438293,794.876282 527.897766,793.097412 533.748535,791.883240 
z"/>
<path fill="#030A0F" opacity="1.000000" stroke="none" 
	d="
M499.746307,784.431091 
	C496.076904,796.847839 481.502655,803.728760 469.975250,798.862610 
	C463.743378,796.231873 461.254395,786.910278 464.763611,779.344543 
	C468.703186,770.850891 482.543579,765.202393 491.266968,768.527954 
	C497.980774,771.087524 500.327026,775.335083 499.746307,784.431091 
M478.459015,795.109375 
	C482.429626,794.081909 486.762695,793.736267 490.284393,791.864319 
	C495.335022,789.179749 495.984528,783.976379 495.039490,778.730408 
	C494.359802,774.957642 492.124603,772.412170 488.173706,771.789734 
	C480.061493,770.511597 472.062958,775.487671 469.406158,783.402893 
	C466.630493,791.672302 468.866150,794.882629 478.459015,795.109375 
z"/>
<path fill="#020507" opacity="1.000000" stroke="none" 
	d="
M660.399292,303.906433 
	C660.348389,307.212860 660.369263,310.037964 660.228516,312.855042 
	C660.055359,316.319977 657.922913,317.891113 654.667419,317.929535 
	C651.487549,317.967133 648.910400,316.637726 648.822815,313.163727 
	C648.576050,303.377930 648.458618,293.583008 648.600830,283.796234 
	C648.653748,280.155273 651.294922,278.745087 654.790222,278.858612 
	C658.149475,278.967743 660.212280,280.634247 660.297913,283.999634 
	C660.462769,290.470276 660.379700,296.947235 660.399292,303.906433 
z"/>
<path fill="#03090C" opacity="1.000000" stroke="none" 
	d="
M611.500793,761.139648 
	C611.505737,758.663818 611.192139,756.596375 611.622620,754.697449 
	C611.931458,753.334900 613.234863,752.197815 614.094604,750.960144 
	C615.025146,752.090210 616.628113,753.142029 616.770264,754.363831 
	C617.399963,759.776489 617.610229,765.237976 617.986572,770.897583 
	C621.574280,770.897583 624.858093,770.897583 628.340454,770.897583 
	C628.340454,772.536011 628.340454,773.929016 628.340454,775.585449 
	C624.953491,775.585449 621.851746,775.585449 618.272095,775.585449 
	C618.272095,784.034729 618.272095,792.237244 618.272095,800.432129 
	C614.490662,801.796082 613.086670,799.901733 612.845886,797.112366 
	C612.489868,792.988281 612.542297,788.827515 612.464050,784.681519 
	C612.417969,782.239258 612.455566,779.795288 612.455566,776.985168 
	C608.268494,776.985168 604.844849,776.985168 601.131042,776.985168 
	C600.989685,775.204712 600.876160,773.774780 600.726379,771.888428 
	C604.302795,771.888428 607.569275,771.888428 611.500732,771.888428 
	C611.500732,768.183105 611.500732,764.901611 611.500793,761.139648 
z"/>
<path fill="#030A0F" opacity="1.000000" stroke="none" 
	d="
M558.118774,793.173706 
	C558.153259,794.588135 558.559326,795.833923 558.110596,796.523499 
	C557.345215,797.699707 556.083984,799.214539 554.953491,799.281799 
	C554.054993,799.335205 552.226807,797.456299 552.204285,796.405579 
	C551.991638,786.473267 552.077820,776.534546 552.077820,766.708008 
	C555.808960,765.053711 556.991821,766.230713 557.068909,769.877502 
	C557.230225,777.507141 557.739502,785.129517 558.118774,793.173706 
z"/>
<path fill="#03090C" opacity="1.000000" stroke="none" 
	d="
M661.604736,268.666809 
	C659.451721,273.688538 653.166260,275.486938 649.151123,272.586517 
	C646.089050,270.374573 646.290955,264.638763 649.500977,262.648956 
	C654.555664,259.515656 660.733948,262.377869 661.604736,268.666809 
z"/>
<path fill="#36AFF5" opacity="1.000000" stroke="none" 
	d="
M344.415588,296.453796 
	C347.960144,299.130981 348.245880,302.557373 346.525665,305.587036 
	C343.885468,310.236908 339.088409,309.630707 334.285400,309.417725 
	C334.285400,304.677734 334.285400,300.139740 334.285400,294.747528 
	C337.718750,295.266022 340.896637,295.745972 344.415588,296.453796 
z"/>
<path fill="#35ADF2" opacity="1.000000" stroke="none" 
	d="
M333.975037,286.523499 
	C333.965485,283.296783 333.965485,280.509308 333.965485,277.341187 
	C338.435181,277.427094 343.067657,276.010864 345.226593,280.703156 
	C345.905762,282.179352 344.495331,285.923706 342.977783,286.811005 
	C340.421600,288.305573 336.995758,290.635376 333.975037,286.523499 
z"/>
<path fill="#37B2F9" opacity="1.000000" stroke="none" 
	d="
M682.216309,307.911682 
	C678.389893,303.671356 677.091736,295.083801 680.186829,291.078278 
	C681.562805,289.297577 684.935425,288.111237 687.235168,288.338776 
	C688.677002,288.481415 690.409058,291.605377 690.926086,293.664154 
	C691.553162,296.161255 691.045959,298.945648 691.013733,301.605499 
	C690.930359,308.476593 689.358521,309.680328 682.216309,307.911682 
z"/>
<path fill="#35ADF2" opacity="1.000000" stroke="none" 
	d="
M721.907288,291.446472 
	C722.928955,287.446381 725.227051,285.440643 728.917297,286.374451 
	C732.979858,287.402435 733.401184,290.712006 732.844116,294.802551 
	C729.854553,294.802551 726.882263,295.011322 723.975220,294.667816 
	C723.165649,294.572113 722.549316,292.842255 721.907288,291.446472 
z"/>
<path fill="#36AFF5" opacity="1.000000" stroke="none" 
	d="
M493.836426,306.526489 
	C491.841370,307.960358 489.798981,310.039276 488.159607,309.759216 
	C486.466553,309.470032 484.136322,307.030396 483.893280,305.280365 
	C483.265839,300.762329 483.119629,296.020050 483.861237,291.546387 
	C484.159851,289.745026 487.312073,287.167114 489.102814,287.216553 
	C490.870544,287.265320 493.789917,290.021027 494.040039,291.880310 
	C494.667542,296.544312 494.071472,301.372894 493.836426,306.526489 
z"/>
<path fill="#36AFF5" opacity="1.000000" stroke="none" 
	d="
M586.211548,777.634155 
	C580.539001,777.744934 575.290344,777.744934 569.902100,777.744934 
	C572.447205,771.324097 584.350281,768.287964 588.904480,772.728271 
	C592.309753,776.048279 588.994568,776.671204 586.211548,777.634155 
z"/>
<path fill="#37B3FB" opacity="1.000000" stroke="none" 
	d="
M478.010925,795.112549 
	C468.866150,794.882629 466.630493,791.672302 469.406158,783.402893 
	C472.062958,775.487671 480.061493,770.511597 488.173706,771.789734 
	C492.124603,772.412170 494.359802,774.957642 495.039490,778.730408 
	C495.984528,783.976379 495.335022,789.179749 490.284393,791.864319 
	C486.762695,793.736267 482.429626,794.081909 478.010925,795.112549 
z"/>
</svg>