<?xml version="1.0" encoding="UTF-8"?>
<svg version="1.1" xmlns="http://www.w3.org/2000/svg" width="183" height="103">
<path d="M0 0 C60.39 0 120.78 0 183 0 C183 33.99 183 67.98 183 103 C122.61 103 62.22 103 0 103 C0 69.01 0 35.02 0 0 Z " fill="#E8E8E4" transform="translate(0,0)"/>
<path d="M0 0 C0.47050781 0.97582031 0.94101562 1.95164062 1.42578125 2.95703125 C2.05436539 4.24234508 2.68328952 5.52749267 3.3125 6.8125 C3.7755957 7.77639648 3.7755957 7.77639648 4.24804688 8.75976562 C5.84458693 12.00326278 7.35009293 14.54577837 10 17 C10 17.66 10 18.32 10 19 C10.82757813 19.41378906 10.82757813 19.41378906 11.671875 19.8359375 C15.78125 21.890625 19.890625 23.9453125 24 26 C24.33 24.68 24.66 23.36 25 22 C25.495 24.97 25.495 24.97 26 28 C27.32 28 28.64 28 30 28 C30.33 27.34 30.66 26.68 31 26 C32.51894623 25.35983109 34.06650698 24.78676195 35.625 24.25 C43.96113634 21.0154364 48.97401471 15.93399298 53 8 C54.12347181 5.35600611 55.07579617 2.72396917 56 0 C69.59110694 2.41132542 81.96442198 9.55538888 90 21 C92.57654951 25.88655942 93.33733763 29.4901521 93 35 C88.71 35 84.42 35 80 35 C80 36.98 80 38.96 80 41 C84.95 41 89.9 41 95 41 C94.01 41.99 93.02 42.98 92 44 C91.05125 43.79375 90.1025 43.5875 89.125 43.375 C88.09375 43.25125 87.0625 43.1275 86 43 C83.22930256 45.18731921 83.22930256 45.18731921 81 48 C80 49 79 50 78 51 C78.66 51.66 79.32 52.32 80 53 C79.67 53.33 79.34 53.66 79 54 C79.66 54.33 80.32 54.66 81 55 C81 54.34 81 53.68 81 53 C82.32 52.67 83.64 52.34 85 52 C84.505 52.99 84.505 52.99 84 54 C83.34 54 82.68 54 82 54 C82 54.66 82 55.32 82 56 C79.36 56.33 76.72 56.66 74 57 C74.33 57.66 74.66 58.32 75 59 C71.18243176 60.37432457 67.92744671 59.67975039 64 59 C64 58.34 64 57.68 64 57 C63.34 57 62.68 57 62 57 C62 57.66 62 58.32 62 59 C60.02 58.505 60.02 58.505 58 58 C58.99 57.01 58.99 57.01 60 56 C60.99 56 61.98 56 63 56 C63 55.34 63 54.68 63 54 C61.02 53.505 61.02 53.505 59 53 C59.65226562 52.90203125 60.30453125 52.8040625 60.9765625 52.703125 C66.47066087 51.76313177 70.74504599 50.83983654 75 47 C79.05476207 40.25487447 78.33844191 33.2295751 78.1875 25.5625 C78.17396484 24.25861328 78.16042969 22.95472656 78.14648438 21.61132812 C78.11127334 18.40712378 78.06202094 15.20377895 78 12 C76.02 11.34 74.04 10.68 72 10 C71.98018066 10.85754883 71.96036133 11.71509766 71.93994141 12.59863281 C71.86170479 15.78947642 71.77500657 18.9799474 71.68261719 22.17041016 C71.64440662 23.54955243 71.60953998 24.92879167 71.578125 26.30810547 C71.53230376 28.29416967 71.47333737 30.27991679 71.4140625 32.265625 C71.36693115 34.05661621 71.36693115 34.05661621 71.31884766 35.88378906 C71.01690118 38.83481875 70.60382338 40.54114144 69 43 C66.45730966 44.90701775 65.14400107 45.00587759 61.9375 44.875 C59 44 59 44 57.0625 42.375 C55.50199057 38.88680246 56.00845336 36.63567102 57 33 C59.64711168 30.16380891 62.21730663 29.52537408 66 29 C66 27.02 66 25.04 66 23 C59.31859659 23.56622063 55.44751518 24.42018671 50.6875 29.4375 C48.24533704 34.59317737 48.67314788 39.38903869 49 45 C47.68 45.33 46.36 45.66 45 46 C44.01 44.02 44.01 44.02 43 42 C38.47914629 42.11813019 33.95851786 42.24236976 29.43798828 42.37231445 C27.89962347 42.41566926 26.36121037 42.45734395 24.82275391 42.49731445 C22.6134586 42.55500398 20.40440652 42.61870179 18.1953125 42.68359375 C17.50567413 42.70030624 16.81603577 42.71701874 16.10549927 42.73423767 C12.42885736 42.80806995 12.42885736 42.80806995 9 44 C9 43.01 9 42.02 9 41 C21.54 41 34.08 41 47 41 C47 38.69 47 36.38 47 34 C45.90534424 34.02618408 44.81068848 34.05236816 43.68286133 34.0793457 C39.61096742 34.17003219 35.53916224 34.22731549 31.46655273 34.2746582 C29.70598324 34.29976061 27.94551753 34.33385028 26.18530273 34.37719727 C23.65061821 34.43804115 21.11731425 34.46625113 18.58203125 34.48828125 C17.79850784 34.51408768 17.01498444 34.5398941 16.2077179 34.56648254 C12.00900235 34.56862421 10.49398696 34.40619695 7.1315918 31.64135742 C6.4281665 30.76970947 5.72474121 29.89806152 5 29 C0.50192846 24.39732214 -1.30592979 22.83339033 -7.75 22.625 C-11.7000907 22.65815424 -14.47592133 22.68860424 -17.625 25.1875 C-19.83106594 27.79994651 -21.06699649 29.73448771 -22 33 C-22.66 33 -23.32 33 -24 33 C-24 32.34 -24 31.68 -24 31 C-24.99 31.66 -25.98 32.32 -27 33 C-28.65 33 -30.3 33 -32 33 C-32.66 29.7 -33.32 26.4 -34 23 C-32.88625 22.7525 -32.88625 22.7525 -31.75 22.5 C-28.64473276 21.18096369 -28.64473276 21.18096369 -27.5625 17.5 C-25.51158214 12.86424765 -22.22090739 10.53349996 -18.1875 7.6875 C-17.29816772 7.05714844 -17.29816772 7.05714844 -16.39086914 6.4140625 C-11.22040501 2.8959127 -6.40250348 0 0 0 Z " fill="#F6F6F5" transform="translate(61,28)"/>
<path d="M0 0 C0.66 0 1.32 0 2 0 C2 0.66 2 1.32 2 2 C3.65 2 5.3 2 7 2 C7.33 1.01 7.66 0.02 8 -1 C8.99 -1 9.98 -1 11 -1 C11 -0.34 11 0.32 11 1 C12.11375 1.144375 13.2275 1.28875 14.375 1.4375 C18 2 18 2 20 3 C21.67654729 2.72057545 23.34608154 2.39171753 25 2 C25.99 3.485 25.99 3.485 27 5 C25.68 5.99 24.36 6.98 23 8 C23 7.01 23 6.02 23 5 C22.34 5 21.68 5 21 5 C21.495 6.485 21.495 6.485 22 8 C23.32 8.33 24.64 8.66 26 9 C26 11.97 26 14.94 26 18 C1.25 18 -23.5 18 -49 18 C-48.34 16.35 -47.68 14.7 -47 13 C-47.495 12.67 -47.99 12.34 -48.5 12 C-50.88179561 8.82427253 -50.19168226 5.89753934 -50 2 C-49.34 2 -48.68 2 -48 2 C-48 4.31 -48 6.62 -48 9 C-47.34 8.67 -46.68 8.34 -46 8 C-45.34227572 4.97065509 -45.34227572 4.97065509 -45 2 C-44.34 2 -43.68 2 -43 2 C-43 1.34 -43 0.68 -43 0 C-42.01 0 -41.02 0 -40 0 C-40 0.66 -40 1.32 -40 2 C-37.54066009 1.88630789 -35.0832091 1.75957349 -32.625 1.625 C-31.57699219 1.57859375 -31.57699219 1.57859375 -30.5078125 1.53125 C-26.29814173 1.40500502 -26.29814173 1.40500502 -23 -1 C-22.01 -0.67 -21.02 -0.34 -20 0 C-20.33 0.33 -20.66 0.66 -21 1 C-20.01 1.33 -19.02 1.66 -18 2 C-18 1.34 -18 0.68 -18 0 C-17.34 0 -16.68 0 -16 0 C-16 0.66 -16 1.32 -16 2 C-14.72125 2.020625 -13.4425 2.04125 -12.125 2.0625 C-11.40570313 2.07410156 -10.68640625 2.08570312 -9.9453125 2.09765625 C-7.91814596 2.12649242 -7.91814596 2.12649242 -6 1 C-6.495 0.01 -6.495 0.01 -7 -1 C-3.51418144 -2.2020064 -3.32007656 -2.21338437 0 0 Z " fill="#E4E5E1" transform="translate(141,85)"/>
<path d="M0 0 C4.88169605 2.26650174 7.59625754 5.19251507 10 10 C10.94742987 15.32263972 10.01777172 19.47334242 7 24 C3.41485663 27.53734146 0.57640292 29.94468762 -4.5625 30.125 C-8 30 -8 30 -9 29 C-9.04080783 27.00041636 -9.04254356 24.99954746 -9 23 C-8.36191406 22.79246094 -7.72382812 22.58492187 -7.06640625 22.37109375 C-4.51999398 21.42165142 -2.28568955 20.47519175 0 19 C1.48582895 15.5230496 1.48582895 15.5230496 1 12 C0.212981 9.87870914 0.212981 9.87870914 -2 9 C-4.71906694 8.76449026 -7.25926292 8.86520965 -10 9 C-12.09472585 12.44835358 -12.27564952 15.22800782 -12.34375 19.2265625 C-12.37339844 20.4228125 -12.40304688 21.6190625 -12.43359375 22.8515625 C-12.47800203 25.37499758 -12.52227201 27.89843511 -12.56640625 30.421875 C-12.59605469 31.61554688 -12.62570313 32.80921875 -12.65625 34.0390625 C-12.67494141 35.13428223 -12.69363281 36.22950195 -12.71289062 37.35791016 C-13 40 -13 40 -15 42 C-19.55555556 41.44444444 -19.55555556 41.44444444 -21 40 C-21.2429773 35.95810936 -21.22856277 31.91260009 -21.24023438 27.86401367 C-21.24987885 25.83795147 -21.28085813 23.81293054 -21.3125 21.78710938 C-21.31765625 20.50255859 -21.3228125 19.21800781 -21.328125 17.89453125 C-21.3374707 16.71737549 -21.34681641 15.54021973 -21.35644531 14.32739258 C-20.81080477 9.2338755 -18.83674688 5.98693222 -15.5625 2.125 C-11.04903504 -1.37039016 -5.38402258 -0.79133299 0 0 Z " fill="#212020" transform="translate(59,50)"/>
<path d="M0 0 C5.875 0.875 5.875 0.875 7 2 C7.28402968 6.53500722 7.2319191 11.08217293 7.25 15.625 C7.270625 16.89730469 7.29125 18.16960938 7.3125 19.48046875 C7.36212401 31.37782588 7.36212401 31.37782588 4 37 C-1.29674629 41.90917948 -4.93314663 42.40699757 -12.01171875 42.34765625 C-17.50438583 41.70864008 -19.42778905 38.88665313 -22.875 34.75 C-24.50014254 30.77742934 -24.68636286 27.23008414 -24 23 C-22.1875 19.625 -22.1875 19.625 -20 17 C-19.54625 16.4225 -19.0925 15.845 -18.625 15.25 C-14.91136835 12.39336027 -10.5920636 11.60639455 -6 12 C-5 13 -5 13 -4.9375 16.0625 C-4.958125 17.031875 -4.97875 18.00125 -5 19 C-5.95712891 19.31130859 -5.95712891 19.31130859 -6.93359375 19.62890625 C-9.47820327 20.57767641 -11.71291502 21.53095478 -14 23 C-15.57354142 26.42783304 -15.57354142 26.42783304 -15 30 C-13.73061576 32.68620182 -13.73061576 32.68620182 -11 34 C-8.17878207 34.02149499 -5.79534328 33.55906866 -3 33 C-1.97285911 29.57030588 -1.81730686 26.34402657 -1.71875 22.7734375 C-1.68136719 21.5771875 -1.64398438 20.3809375 -1.60546875 19.1484375 C-1.53493806 16.62500609 -1.4646269 14.10156853 -1.39453125 11.578125 C-1.35714844 10.38445313 -1.31976563 9.19078125 -1.28125 7.9609375 C-1.23581055 6.31810791 -1.23581055 6.31810791 -1.18945312 4.64208984 C-1 2 -1 2 0 0 Z " fill="#232122" transform="translate(133,38)"/>
<path d="M0 0 C12.01776117 0 23.45830551 7.22587942 32.59375 14.5546875 C34 16 34 16 34 18 C34.66 18 35.32 18 36 18 C37.21875 19.35546875 37.21875 19.35546875 38.5 21.1875 C38.9228125 21.77917969 39.345625 22.37085937 39.78125 22.98046875 C42.56494358 27.59319176 43.27456444 31.30174628 43.25 36.6875 C43.25773437 38.39486328 43.25773437 38.39486328 43.265625 40.13671875 C43 43 43 43 41 45 C38.41935871 45.14497985 35.95056116 45.18677545 33.375 45.125 C32.66859375 45.11597656 31.9621875 45.10695312 31.234375 45.09765625 C29.48943902 45.07407603 27.74467705 45.03820461 26 45 C26 43.35 26 41.7 26 40 C30.29 40 34.58 40 39 40 C37.96377574 33.6099504 37.10399344 29.15930604 33 24 C32.34 23.05125 31.68 22.1025 31 21.125 C23.45494791 12.38741689 12.71079993 8.29563075 2 5 C1.86464844 5.61746094 1.72929688 6.23492188 1.58984375 6.87109375 C-0.65906095 15.71858108 -5.30729841 22.87153228 -13 28 C-18.35714286 31 -18.35714286 31 -22 31 C-22 29.35 -22 27.7 -22 26 C-20.96875 25.443125 -19.9375 24.88625 -18.875 24.3125 C-11.23398478 19.83858565 -8.13340473 16.01264273 -4.39453125 7.9375 C-3.08118786 5.17101755 -1.61844641 2.59715294 0 0 Z " fill="#DE222C" transform="translate(115,23)"/>
<path d="M0 0 C1.86920361 2.50642326 3.04798487 5.27702499 4.3125 8.125 C7.68542367 15.11746971 10.92303695 20.24835694 18 24 C18.99 24.33 19.98 24.66 21 25 C21 26.65 21 28.3 21 30 C13.46842879 29.1139328 8.39548878 24.02017812 3.68359375 18.44140625 C0.23221765 13.98037385 -1.49236315 9.40542968 -3 4 C-12.38543331 6.5666287 -24.03131581 11.88498661 -29.53125 20.359375 C-29.8303125 21.06578125 -30.129375 21.7721875 -30.4375 22.5 C-32 26 -32 26 -33.76953125 26.9375 C-35.75 27.5 -35.75 27.5 -39 28 C-38.67 28.515625 -38.34 29.03125 -38 29.5625 C-36.67989123 32.78026512 -36.86757895 35.5570528 -37 39 C-33.7 39 -30.4 39 -27 39 C-27 40.65 -27 42.3 -27 44 C-29.12472576 44.05386629 -31.24983652 44.09273071 -33.375 44.125 C-34.55835938 44.14820313 -35.74171875 44.17140625 -36.9609375 44.1953125 C-40 44 -40 44 -42 42 C-43.79145261 36.2694469 -44.57710389 30.82315281 -43 25 C-39.77208445 22.8480563 -38.71599191 22.79913557 -35 23 C-34.9071875 21.6696875 -34.9071875 21.6696875 -34.8125 20.3125 C-33.81193584 16.23327687 -32.15938707 14.53591601 -29 12 C-28.22269531 11.36835937 -27.44539063 10.73671875 -26.64453125 10.0859375 C-9.02045508 -3.49451946 -9.02045508 -3.49451946 0 0 Z " fill="#D72931" transform="translate(64,24)"/>
<path d="M0 0 C5.94 0 11.88 0 18 0 C17.67 1.65 17.34 3.3 17 5 C13.37 5 9.74 5 6 5 C6.33 5.66 6.66 6.32 7 7 C9.02463255 7.65213292 9.02463255 7.65213292 11 8 C11 9.65 11 11.3 11 13 C9.35 13.66 7.7 14.32 6 15 C8.31 15.33 10.62 15.66 13 16 C13 13.69 13 11.38 13 9 C14.65 8.67 16.3 8.34 18 8 C18.02686553 9.97909398 18.04633375 11.95828971 18.0625 13.9375 C18.07410156 15.03964844 18.08570312 16.14179687 18.09765625 17.27734375 C18 20 18 20 17 21 C14.3226862 21.09981214 11.67695825 21.13879875 9 21.125 C7.87464844 21.13080078 7.87464844 21.13080078 6.7265625 21.13671875 C1.12661053 21.12661053 1.12661053 21.12661053 0 20 C-0.13198726 17.09628021 -0.12644222 14.519818 0.5625 11.6875 C1.2164711 7.67024897 0.5409699 4.02722038 0 0 Z " fill="#262424" transform="translate(80,25)"/>
<path d="M0 0 C0.33 0 0.66 0 1 0 C1.05804281 4.41661151 1.09361104 8.83312496 1.125 13.25 C1.14175781 14.50425781 1.15851563 15.75851563 1.17578125 17.05078125 C1.18222656 18.25605469 1.18867188 19.46132813 1.1953125 20.703125 C1.20578613 21.81333008 1.21625977 22.92353516 1.22705078 24.06738281 C1.00231287 26.97012672 0.57177888 28.58112534 -1 31 C-3.54269034 32.90701775 -4.85599893 33.00587759 -8.0625 32.875 C-11 32 -11 32 -12.9375 30.375 C-14.49800943 26.88680246 -13.99154664 24.63567102 -13 21 C-10.35288832 18.16380891 -7.78269337 17.52537408 -4 17 C-3.34 14.03 -2.68 11.06 -2 8 C-1.67 8 -1.34 8 -1 8 C-0.67 5.36 -0.34 2.72 0 0 Z " fill="#EAE9E9" transform="translate(131,40)"/>
<path d="M0 0 C0.99 0 1.98 0 3 0 C3 0.66 3 1.32 3 2 C4.11375 2.144375 5.2275 2.28875 6.375 2.4375 C10 3 10 3 12 4 C13.67654729 3.72057545 15.34608154 3.39171753 17 3 C17.99 4.485 17.99 4.485 19 6 C17.68 6.99 16.36 7.98 15 9 C15 8.01 15 7.02 15 6 C14.34 6 13.68 6 13 6 C13.33 6.99 13.66 7.98 14 9 C15.32 9.33 16.64 9.66 18 10 C18 12.97 18 15.94 18 19 C14.04 19 10.08 19 6 19 C6.33 17.35 6.66 15.7 7 14 C7.66 14 8.32 14 9 14 C8.67 13.34 8.34 12.68 8 12 C6.35 12.66 4.7 13.32 3 14 C3 13.34 3 12.68 3 12 C2.01 12 1.02 12 0 12 C0 8.04 0 4.08 0 0 Z " fill="#D3D3CF" transform="translate(149,84)"/>
<path d="M0 0 C4.39795377 -0.49654317 6.77664025 -0.74595107 10.5625 1.5625 C12 4 12 4 12 7.5625 C11 11 11 11 9.25 12.875 C6.82272946 14.08863527 4.68060559 14.62769367 2 15 C2 17.31 2 19.62 2 22 C1.01 22 0.02 22 -1 22 C-1 24.64 -1 27.28 -1 30 C-1.33 30 -1.66 30 -2 30 C-2.05793591 25.56255461 -2.09357467 21.12520611 -2.125 16.6875 C-2.14175781 15.42486328 -2.15851562 14.16222656 -2.17578125 12.86132812 C-2.18222656 11.65283203 -2.18867187 10.44433594 -2.1953125 9.19921875 C-2.20578613 8.08377686 -2.21625977 6.96833496 -2.22705078 5.8190918 C-2 3 -2 3 0 0 Z " fill="#F1F0F1" transform="translate(49,58)"/>
<path d="M0 0 C12.54 0 25.08 0 38 0 C38 1.65 38 3.3 38 5 C25.46 5 12.92 5 0 5 C0 3.35 0 1.7 0 0 Z " fill="#D62932" transform="translate(70,63)"/>
<path d="M0 0 C0.33 1.32 0.66 2.64 1 4 C2.32 3.67 3.64 3.34 5 3 C5.86948699 8.97772302 6.10969217 14.84435166 6.125 20.875 C6.13176758 21.99926392 6.13176758 21.99926392 6.13867188 23.14624023 C6.12995026 26.35906384 6.02303927 28.93088218 5 32 C0.125 31.125 0.125 31.125 -1 30 C-1.10003289 27.86646826 -1.13081048 25.72962458 -1.1328125 23.59375 C-1.13410156 22.29308594 -1.13539062 20.99242187 -1.13671875 19.65234375 C-1.13462402 18.97155762 -1.1325293 18.29077148 -1.13037109 17.58935547 C-1.1250224 15.50871485 -1.1303168 13.42829011 -1.13671875 11.34765625 C-1.13542969 10.04699219 -1.13414063 8.74632813 -1.1328125 7.40625 C-1.13168457 6.20291016 -1.13055664 4.99957031 -1.12939453 3.75976562 C-1 1 -1 1 0 0 Z " fill="#212121" transform="translate(39,60)"/>
<path d="M0 0 C0.33 1.32 0.66 2.64 1 4 C1.77085938 4.18175781 2.54171875 4.36351562 3.3359375 4.55078125 C4.33882812 4.80214844 5.34171875 5.05351563 6.375 5.3125 C7.37273437 5.55613281 8.37046875 5.79976562 9.3984375 6.05078125 C12 7 12 7 14 10 C17.08365871 10.2502157 17.08365871 10.2502157 20 10 C20.33 10.99 20.66 11.98 21 13 C19 13 17 13 15 13 C14.01 13.495 14.01 13.495 13 14 C10.71167189 14.14911411 8.41800293 14.22139705 6.125 14.25 C4.89007813 14.27578125 3.65515625 14.3015625 2.3828125 14.328125 C-1.15932792 13.98454556 -2.59236302 13.58262814 -5 11 C-5.04165763 9.00043389 -5.04165763 6.99956611 -5 5 C-6.4166747 3.2488427 -6.4166747 3.2488427 -8 2 C-8 1.34 -8 0.68 -8 0 C-4.71023192 -1.09658936 -3.28696233 -0.79953138 0 0 Z M-4 1 C-4 1.99 -4 2.98 -4 4 C-3.34 4.33 -2.68 4.66 -2 5 C-1.67 3.68 -1.34 2.36 -1 1 C-1.99 1 -2.98 1 -4 1 Z " fill="#FAFAFA" transform="translate(72,48)"/>
<path d="M0 0 C0.8971875 1.175625 0.8971875 1.175625 1.8125 2.375 C3.91085249 5.14574323 3.91085249 5.14574323 7 7 C6.31292969 7.47050781 5.62585938 7.94101562 4.91796875 8.42578125 C3.56638672 9.35970703 3.56638672 9.35970703 2.1875 10.3125 C0.84751953 11.23482422 0.84751953 11.23482422 -0.51953125 12.17578125 C-2.56100746 13.67715037 -4.28462787 15.14785401 -6 17 C-6.33 16.67 -6.66 16.34 -7 16 C-7.804375 16.020625 -8.60875 16.04125 -9.4375 16.0625 C-12 16 -12 16 -14 14 C-13.73314868 9.33010192 -11.37159913 5.90166308 -9 2 C-6.125 1.875 -6.125 1.875 -3 2 C-2.34 2.66 -1.68 3.32 -1 4 C-0.67 2.68 -0.34 1.36 0 0 Z " fill="#F5EBEC" transform="translate(36,24)"/>
<path d="M0 0 C0.66 0 1.32 0 2 0 C2 0.66 2 1.32 2 2 C1.34 2 0.68 2 0 2 C0.33 3.98 0.66 5.96 1 8 C1.33 6.35 1.66 4.7 2 3 C3.32 2.67 4.64 2.34 6 2 C6.0582462 5.72910066 6.09367917 9.45808364 6.125 13.1875 C6.14175781 14.24259766 6.15851563 15.29769531 6.17578125 16.38476562 C6.18222656 17.40634766 6.18867188 18.42792969 6.1953125 19.48046875 C6.20578613 20.41785889 6.21625977 21.35524902 6.22705078 22.32104492 C5.98166713 25.21630812 5.20521619 27.37062697 4 30 C2.35 29.67 0.7 29.34 -1 29 C-1.02465881 25.03069011 -1.04284023 21.06140966 -1.05493164 17.09204102 C-1.05997057 15.74079614 -1.06680177 14.38955674 -1.07543945 13.03833008 C-1.08752419 11.09979566 -1.09269828 9.161222 -1.09765625 7.22265625 C-1.10289307 6.05484619 -1.10812988 4.88703613 -1.11352539 3.68383789 C-1 1 -1 1 0 0 Z " fill="#161313" transform="translate(133,39)"/>
<path d="M0 0 C5.875 0.875 5.875 0.875 7 2 C7.28402968 6.53500722 7.2319191 11.08217293 7.25 15.625 C7.270625 16.89730469 7.29125 18.16960938 7.3125 19.48046875 C7.3622012 31.39633133 7.3622012 31.39633133 4 37 C1.3125 39.4375 1.3125 39.4375 -1 41 C-1.99 40.01 -2.98 39.02 -4 38 C-3.67 37.01 -3.34 36.02 -3 35 C-3.66 34.34 -4.32 33.68 -5 33 C-4.34 33 -3.68 33 -3 33 C-2.7525 32.360625 -2.505 31.72125 -2.25 31.0625 C-1 29 -1 29 1.0625 28.1875 C1.701875 28.125625 2.34125 28.06375 3 28 C3.33 28.33 3.66 28.66 4 29 C5.00005304 25.99984088 5.11575585 24.02576244 5.09765625 20.89453125 C5.09443359 19.91162109 5.09121094 18.92871094 5.08789062 17.91601562 C5.07951172 16.89185547 5.07113281 15.86769531 5.0625 14.8125 C5.05798828 13.77673828 5.05347656 12.74097656 5.04882812 11.67382812 C5.0370401 9.11582734 5.02058515 6.55794267 5 4 C4.01 4 3.02 4 2 4 C2.3403125 4.8971875 2.3403125 4.8971875 2.6875 5.8125 C2.790625 6.534375 2.89375 7.25625 3 8 C1.5625 9.75 1.5625 9.75 0 11 C0 8.36 0 5.72 0 3 C0.66 3 1.32 3 2 3 C2 2.34 2 1.68 2 1 C1.34 0.67 0.68 0.34 0 0 Z " fill="#282525" transform="translate(133,38)"/>
<path d="M0 0 C0.103125 0.639375 0.20625 1.27875 0.3125 1.9375 C0.6528125 2.9584375 0.6528125 2.9584375 1 4 C1.99 4.33 2.98 4.66 4 5 C0.43811552 13.11318132 -4.18879111 18.02070491 -12 22 C-12.99 22.66 -13.98 23.32 -15 24 C-15.99 24 -16.98 24 -18 24 C-18 22.35 -18 20.7 -18 19 C-16.96875 18.443125 -15.9375 17.88625 -14.875 17.3125 C-6.9522921 12.69624479 -3.67255804 8.36888226 0 0 Z " fill="#DD2B33" transform="translate(111,30)"/>
<path d="M0 0 C0.33 0 0.66 0 1 0 C1 2.97 1 5.94 1 9 C2.65 8.67 4.3 8.34 6 8 C3.42215154 10.64752004 1.08351902 12.94432065 -2 15 C-2.99 15 -3.98 15 -5 15 C-5.33 17.31 -5.66 19.62 -6 22 C-7.65 22.33 -9.3 22.66 -11 23 C-11.185625 21.9275 -11.37125 20.855 -11.5625 19.75 C-12.23076135 17.30960856 -12.6966266 16.2431191 -14.69140625 14.64453125 C-16.41659751 13.67912119 -18.20599015 12.83056012 -20 12 C-16.23699626 10.74566542 -12.72789091 10.89304578 -8.8125 10.9375 C-8.06291016 10.94201172 -7.31332031 10.94652344 -6.54101562 10.95117188 C-4.69397617 10.96293646 -2.84697787 10.98087135 -1 11 C-0.67 7.37 -0.34 3.74 0 0 Z " fill="#E5CACC" transform="translate(98,34)"/>
<path d="M0 0 C0.99 0.66 1.98 1.32 3 2 C3 2.99 3 3.98 3 5 C3.66 5 4.32 5 5 5 C5.66 3.35 6.32 1.7 7 0 C9.16305574 1.71241913 9.93046696 2.62253491 10.4375 5.375 C9.84070401 8.95577597 8.62453802 10.51359556 6 13 C2.75 13.8125 2.75 13.8125 0 14 C-0.16947579 12.58366664 -0.33545507 11.16691467 -0.5 9.75 C-0.5928125 8.96109375 -0.685625 8.1721875 -0.78125 7.359375 C-1 5 -1 5 -1 1 C-0.67 0.67 -0.34 0.34 0 0 Z " fill="#FAF5F5" transform="translate(99,29)"/>
<path d="M0 0 C0.99 0 1.98 0 3 0 C3 0.66 3 1.32 3 2 C5.31 2.33 7.62 2.66 10 3 C9.57343918 6.09415757 9.07001562 9.05880129 8 12 C5.375 13.5625 5.375 13.5625 3 14 C3 13.34 3 12.68 3 12 C2.01 12 1.02 12 0 12 C0 8.04 0 4.08 0 0 Z " fill="#828280" transform="translate(149,84)"/>
<path d="M0 0 C0.69699552 1.45381897 1.38233866 2.91322953 2.0625 4.375 C2.44535156 5.18710937 2.82820313 5.99921875 3.22265625 6.8359375 C3.47917969 7.55007812 3.73570313 8.26421875 4 9 C3.67 9.66 3.34 10.32 3 11 C2.01 11 1.02 11 0 11 C0 10.34 0 9.68 0 9 C-0.99 9 -1.98 9 -3 9 C-3.33 9.66 -3.66 10.32 -4 11 C-5.65 10.67 -7.3 10.34 -9 10 C-8.34 8.02 -7.68 6.04 -7 4 C-7.99 4.495 -7.99 4.495 -9 5 C-9.66 4.34 -10.32 3.68 -11 3 C-4.5 0 -4.5 0 0 0 Z " fill="#F8E7E5" transform="translate(61,28)"/>
<path d="M0 0 C0.875 2 0.875 2 1 5 C-0.73653434 7.89066179 -2.80977399 10.44156208 -5 13 C-6.32 12.67 -7.64 12.34 -9 12 C-9.875 9.9375 -9.875 9.9375 -10 7 C-7.28150801 2.44723142 -5.4573282 0 0 0 Z " fill="#E34A4C" transform="translate(32,27)"/>
<path d="M0 0 C-0.165 0.598125 -0.33 1.19625 -0.5 1.8125 C-1.1114124 4.11344336 -1.1114124 4.11344336 -1 7 C-4.3 7 -7.6 7 -11 7 C-11.33 6.01 -11.66 5.02 -12 4 C-12.99 4 -13.98 4 -15 4 C-15 3.34 -15 2.68 -15 2 C-13.68 2 -12.36 2 -11 2 C-10.67 1.34 -10.34 0.68 -10 0 C-6.35346727 -1.11421833 -3.66708957 -0.94296589 0 0 Z " fill="#1B191A" transform="translate(131,73)"/>
<path d="M0 0 C1 1 1 1 1.0625 4.5625 C1.041875 5.696875 1.02125 6.83125 1 8 C0.01 8 -0.98 8 -2 8 C-2 6.02 -2 4.04 -2 2 C-2.66 2 -3.32 2 -4 2 C-4 3.98 -4 5.96 -4 8 C-4.99 8 -5.98 8 -7 8 C-7 6.02 -7 4.04 -7 2 C-7.66 2 -8.32 2 -9 2 C-9 3.98 -9 5.96 -9 8 C-9.99 8 -10.98 8 -12 8 C-12.04241723 5.66705225 -12.04092937 3.33297433 -12 1 C-9.22636039 -1.77363961 -3.45707528 -1.32964434 0 0 Z " fill="#3D3C3A" transform="translate(129,88)"/>
<path d="M0 0 C1.65 0 3.3 0 5 0 C5 1.32 5 2.64 5 4 C5.33 4.66 5.66 5.32 6 6 C6.08543895 8.10528933 6.10714725 10.21331157 6.09765625 12.3203125 C6.09443359 13.57714844 6.09121094 14.83398438 6.08789062 16.12890625 C6.07951172 17.44761719 6.07113281 18.76632813 6.0625 20.125 C6.05748489 21.46484211 6.05292201 22.804686 6.04882812 24.14453125 C6.03701086 27.42973206 6.02053617 30.71484397 6 34 C5.01 34 4.02 34 3 34 C3.495 33.505 3.495 33.505 4 33 C4.10135599 30.30214203 4.13861344 27.63522926 4.125 24.9375 C4.12886719 24.19822266 4.13273437 23.45894531 4.13671875 22.69726562 C4.12800161 17.71542159 3.705336 12.93175413 3 8 C2.01 8 1.02 8 0 8 C-1.125 2.25 -1.125 2.25 0 0 Z " fill="#1C191A" transform="translate(40,56)"/>
<path d="M0 0 C0.33 1.32 0.66 2.64 1 4 C1.66 4 2.32 4 3 4 C3 6.64 3 9.28 3 12 C2.34 12 1.68 12 1 12 C1.33 18.27 1.66 24.54 2 31 C1.01 30.67 0.02 30.34 -1 30 C-1.02465746 25.8882744 -1.04283959 21.77657722 -1.05493164 17.66479492 C-1.0599708 16.26504772 -1.06680216 14.8653058 -1.07543945 13.46557617 C-1.0875232 11.45754223 -1.09269807 9.44947043 -1.09765625 7.44140625 C-1.10289307 6.23170166 -1.10812988 5.02199707 -1.11352539 3.77563477 C-1 1 -1 1 0 0 Z " fill="#322F2E" transform="translate(39,60)"/>
<path d="M0 0 C1.09570312 0.10183594 2.19140625 0.20367187 3.3203125 0.30859375 C4.16335937 0.39238281 5.00640625 0.47617188 5.875 0.5625 C3.895 1.5525 3.895 1.5525 1.875 2.5625 C1.875 3.2225 1.875 3.8825 1.875 4.5625 C0.740625 4.871875 -0.39375 5.18125 -1.5625 5.5 C-4.91275099 6.19174531 -4.91275099 6.19174531 -6.125 7.5625 C-7.80683948 7.79537008 -9.4962416 7.97514166 -11.1875 8.125 C-12.10660156 8.20878906 -13.02570313 8.29257813 -13.97265625 8.37890625 C-14.68292969 8.43949219 -15.39320312 8.50007813 -16.125 8.5625 C-16.455 7.9025 -16.785 7.2425 -17.125 6.5625 C-14.03690305 4.79787317 -12.89187864 4.5625 -9.125 4.5625 C-9.00125 3.923125 -8.8775 3.28375 -8.75 2.625 C-8.54375 1.944375 -8.3375 1.26375 -8.125 0.5625 C-5.28943413 -0.85528293 -3.1341294 -0.30007622 0 0 Z " fill="#F7F7F5" transform="translate(122.125,79.4375)"/>
<path d="M0 0 C0.33 0 0.66 0 1 0 C2.19157466 3.81303892 3.11775571 7.40099459 3.5625 11.375 C3.59793141 14.8036937 3.59793141 14.8036937 5 16 C7.18292774 16.23481693 9.37203174 16.41363323 11.5625 16.5625 C12.76003906 16.64628906 13.95757812 16.73007813 15.19140625 16.81640625 C16.58166016 16.90728516 16.58166016 16.90728516 18 17 C18 17.33 18 17.66 18 18 C14.7 18 11.4 18 8 18 C8 18.66 8 19.32 8 20 C5.33333333 20 2.66666667 20 0 20 C-0.98436956 16.83543416 -0.97576236 14.40048688 -0.5625 11.125 C-0.13134707 7.38834129 0.09914836 3.76763773 0 0 Z " fill="#EFE3DE" transform="translate(19,51)"/>
<path d="M0 0 C0.99 0 1.98 0 3 0 C3.08139142 2.39652528 3.14067009 4.79025436 3.1875 7.1875 C3.21263672 7.86103516 3.23777344 8.53457031 3.26367188 9.22851562 C3.32869757 13.6719384 2.80384843 16.50367569 0 20 C-0.66 20 -1.32 20 -2 20 C-2.05418326 17.91695462 -2.09287551 15.83350232 -2.125 13.75 C-2.14820313 12.58984375 -2.17140625 11.4296875 -2.1953125 10.234375 C-2.00625946 7.10365663 -1.49626754 5.66264933 0 3 C0 2.01 0 1.02 0 0 Z M0 6 C0.33 6.66 0.66 7.32 1 8 C1.33 7.34 1.66 6.68 2 6 C1.34 6 0.68 6 0 6 Z " fill="#241C1E" transform="translate(135,42)"/>
<path d="M0 0 C4.55555556 0.55555556 4.55555556 0.55555556 6 2 C6.1875 4.4375 6.1875 4.4375 6 7 C4 9 4 9 1.4375 9.1875 C-1 9 -1 9 -2 8 C-2.1875 5.0625 -2.1875 5.0625 -2 2 C-1.34 1.34 -0.68 0.68 0 0 Z " fill="#4F4D4D" transform="translate(110,87)"/>
<path d="M0 0 C2.4294516 3.6441774 2.16179575 5.71241272 2 10 C-2.29 10 -6.58 10 -11 10 C-11 11.65 -11 13.3 -11 15 C-11.33 15 -11.66 15 -12 15 C-12 12.36 -12 9.72 -12 7 C-8.37 7 -4.74 7 -1 7 C-0.67 4.69 -0.34 2.38 0 0 Z " fill="#FDDDDE" transform="translate(152,53)"/>
<path d="M0 0 C1.9375 0.625 1.9375 0.625 4 2 C4.75 5.125 4.75 5.125 5 8 C4.01 8 3.02 8 2 8 C1.67 9.32 1.34 10.64 1 12 C0.01 12 -0.98 12 -2 12 C-2.309375 10.88625 -2.61875 9.7725 -2.9375 8.625 C-3.82326483 5.2054845 -3.82326483 5.2054845 -5 3 C-4.01 3 -3.02 3 -2 3 C-2 3.99 -2 4.98 -2 6 C-1.34 6 -0.68 6 0 6 C-0.2784375 4.7934375 -0.2784375 4.7934375 -0.5625 3.5625 C-0.706875 2.716875 -0.85125 1.87125 -1 1 C-0.67 0.67 -0.34 0.34 0 0 Z " fill="#1B1718" transform="translate(63,55)"/>
<path d="M0 0 C3 0.125 3 0.125 4 1.125 C4.125 4.125 4.125 4.125 4 7.125 C3 8.125 3 8.125 -0.0625 8.1875 C-1.031875 8.166875 -2.00125 8.14625 -3 8.125 C-3.38063221 5.7989143 -3.71269945 3.46444736 -4 1.125 C-3 0.125 -3 0.125 0 0 Z " fill="#4C4B49" transform="translate(135,87.875)"/>
<path d="M0 0 C5.875 0.875 5.875 0.875 7 2 C7.08767112 4.07262076 7.10695873 6.14820294 7.09765625 8.22265625 C7.09443359 9.48271484 7.09121094 10.74277344 7.08789062 12.04101562 C7.07953403 13.38151109 7.07106907 14.72200588 7.0625 16.0625 C7.0574866 17.40689942 7.05292342 18.7513006 7.04882812 20.09570312 C7.03699488 23.39717941 7.02050971 26.69856803 7 30 C6.67 30 6.34 30 6 30 C5.67 21.42 5.34 12.84 5 4 C4.01 4 3.02 4 2 4 C2.226875 4.598125 2.45375 5.19625 2.6875 5.8125 C2.790625 6.534375 2.89375 7.25625 3 8 C1.5625 9.75 1.5625 9.75 0 11 C0 8.36 0 5.72 0 3 C0.66 3 1.32 3 2 3 C2 2.34 2 1.68 2 1 C1.34 0.67 0.68 0.34 0 0 Z " fill="#413C3C" transform="translate(133,38)"/>
<path d="M0 0 C0.66 0 1.32 0 2 0 C2 0.66 2 1.32 2 2 C3.65 2 5.3 2 7 2 C6.67 2.99 6.34 3.98 6 5 C4.68 5 3.36 5 2 5 C2 6.32 2 7.64 2 9 C2.66 9 3.32 9 4 9 C4.33 8.01 4.66 7.02 5 6 C5.66 6.33 6.32 6.66 7 7 C6.34 8.32 5.68 9.64 5 11 C0.125 10.125 0.125 10.125 -1 9 C-1.1328125 7.1875 -1.1328125 7.1875 -1.125 5 C-1.12757813 4.278125 -1.13015625 3.55625 -1.1328125 2.8125 C-1 1 -1 1 0 0 Z " fill="#4F4F4D" transform="translate(141,85)"/>
<path d="M0 0 C1.32 0.66 2.64 1.32 4 2 C4 2.33 4 2.66 4 3 C2.329375 3.2784375 2.329375 3.2784375 0.625 3.5625 C-0.57125 4.036875 -1.7675 4.51125 -3 5 C-4.54086322 8.51400668 -4.54086322 8.51400668 -5 12 C-5.33 11.34 -5.66 10.68 -6 10 C-5.67 9.34 -5.34 8.68 -5 8 C-7.96700422 10.04620981 -9.86530184 12.12279814 -12 15 C-12.99 15.66 -13.98 16.32 -15 17 C-13.81677046 10.61844866 -11.62528049 8.20291884 -6.375 4.5625 C-5.76398437 4.11712891 -5.15296875 3.67175781 -4.5234375 3.21289062 C-3.02721607 2.12579225 -1.51512762 1.06058933 0 0 Z " fill="#F9DFDE" transform="translate(48,32)"/>
<path d="M0 0 C5.28 0 10.56 0 16 0 C16 1.32 16 2.64 16 4 C11.38 4.33 6.76 4.66 2 5 C2 4.34 2 3.68 2 3 C2.66 2.67 3.32 2.34 4 2 C2.68 1.34 1.36 0.68 0 0 Z " fill="#171616" transform="translate(82,25)"/>
<path d="M0 0 C0.33 0 0.66 0 1 0 C1.36923077 7.38461538 1.36923077 7.38461538 -0.5 10.5 C-0.995 10.995 -1.49 11.49 -2 12 C-2.33 11.34 -2.66 10.68 -3 10 C-3.99 11.485 -3.99 11.485 -5 13 C-5.99 12.67 -6.98 12.34 -8 12 C-8 10.68 -8 9.36 -8 8 C-7.360625 7.731875 -6.72125 7.46375 -6.0625 7.1875 C-3.66868314 6.11332248 -3.66868314 6.11332248 -3 3 C-2.01 3 -1.02 3 0 3 C0 2.01 0 1.02 0 0 Z " fill="#2B2627" transform="translate(68,60)"/>
<path d="M0 0 C0 3.61537605 -0.89229241 5.11165997 -3 8 C-3.99 8 -4.98 8 -6 8 C-6.33 10.64 -6.66 13.28 -7 16 C-7.66 16 -8.32 16 -9 16 C-9.46666667 7.91111111 -9.46666667 7.91111111 -7.6875 4.4375 C-6 3 -6 3 -3 3 C-2.67 2.34 -2.34 1.68 -2 1 C-1.34 0.67 -0.68 0.34 0 0 Z " fill="#2A2627" transform="translate(118,54)"/>
<path d="M0 0 C1.1446875 0.3403125 1.1446875 0.3403125 2.3125 0.6875 C2.62701716 5.30041833 2.1744665 7.13866154 -0.6875 10.6875 C-1.40183121 13.33684822 -1.40183121 13.33684822 -1.6875 15.6875 C-2.0175 15.6875 -2.3475 15.6875 -2.6875 15.6875 C-4.11607143 7.11607143 -4.11607143 7.11607143 -1.6875 3.6875 C-3.66286745 4.03536708 -3.66286745 4.03536708 -5.6875 4.6875 C-6.0175 5.3475 -6.3475 6.0075 -6.6875 6.6875 C-6.28750283 4.36751641 -5.78182121 2.82426576 -4.4375 0.875 C-2.6875 -0.3125 -2.6875 -0.3125 0 0 Z " fill="#1A1819" transform="translate(118.6875,52.3125)"/>
<path d="M0 0 C0.99 0.33 1.98 0.66 3 1 C3.33 3.64 3.66 6.28 4 9 C6.64 8.34 9.28 7.68 12 7 C13.4783226 9.95664519 13.06032783 12.74229737 13 16 C12.67 16 12.34 16 12 16 C12 14.35 12 12.7 12 11 C8.7 11 5.4 11 2 11 C1.855625 9.9275 1.71125 8.855 1.5625 7.75 C1.16250558 5.08337051 0.72408076 2.58600271 0 0 Z " fill="#FEE9EA" transform="translate(25,52)"/>
<path d="M0 0 C2.31 0 4.62 0 7 0 C6.67 0.99 6.34 1.98 6 3 C4.68 3 3.36 3 2 3 C1.5978125 4.7015625 1.5978125 4.7015625 1.1875 6.4375 C0.795625 7.613125 0.40375 8.78875 0 10 C-0.99 10.33 -1.98 10.66 -3 11 C-4.60031344 7.79937313 -3.03173691 5.27728194 -2 2 C-1.34 2 -0.68 2 0 2 C0 1.34 0 0.68 0 0 Z " fill="#E11D26" transform="translate(115,25)"/>
<path d="M0 0 C0 0.99 0 1.98 0 3 C2.31 3 4.62 3 7 3 C6.67 4.32 6.34 5.64 6 7 C6.66 7.33 7.32 7.66 8 8 C4.59068103 9.13643966 3.99664544 8.86747764 0.8125 7.5625 C0.09707031 7.27503906 -0.61835938 6.98757812 -1.35546875 6.69140625 C-2.16951172 6.34916016 -2.16951172 6.34916016 -3 6 C-3 5.34 -3 4.68 -3 4 C-3.99 3.67 -4.98 3.34 -6 3 C-3.375 0 -3.375 0 0 0 Z " fill="#E2E3E1" transform="translate(155,80)"/>
<path d="M0 0 C2.31 0.33 4.62 0.66 7 1 C7 1.99 7 2.98 7 4 C5.35 4 3.7 4 2 4 C2.33 4.99 2.66 5.98 3 7 C3.66 7.33 4.32 7.66 5 8 C5 7.01 5 6.02 5 5 C5.66 5 6.32 5 7 5 C6.67 6.65 6.34 8.3 6 10 C4.35 10 2.7 10 1 10 C-0.60725635 6.78548731 -0.05748185 3.56387464 0 0 Z " fill="#232122" transform="translate(99,86)"/>
<path d="M0 0 C4.55555556 0.55555556 4.55555556 0.55555556 6 2 C6.04092937 4.33297433 6.04241723 6.66705225 6 9 C5.34 9 4.68 9 4 9 C4 7.02 4 5.04 4 3 C2.68 3 1.36 3 0 3 C0.33 3.99 0.66 4.98 1 6 C1.66 6.33 2.32 6.66 3 7 C3 7.66 3 8.32 3 9 C1.35 8.67 -0.3 8.34 -2 8 C-2.125 5.125 -2.125 5.125 -2 2 C-1.34 1.34 -0.68 0.68 0 0 Z " fill="#313031" transform="translate(83,87)"/>
<path d="M0 0 C4.455 0.99 4.455 0.99 9 2 C8.67 2.66 8.34 3.32 8 4 C6.02 4 4.04 4 2 4 C1.74605469 4.54269531 1.49210937 5.08539063 1.23046875 5.64453125 C0.88628906 6.35996094 0.54210937 7.07539062 0.1875 7.8125 C-0.14894531 8.52019531 -0.48539062 9.22789063 -0.83203125 9.95703125 C-2.00645471 12.01129035 -3.25628016 13.41616278 -5 15 C-5.66 14.67 -6.32 14.34 -7 14 C-6.1028125 12.7625 -6.1028125 12.7625 -5.1875 11.5 C-2.75199099 7.87707201 -1.41925254 4.11583237 0 0 Z " fill="#FBD2D1" transform="translate(117,28)"/>
<path d="M0 0 C2.0625 0.4375 2.0625 0.4375 4 1 C4 3.64 4 6.28 4 9 C2.35 9.33 0.7 9.66 -1 10 C-1.02689216 8.52093108 -1.04634621 7.04172517 -1.0625 5.5625 C-1.07410156 4.73878906 -1.08570312 3.91507813 -1.09765625 3.06640625 C-1 1 -1 1 0 0 Z " fill="#1F1F1E" transform="translate(88,13)"/>
<path d="M0 0 C0.33 7.59 0.66 15.18 1 23 C0.34 23 -0.32 23 -1 23 C-2.507505 18.47748499 -2.39450092 13.80341451 -2.60546875 9.07226562 C-2.71384655 4.90244232 -2.71384655 4.90244232 -4 1 C-1 0 -1 0 0 0 Z " fill="#F5F7F3" transform="translate(38,68)"/>
<path d="M0 0 C1.65 0.99 3.3 1.98 5 3 C4.67 3.598125 4.34 4.19625 4 4.8125 C2.79212012 7.05386471 2.79212012 7.05386471 3 10 C2.34 10 1.68 10 1 10 C1 9.01 1 8.02 1 7 C0.46375 7.185625 -0.0725 7.37125 -0.625 7.5625 C-3.61990614 8.11419324 -6.03745829 7.60597444 -9 7 C-9 6.67 -9 6.34 -9 6 C-8.071875 5.7525 -7.14375 5.505 -6.1875 5.25 C-2.83541675 3.93545755 -1.8122197 3.02036616 0 0 Z " fill="#302C2D" transform="translate(60,51)"/>
<path d="M0 0 C4.29 0 8.58 0 13 0 C13 0.66 13 1.32 13 2 C9.37 2 5.74 2 2 2 C2 2.66 2 3.32 2 4 C6.29 4 10.58 4 15 4 C15 4.33 15 4.66 15 5 C10.05 5 5.1 5 0 5 C0 3.35 0 1.7 0 0 Z " fill="#CB3840" transform="translate(141,63)"/>
<path d="M0 0 C1.32 0.66 2.64 1.32 4 2 C4 4.31 4 6.62 4 9 C2.35 9.33 0.7 9.66 -1 10 C-1.02689216 8.52093108 -1.04634621 7.04172517 -1.0625 5.5625 C-1.07410156 4.73878906 -1.08570312 3.91507813 -1.09765625 3.06640625 C-1 1 -1 1 0 0 Z " fill="#2B2325" transform="translate(88,47)"/>
<path d="M0 0 C5.95507399 0.3916035 10.62819824 1.37124595 16 4 C13 5 13 5 10 4 C10 4.99 10 5.98 10 7 C8.35 6.67 6.7 6.34 5 6 C5.66 4.68 6.32 3.36 7 2 C4.69 2 2.38 2 0 2 C0 2.66 0 3.32 0 4 C-0.66 4 -1.32 4 -2 4 C-1.34 2.68 -0.68 1.36 0 0 Z " fill="#D1333A" transform="translate(115,23)"/>
<path d="M0 0 C-1.65 1.65 -3.3 3.3 -5 5 C-4.34 5.33 -3.68 5.66 -3 6 C-4.32 6 -5.64 6 -7 6 C-7 5.34 -7 4.68 -7 4 C-7.66 4 -8.32 4 -9 4 C-9 4.66 -9 5.32 -9 6 C-10.32 5.67 -11.64 5.34 -13 5 C-12.34 4.34 -11.68 3.68 -11 3 C-10.01 3 -9.02 3 -8 3 C-8 2.34 -8 1.68 -8 1 C-9.32 0.67 -10.64 0.34 -12 0 C-3.42857143 -1.28571429 -3.42857143 -1.28571429 0 0 Z " fill="#F9F9F7" transform="translate(132,81)"/>
<path d="M0 0 C0 0.99 0 1.98 0 3 C-0.99 3.66 -1.98 4.32 -3 5 C-3 4.01 -3 3.02 -3 2 C-3.66 2 -4.32 2 -5 2 C-4.67 2.99 -4.34 3.98 -4 5 C-1.98491642 5.73323796 -1.98491642 5.73323796 0 6 C0 6.66 0 7.32 0 8 C-2.375 8.125 -2.375 8.125 -5 8 C-5.66 7.34 -6.32 6.68 -7 6 C-6.75 2.9375 -6.75 2.9375 -6 0 C-3.50907189 -1.24546405 -2.58919267 -0.7767578 0 0 Z " fill="#2C2D28" transform="translate(167,88)"/>
<path d="M0 0 C0.99 0.33 1.98 0.66 3 1 C2.67 1.33 2.34 1.66 2 2 C2.99 2.33 3.98 2.66 5 3 C5 2.34 5 1.68 5 1 C5.66 1 6.32 1 7 1 C7 1.99 7 2.98 7 4 C4.69 4.33 2.38 4.66 0 5 C-0.33 7.31 -0.66 9.62 -1 12 C-0.01 12.33 0.98 12.66 2 13 C-0.97 12.505 -0.97 12.505 -4 12 C-3.79375 10.88625 -3.5875 9.7725 -3.375 8.625 C-3.25125 7.42875 -3.1275 6.2325 -3 5 C-3.66 4.34 -4.32 3.68 -5 3 C-2.6875 1.4375 -2.6875 1.4375 0 0 Z " fill="#DCDCDA" transform="translate(118,84)"/>
<path d="M0 0 C3.465 1.485 3.465 1.485 7 3 C7 4.65 7 6.3 7 8 C3.65626525 7.44271087 0.96687001 6.64826111 -2 5 C-1.34 3.35 -0.68 1.7 0 0 Z " fill="#D3303A" transform="translate(78,46)"/>
<path d="M0 0 C0.33 0 0.66 0 1 0 C1.48929664 7.21712538 1.48929664 7.21712538 -0.875 11 C-3 13 -3 13 -5 13 C-4.835 11.906875 -4.67 10.81375 -4.5 9.6875 C-3.93281816 6.12474127 -3.93281816 6.12474127 -4 3 C-3.01 3 -2.02 3 -1 3 C-0.67 2.01 -0.34 1.02 0 0 Z " fill="#221E1F" transform="translate(138,64)"/>
<path d="M0 0 C0.99 0.33 1.98 0.66 3 1 C3.66 0.67 4.32 0.34 5 0 C5.99 0.66 6.98 1.32 8 2 C8 2.99 8 3.98 8 5 C6.02 5 4.04 5 2 5 C2 5.66 2 6.32 2 7 C0.68 7 -0.64 7 -2 7 C-2 6.01 -2 5.02 -2 4 C-1.34 4 -0.68 4 0 4 C0 2.68 0 1.36 0 0 Z " fill="#F3F2F1" transform="translate(56,16)"/>
<path d="M0 0 C4.29 0.33 8.58 0.66 13 1 C13 1.99 13 2.98 13 4 C9.37 4 5.74 4 2 4 C1.34 2.68 0.68 1.36 0 0 Z " fill="#E41B26" transform="translate(23,63)"/>
<path d="M0 0 C0.66 0.33 1.32 0.66 2 1 C2 1.99 2 2.98 2 4 C0.84371094 4.41572266 0.84371094 4.41572266 -0.3359375 4.83984375 C-1.33882812 5.20207031 -2.34171875 5.56429687 -3.375 5.9375 C-4.87160156 6.47697266 -4.87160156 6.47697266 -6.3984375 7.02734375 C-8.93504165 7.92349292 -8.93504165 7.92349292 -11 9 C-10.67 6.69 -10.34 4.38 -10 2 C-9.401875 2.165 -8.80375 2.33 -8.1875 2.5 C-5.88655664 3.1114124 -5.88655664 3.1114124 -3 3 C-1.31201173 1.56249809 -1.31201173 1.56249809 0 0 Z " fill="#1C1A1B" transform="translate(58,51)"/>
<path d="M0 0 C0.99 0.33 1.98 0.66 3 1 C2.88630789 3.45933991 2.75957349 5.9167909 2.625 8.375 C2.57859375 9.42300781 2.57859375 9.42300781 2.53125 10.4921875 C2.2265625 15.7734375 2.2265625 15.7734375 0 18 C-2.74485593 18.14507695 -5.38480543 18.18652423 -8.125 18.125 C-8.87910156 18.11597656 -9.63320312 18.10695313 -10.41015625 18.09765625 C-12.27357254 18.0740687 -14.13682593 18.03819719 -16 18 C-16 17.67 -16 17.34 -16 17 C-14.92878906 16.93941406 -13.85757813 16.87882812 -12.75390625 16.81640625 C-11.35675609 16.73201463 -9.95962143 16.64736594 -8.5625 16.5625 C-7.85544922 16.52318359 -7.14839844 16.48386719 -6.41992188 16.44335938 C-2.91309581 16.52375562 -2.91309581 16.52375562 0 15 C0.07313567 12.46950598 0.09247527 9.96695163 0.0625 7.4375 C0.05798828 6.72658203 0.05347656 6.01566406 0.04882812 5.28320312 C0.03700864 3.52209987 0.01907263 1.76103964 0 0 Z " fill="#FEDAD6" transform="translate(157,51)"/>
<path d="M0 0 C0.66 0 1.32 0 2 0 C2 2.31 2 4.62 2 7 C2.66 6.67 3.32 6.34 4 6 C4.65555119 3.47266765 4.65555119 3.47266765 5 1 C5.66 1 6.32 1 7 1 C7.125 6.75 7.125 6.75 6 9 C4.33388095 9.042721 2.66617115 9.04063832 1 9 C0 8 0 8 -0.09765625 6.15234375 C-0.06510417 4.1015625 -0.03255208 2.05078125 0 0 Z " fill="#2C2A2B" transform="translate(91,87)"/>
<path d="M0 0 C2 1.375 2 1.375 4 3 C4 3.66 4 4.32 4 5 C4.515625 5.2475 5.03125 5.495 5.5625 5.75 C8.77184151 7.39581616 11.87585664 9.1976096 15 11 C14.67 11.66 14.34 12.32 14 13 C7.29787234 11.06382979 7.29787234 11.06382979 5 8 C5 7.34 5 6.68 5 6 C4.34 6 3.68 6 3 6 C0.8614515 3.8614515 0.57344937 2.86724686 0 0 Z " fill="#FBDDDB" transform="translate(67,42)"/>
<path d="M0 0 C1.98 0 3.96 0 6 0 C7.53445094 3.06890187 6.54984289 5.70094266 6 9 C3.36 9 0.72 9 -2 9 C-1.34 8.01 -0.68 7.02 0 6 C1.32 6 2.64 6 4 6 C4 4.35 4 2.7 4 1 C2.68 0.67 1.36 0.34 0 0 Z " fill="#D6D5D4" transform="translate(87,32)"/>
<path d="M0 0 C0.66 0 1.32 0 2 0 C2 0.66 2 1.32 2 2 C1.34 2.66 0.68 3.32 0 4 C0.66 4 1.32 4 2 4 C2 6 2 6 0.125 7.9375 C-0.57625 8.618125 -1.2775 9.29875 -2 10 C-2.99 11.485 -2.99 11.485 -4 13 C-4 12.01 -4 11.02 -4 10 C-4.66 9.67 -5.32 9.34 -6 9 C-5.34 8.34 -4.68 7.68 -4 7 C-4.66 6.67 -5.32 6.34 -6 6 C-4 4 -2 2 0 0 Z " fill="#DA3339" transform="translate(37,34)"/>
<path d="M0 0 C-0.125 1.75 -0.125 1.75 -1 4 C-6.11111111 8 -6.11111111 8 -10 8 C-9.67 7.01 -9.34 6.02 -9 5 C-8.34 5 -7.68 5 -7 5 C-7 4.01 -7 3.02 -7 2 C-2.25 0 -2.25 0 0 0 Z " fill="#E2262D" transform="translate(46,31)"/>
<path d="M0 0 C0.66 0.66 1.32 1.32 2 2 C2.66 2 3.32 2 4 2 C4.33 1.34 4.66 0.68 5 0 C5.66 0.66 6.32 1.32 7 2 C6.01 3.485 6.01 3.485 5 5 C3.68 4.67 2.36 4.34 1 4 C1 4.66 1 5.32 1 6 C1.99 6 2.98 6 4 6 C4.33 6.99 4.66 7.98 5 9 C1.08597051 7.73058503 -0.79072873 6.48832306 -3 3 C-2.34 3 -1.68 3 -1 3 C-0.67 2.01 -0.34 1.02 0 0 Z " fill="#282627" transform="translate(115,71)"/>
<path d="M0 0 C4.63126326 3.47344745 9.10908401 6.98631707 10 13 C8.68 13 7.36 13 6 13 C5.54625 11.865625 5.0925 10.73125 4.625 9.5625 C3.42904194 5.95278308 3.42904194 5.95278308 1 5 C0.375 2.4375 0.375 2.4375 0 0 Z " fill="#FAD1D4" transform="translate(142,40)"/>
<path d="M0 0 C0.66 0 1.32 0 2 0 C2.33 1.98 2.66 3.96 3 6 C3.99 5.67 4.98 5.34 6 5 C5.25 7.875 5.25 7.875 4 11 C2.02 11.99 2.02 11.99 0 13 C0 8.71 0 4.42 0 0 Z " fill="#FCFBFD" transform="translate(140,45)"/>
<path d="M0 0 C1.98 0 3.96 0 6 0 C6 3.20395416 5.25664978 5.09399739 4 8 C3.01 8 2.02 8 1 8 C0.67 5.36 0.34 2.72 0 0 Z " fill="#F8F1F2" transform="translate(66,24)"/>
<path d="M0 0 C1.17219543 0.78345715 2.33763668 1.57702836 3.5 2.375 C4.47453125 3.03628906 4.47453125 3.03628906 5.46875 3.7109375 C5.9740625 4.13632812 6.479375 4.56171875 7 5 C7 5.66 7 6.32 7 7 C7.66 7.33 8.32 7.66 9 8 C8.01 8 7.02 8 6 8 C6.33 9.65 6.66 11.3 7 13 C2.56398034 9.48177751 1.47966871 5.24609814 0 0 Z " fill="#D92E35" transform="translate(142,34)"/>
<path d="M0 0 C1.32 0 2.64 0 4 0 C4.33 1.65 4.66 3.3 5 5 C4.01 5.495 4.01 5.495 3 6 C3 4.68 3 3.36 3 2 C2.01 2 1.02 2 0 2 C0 2.66 0 3.32 0 4 C-0.66 4 -1.32 4 -2 4 C-2 5.32 -2 6.64 -2 8 C-4 9.75 -4 9.75 -6 11 C-5.55376936 5.9427194 -3.49357358 3.49357358 0 0 Z " fill="#D35A60" transform="translate(28,27)"/>
<path d="M0 0 C2.31 0 4.62 0 7 0 C7 0.66 7 1.32 7 2 C7.66 2 8.32 2 9 2 C9 3.65 9 5.3 9 7 C8.01 7 7.02 7 6 7 C5.67 5.68 5.34 4.36 5 3 C4.360625 2.87625 3.72125 2.7525 3.0625 2.625 C2.381875 2.41875 1.70125 2.2125 1 2 C0.67 1.34 0.34 0.68 0 0 Z " fill="#E81C26" transform="translate(56,25)"/>
<path d="M0 0 C0.66 0.33 1.32 0.66 2 1 C1.01 2.485 1.01 2.485 0 4 C-0.66 4 -1.32 4 -2 4 C-1.67 4.99 -1.34 5.98 -1 7 C-4.57644848 8.2380014 -7.33694766 7.74926071 -11 7 C-7.87266023 4.47407173 -4.6039388 2.76192564 -1 1 C-0.67 0.67 -0.34 0.34 0 0 Z " fill="#FBDFDD" transform="translate(104,48)"/>
<path d="M0 0 C0.66 0 1.32 0 2 0 C2 1.32 2 2.64 2 4 C3.65 3.67 5.3 3.34 7 3 C7 3.99 7 4.98 7 6 C7.99 6.33 8.98 6.66 10 7 C9.67 7.66 9.34 8.32 9 9 C8.01 9 7.02 9 6 9 C5.34 8.34 4.68 7.68 4 7 C3.01 6.67 2.02 6.34 1 6 C0.67 4.02 0.34 2.04 0 0 Z " fill="#F4F0EF" transform="translate(142,29)"/>
<path d="M0 0 C0.66 0 1.32 0 2 0 C2.99 2.31 3.98 4.62 5 7 C4.01 7 3.02 7 2 7 C0.66018514 7.3062434 -0.67511887 7.63451555 -2 8 C-2 4.23312136 -1.76462683 3.08809695 0 0 Z M1 2 C2 4 2 4 2 4 Z " fill="#F7F6F7" transform="translate(67,72)"/>
<path d="M0 0 C2.86724686 0.57344937 3.8614515 0.8614515 6 3 C6.125 5.625 6.125 5.625 6 8 C4.68 7.67 3.36 7.34 2 7 C1.34 4.69 0.68 2.38 0 0 Z " fill="#DC2228" transform="translate(148,42)"/>
<path d="M0 0 C0.598125 0.185625 1.19625 0.37125 1.8125 0.5625 C4.16408762 1.22093687 4.16408762 1.22093687 7 0 C6.34 2.64 5.68 5.28 5 8 C4.01 7.67 3.02 7.34 2 7 C0.8125 3.4375 0.8125 3.4375 0 0 Z " fill="#262523" transform="translate(152,88)"/>
<path d="M0 0 C0.33 0 0.66 0 1 0 C2.1842171 3.78949472 3.11493798 7.36384801 3.5625 11.3125 C3.76713037 14.81652695 3.76713037 14.81652695 5 17 C3.0625 16.3125 3.0625 16.3125 1 15 C-0.73857695 10.36379481 -0.08552435 4.89389339 0 0 Z " fill="#F9D2CD" transform="translate(19,51)"/>
<path d="M0 0 C0.33 0.66 0.66 1.32 1 2 C1.99 2.33 2.98 2.66 4 3 C2.35 4.98 0.7 6.96 -1 9 C-2.32 8.34 -3.64 7.68 -5 7 C-3.35 4.69 -1.7 2.38 0 0 Z " fill="#F8CECE" transform="translate(32,32)"/>
<path d="M0 0 C5.31522416 2.06100529 9.44815281 4.5628909 14 8 C12 9 12 9 8.875 8.0625 C7.92625 7.711875 6.9775 7.36125 6 7 C6 6.01 6 5.02 6 4 C4.35 3.67 2.7 3.34 1 3 C0.67 2.01 0.34 1.02 0 0 Z " fill="#F9D7D8" transform="translate(127,31)"/>
<path d="M0 0 C1 1 1 1 1.0625 4.5625 C1.041875 5.696875 1.02125 6.83125 1 8 C0.01 8 -0.98 8 -2 8 C-2 5.69 -2 3.38 -2 1 C-3.32 0.67 -4.64 0.34 -6 0 C-3.49749232 -1.25125384 -2.59701335 -0.83774624 0 0 Z " fill="#444341" transform="translate(129,88)"/>
<path d="M0 0 C2.49505962 2.49505962 2.35948376 3.67328888 2.625 7.125 C2.69976562 8.03507812 2.77453125 8.94515625 2.8515625 9.8828125 C2.90054688 10.58148438 2.94953125 11.28015625 3 12 C2.34 12 1.68 12 1 12 C0.67 10.02 0.34 8.04 0 6 C-1.65 5.67 -3.3 5.34 -5 5 C-4.34 4.34 -3.68 3.68 -3 3 C-3.33 2.34 -3.66 1.68 -4 1 C-2.125 0.375 -2.125 0.375 0 0 Z " fill="#D3D3D1" transform="translate(138,83)"/>
<path d="M0 0 C0.99 0.33 1.98 0.66 3 1 C2.34 2.98 1.68 4.96 1 7 C0.34 7 -0.32 7 -1 7 C-1 6.01 -1 5.02 -1 4 C-1.66 4 -2.32 4 -3 4 C-3 4.99 -3 5.98 -3 7 C-3.99 6.67 -4.98 6.34 -6 6 C-6 5.01 -6 4.02 -6 3 C-4.35 3 -2.7 3 -1 3 C-0.67 2.01 -0.34 1.02 0 0 Z " fill="#CBC9CA" transform="translate(107,87)"/>
<path d="M0 0 C0.66 0.33 1.32 0.66 2 1 C2 1.66 2 2.32 2 3 C3.65 3.33 5.3 3.66 7 4 C7 4.33 7 4.66 7 5 C5.35 5.33 3.7 5.66 2 6 C3.65 6.33 5.3 6.66 7 7 C7 7.33 7 7.66 7 8 C4.66705225 8.04241723 2.33297433 8.04092937 0 8 C-1 7 -1 7 -1.125 4 C-1 1 -1 1 0 0 Z " fill="#343333" transform="translate(51,72)"/>
<path d="M0 0 C0.99 0.33 1.98 0.66 3 1 C2.01 2.485 2.01 2.485 1 4 C0.34 3.01 -0.32 2.02 -1 1 C-0.67 0.67 -0.34 0.34 0 0 Z M-3 1 C-3 1.66 -3 2.32 -3 3 C-2.01 3.33 -1.02 3.66 0 4 C-0.66 5.32 -1.32 6.64 -2 8 C-3.65 6.02 -5.3 4.04 -7 2 C-5 1 -5 1 -3 1 Z " fill="#E5E5E5" transform="translate(68,49)"/>
<path d="M0 0 C1.98835636 0.23197491 3.97644166 0.46750552 5.9609375 0.73046875 C7.42967228 0.92461185 8.90162972 1.09490839 10.375 1.25 C12 2 12 2 13.25 4.5625 C13.4975 5.366875 13.745 6.17125 14 7 C9.25981099 5.16508812 4.63586749 3.08058541 0 1 C0 0.67 0 0.34 0 0 Z " fill="#FBD3CF" transform="translate(124,24)"/>
<path d="M0 0 C0.33 1.32 0.66 2.64 1 4 C0.34 4 -0.32 4 -1 4 C-0.649375 4.556875 -0.29875 5.11375 0.0625 5.6875 C1.21845993 8.53886783 0.80967438 10.08517222 0 13 C-0.66 12.67 -1.32 12.34 -2 12 C-2 10.68 -2 9.36 -2 8 C-2.66 7.34 -3.32 6.68 -4 6 C-1.125 1.125 -1.125 1.125 0 0 Z " fill="#EEEEED" transform="translate(159,38)"/>
<path d="M0 0 C1.32 0 2.64 0 4 0 C4 1.98 4 3.96 4 6 C3.01 5.67 2.02 5.34 1 5 C0.34 5.99 -0.32 6.98 -1 8 C-1.04241723 5.66705225 -1.04092937 3.33297433 -1 1 C-0.67 0.67 -0.34 0.34 0 0 Z " fill="#292927" transform="translate(94,33)"/>
<path d="M0 0 C2.46278801 2.46278801 2.99771255 4.70676982 4 8 C3.01 8.495 3.01 8.495 2 9 C2 9.66 2 10.32 2 11 C1.01 11.495 1.01 11.495 0 12 C-1.57312496 8.32937509 -2.14440048 6.55697326 -1.125 2.625 C-0.75375 1.75875 -0.3825 0.8925 0 0 Z " fill="#D5313A" transform="translate(65,27)"/>
<path d="M0 0 C1.32 0 2.64 0 4 0 C4 2.64 4 5.28 4 8 C2.35 7.67 0.7 7.34 -1 7 C-0.67 6.34 -0.34 5.68 0 5 C0.99 5.33 1.98 5.66 3 6 C3 5.34 3 4.68 3 4 C2.01 3.67 1.02 3.34 0 3 C0 2.01 0 1.02 0 0 Z " fill="#D8D7D7" transform="translate(83,90)"/>
<path d="M0 0 C0.99 0 1.98 0 3 0 C2.34 3.3 1.68 6.6 1 10 C0.34 10 -0.32 10 -1 10 C-1.02689216 8.52093108 -1.04634621 7.04172517 -1.0625 5.5625 C-1.07410156 4.73878906 -1.08570312 3.91507813 -1.09765625 3.06640625 C-1 1 -1 1 0 0 Z " fill="#353535" transform="translate(110,60)"/>
<path d="M0 0 C3.875 0.875 3.875 0.875 5 2 C6.99422795 2.36628677 8.99453311 2.70131344 11 3 C10.67 3.66 10.34 4.32 10 5 C6.7 5 3.4 5 0 5 C0 3.35 0 1.7 0 0 Z " fill="#F7F4F3" transform="translate(112,18)"/>
<path d="M0 0 C2 1 2 1 3.125 4.0625 C3.41375 5.031875 3.7025 6.00125 4 7 C1.03 6.505 1.03 6.505 -2 6 C-2.33 5.01 -2.66 4.02 -3 3 C-2.01 3 -1.02 3 0 3 C0 2.01 0 1.02 0 0 Z " fill="#D82F3B" transform="translate(154,47)"/>
<path d="M0 0 C0.68707555 2.49064888 1 4.37886292 1 7 C0.34 7 -0.32 7 -1 7 C-1.33 7.66 -1.66 8.32 -2 9 C-1.34 9.33 -0.68 9.66 0 10 C-0.99 10 -1.98 10 -3 10 C-3.36923077 4.58461538 -3.36923077 4.58461538 -1.5 1.625 C-1.005 1.08875 -0.51 0.5525 0 0 Z " fill="#1C181A" transform="translate(83,35)"/>
<path d="M0 0 C0.12375 0.61875 0.2475 1.2375 0.375 1.875 C0.87197356 4.19120832 0.87197356 4.19120832 3 6 C-0.465 7.485 -0.465 7.485 -4 9 C-4 7.68 -4 6.36 -4 5 C-3.34 4.67 -2.68 4.34 -2 4 C-0.86649466 1.98330173 -0.86649466 1.98330173 0 0 Z " fill="#F8DFDC" transform="translate(47,21)"/>
<path d="M0 0 C2.31 0.33 4.62 0.66 7 1 C7 1.99 7 2.98 7 4 C4.69 4 2.38 4 0 4 C0 2.68 0 1.36 0 0 Z " fill="#363535" transform="translate(99,86)"/>
<path d="M0 0 C0.99 0.33 1.98 0.66 3 1 C4.125 6.625 4.125 6.625 3 10 C3.99 10.33 4.98 10.66 6 11 C4.68 11 3.36 11 2 11 C1.855625 9.9275 1.71125 8.855 1.5625 7.75 C1.16250558 5.08337051 0.72408076 2.58600271 0 0 Z " fill="#FCCBCB" transform="translate(25,52)"/>
<path d="M0 0 C0.103125 0.639375 0.20625 1.27875 0.3125 1.9375 C0.539375 2.618125 0.76625 3.29875 1 4 C1.99 4.33 2.98 4.66 4 5 C3.01 6.98 2.02 8.96 1 11 C-0.98362069 8.08291076 -0.9876191 6.87619096 -0.625 3.25 C-0.41875 2.1775 -0.2125 1.105 0 0 Z " fill="#D3323D" transform="translate(111,30)"/>
<path d="M0 0 C1.98 0.66 3.96 1.32 6 2 C6 3.32 6 4.64 6 6 C4.125 5.8125 4.125 5.8125 2 5 C0.75 2.4375 0.75 2.4375 0 0 Z " fill="#F5F1F1" transform="translate(135,25)"/>
<path d="M0 0 C0 2.31 0 4.62 0 7 C-2 6 -2 6 -3 4 C-3.33 4.66 -3.66 5.32 -4 6 C-4.66 6 -5.32 6 -6 6 C-6 4.68 -6 3.36 -6 2 C-1.125 0 -1.125 0 0 0 Z " fill="#C0BFBD" transform="translate(149,88)"/>
<path d="M0 0 C3.3 0 6.6 0 10 0 C8.02 0.99 8.02 0.99 6 2 C6 2.66 6 3.32 6 4 C3.03 3.505 3.03 3.505 0 3 C0 2.01 0 1.02 0 0 Z " fill="#D3D3D1" transform="translate(118,80)"/>
<path d="M0 0 C0.99 0.33 1.98 0.66 3 1 C3.6875 3.0625 3.6875 3.0625 4 5 C3.34 5 2.68 5 2 5 C1.67 5.66 1.34 6.32 1 7 C0.34 6.34 -0.32 5.68 -1 5 C-0.625 2.375 -0.625 2.375 0 0 Z " fill="#F4F3F2" transform="translate(68,54)"/>
<path d="M0 0 C0.33 0.99 0.66 1.98 1 3 C1.66 3.33 2.32 3.66 3 4 C0 6 0 6 -3 6 C-3 4.35 -3 2.7 -3 1 C-2.01 0.67 -1.02 0.34 0 0 Z " fill="#CD3A3E" transform="translate(96,48)"/>
<path d="M0 0 C0.33 0 0.66 0 1 0 C1 2.97 1 5.94 1 9 C2.65 8.67 4.3 8.34 6 8 C4.71034824 9.37562854 3.37310707 10.70766393 2 12 C1.34 12 0.68 12 0 12 C0 8.04 0 4.08 0 0 Z " fill="#E4D6D5" transform="translate(98,34)"/>
<path d="M0 0 C3 1 3 1 4.75 3.375 C6 6 6 6 5 9 C0 3.375 0 3.375 0 0 Z " fill="#DB1D25" transform="translate(139,33)"/>
<path d="M0 0 C4.455 0.99 4.455 0.99 9 2 C8.67 2.66 8.34 3.32 8 4 C5.36 4 2.72 4 0 4 C0 2.68 0 1.36 0 0 Z " fill="#FEDCDC" transform="translate(117,28)"/>
<path d="M0 0 C0.598125 0.78375 1.19625 1.5675 1.8125 2.375 C3.91085249 5.14574323 3.91085249 5.14574323 7 7 C4.525 8.485 4.525 8.485 2 10 C0.68373308 6.38026598 0 3.90432869 0 0 Z " fill="#F6DCDC" transform="translate(36,24)"/>
<path d="M0 0 C0.33 1.32 0.66 2.64 1 4 C1.99 4 2.98 4 4 4 C4.33 3.01 4.66 2.02 5 1 C5.66 1.33 6.32 1.66 7 2 C6.34 3.32 5.68 4.64 5 6 C3.35 5.67 1.7 5.34 0 5 C0 3.35 0 1.7 0 0 Z " fill="#201F1E" transform="translate(141,90)"/>
<path d="M0 0 C0.99 0.33 1.98 0.66 3 1 C3.33 2.98 3.66 4.96 4 7 C2.68 7 1.36 7 0 7 C0 6.34 0 5.68 0 5 C-0.66 4.67 -1.32 4.34 -2 4 C-1.34 2.68 -0.68 1.36 0 0 Z " fill="#EFDBD6" transform="translate(20,33)"/>
<path d="M0 0 C0.66 0 1.32 0 2 0 C2.33 0.99 2.66 1.98 3 3 C5.01508358 3.73323796 5.01508358 3.73323796 7 4 C7 4.66 7 5.32 7 6 C4.625 6.125 4.625 6.125 2 6 C1.34 5.34 0.68 4.68 0 4 C0 2.68 0 1.36 0 0 Z " fill="#1B1C18" transform="translate(160,90)"/>
<path d="M0 0 C0.66 0.33 1.32 0.66 2 1 C0.52307692 6.66153846 0.52307692 6.66153846 -2.125 8.375 C-2.74375 8.58125 -3.3625 8.7875 -4 9 C-2.25 2.25 -2.25 2.25 0 0 Z " fill="#FAD7D4" transform="translate(37,40)"/>
<path d="M0 0 C0.66 0 1.32 0 2 0 C2.33 0.66 2.66 1.32 3 2 C3.99 2.66 4.98 3.32 6 4 C3.525 5.485 3.525 5.485 1 7 C0.67 4.69 0.34 2.38 0 0 Z " fill="#EAECED" transform="translate(40,48)"/>
<path d="M0 0 C0.33 0.66 0.66 1.32 1 2 C1.66 2 2.32 2 3 2 C3 2.66 3 3.32 3 4 C4.65 4 6.3 4 8 4 C8 4.33 8 4.66 8 5 C4.37 5 0.74 5 -3 5 C-2.01 4.67 -1.02 4.34 0 4 C0 2.68 0 1.36 0 0 Z " fill="#2D2B2A" transform="translate(89,41)"/>
<path d="M0 0 C0.66 0.33 1.32 0.66 2 1 C1.3125 2.9375 1.3125 2.9375 0 5 C-2.625 5.75 -2.625 5.75 -5 6 C-4.01 5.34 -3.02 4.68 -2 4 C-2.66 3.34 -3.32 2.68 -4 2 C-2.125 0.9375 -2.125 0.9375 0 0 Z " fill="#FAFAF8" transform="translate(53,31)"/>
<path d="M0 0 C3.71599191 -0.20086443 4.77208445 -0.1519437 8 2 C7.67 3.32 7.34 4.64 7 6 C6.38125 5.2884375 6.38125 5.2884375 5.75 4.5625 C3.817815 2.83733482 2.51807725 2.43415125 0 2 C0 1.34 0 0.68 0 0 Z " fill="#FCE2DE" transform="translate(58,21)"/>
<path d="M0 0 C0.66 0.33 1.32 0.66 2 1 C2 1.99 2 2.98 2 4 C-0.35438733 5.42944945 -1.48032433 6.08661261 -4.25 5.625 C-4.8275 5.41875 -5.405 5.2125 -6 5 C-4.02 3.35 -2.04 1.7 0 0 Z " fill="#171415" transform="translate(58,51)"/>
<path d="M0 0 C1.32 0 2.64 0 4 0 C4.33 1.65 4.66 3.3 5 5 C3.68 4.67 2.36 4.34 1 4 C0.67 2.68 0.34 1.36 0 0 Z " fill="#FBE3DF" transform="translate(74,40)"/>
<path d="M0 0 C2.875 -0.125 2.875 -0.125 6 0 C8 2 8 2 8 6 C7.34 6 6.68 6 6 6 C5.67 4.35 5.34 2.7 5 1 C3.35 1.33 1.7 1.66 0 2 C0 1.34 0 0.68 0 0 Z " fill="#F9DEDA" transform="translate(27,26)"/>
<path d="M0 0 C0.99 1.32 1.98 2.64 3 4 C1.02 4.33 -0.96 4.66 -3 5 C-3 4.34 -3 3.68 -3 3 C-3.66 2.67 -4.32 2.34 -5 2 C-3.35 1.34 -1.7 0.68 0 0 Z " fill="#F2F2F0" transform="translate(86,8)"/>
<path d="M0 0 C0.66 0 1.32 0 2 0 C2.33 0.99 2.66 1.98 3 3 C3.66 3.33 4.32 3.66 5 4 C5 4.66 5 5.32 5 6 C3.35 5.67 1.7 5.34 0 5 C0 3.35 0 1.7 0 0 Z " fill="#1D1B1C" transform="translate(81,90)"/>
<path d="M0 0 C1.98 0.495 1.98 0.495 4 1 C3.67 1.99 3.34 2.98 3 4 C3.66 4.33 4.32 4.66 5 5 C4.01 5.33 3.02 5.66 2 6 C1.01 5.01 0.02 4.02 -1 3 C-0.67 2.01 -0.34 1.02 0 0 Z " fill="#DBDCD8" transform="translate(158,83)"/>
<path d="M0 0 C0.99 0.33 1.98 0.66 3 1 C2.67 4.96 2.34 8.92 2 13 C1.67 13 1.34 13 1 13 C0.67 8.71 0.34 4.42 0 0 Z " fill="#F0B0B0" transform="translate(157,51)"/>
<path d="M0 0 C-0.375 1.9375 -0.375 1.9375 -1 4 C-1.99 4.495 -1.99 4.495 -3 5 C-3 4.34 -3 3.68 -3 3 C-4.32 3.33 -5.64 3.66 -7 4 C-7 3.34 -7 2.68 -7 2 C-2.25 0 -2.25 0 0 0 Z " fill="#DD2027" transform="translate(46,31)"/>
<path d="M0 0 C0 1.65 0 3.3 0 5 C-0.99 5 -1.98 5 -3 5 C-3.33 3.68 -3.66 2.36 -4 1 C-2 0 -2 0 0 0 Z " fill="#DA1E27" transform="translate(65,27)"/>
<path d="M0 0 C0.33 0 0.66 0 1 0 C1 2.64 1 5.28 1 8 C-0.65 8.33 -2.3 8.66 -4 9 C-4 8.34 -4 7.68 -4 7 C-3.01 6.67 -2.02 6.34 -1 6 C-0.67 4.02 -0.34 2.04 0 0 Z " fill="#403F3F" transform="translate(91,14)"/>
</svg>
